<svg xmlns="http://www.w3.org/2000/svg" xmlns:xlink="http://www.w3.org/1999/xlink" xmlns:lucid="lucid" width="752.08"
     height="1040">
    <g transform="translate(-34 0)" lucid:page-tab-id="HWEp-vi-RSFO">
        <path d="M0 0h802.7v1034.42H0z" fill="#fff"/>
        <path d="M491 566h229v314H100V540h372zm-391 0h391" stroke="#333" stroke-width="2" fill="#fff"/>
        <use xlink:href="#a" transform="matrix(1,0,0,1,108,540) translate(149.55 16.6)"/>
        <path d="M160 580h180v40H160z" stroke="#333" stroke-width="2" fill="#fff"/>
        <use xlink:href="#b" transform="matrix(1,0,0,1,168,588) translate(2.0749999999999886 15.6)"/>
        <use xlink:href="#c" transform="matrix(1,0,0,1,168,588) translate(94.02499999999999 15.6)"/>
        <path d="M160 660h180v40H160z" stroke="#333" stroke-width="2" fill="#fff"/>
        <use xlink:href="#d" transform="matrix(1,0,0,1,168,668) translate(28.099999999999994 15.6)"/>
        <use xlink:href="#e" transform="matrix(1,0,0,1,168,668) translate(97.95 15.6)"/>
        <path d="M120 740h260v41H120z" stroke="#333" stroke-width="2" fill="#fff"/>
        <use xlink:href="#f" transform="matrix(1,0,0,1,128,748) translate(5.199999999999989 16.1)"/>
        <use xlink:href="#g" transform="matrix(1,0,0,1,128,748) translate(80.05 16.1)"/>
        <use xlink:href="#h" transform="matrix(1,0,0,1,128,748) translate(150.95 16.1)"/>
        <path d="M120 820h580v40H120z" stroke="#333" stroke-width="2" fill="#fff"/>
        <use xlink:href="#i" transform="matrix(1,0,0,1,128,828) translate(237.575 15.6)"/>
        <use xlink:href="#j" transform="matrix(1,0,0,1,128,828) translate(291.475 15.6)"/>
        <path d="M500 660h200v38H500z" stroke="#333" stroke-width="2" fill="#fff"/>
        <use xlink:href="#b" transform="matrix(1,0,0,1,508,668) translate(12.074999999999989 14.6)"/>
        <use xlink:href="#k" transform="matrix(1,0,0,1,508,668) translate(104.02499999999999 14.6)"/>
        <path d="M250 621.5v6.1m0 6.1v12.2m0 6.1v6.1" stroke="#333" fill="none"/>
        <path d="M250.5 621.5h-1v-.5h1z" stroke="#333" stroke-width=".05" fill="#333"/>
        <path d="M239.82 640.8L250 658.02l10.18-17.22M250 701.5v6.1m0 6.1v12.2m0 6.1v6.1" stroke="#333" fill="none"/>
        <path d="M250.5 701.5h-1v-.5h1z" stroke="#333" stroke-width=".05" fill="#333"/>
        <path d="M239.82 720.8L250 738.02l10.18-17.22M341.5 680h4.7m4.72 0h9.4m4.72 0h9.42m4.7 0h9.42m4.7 0H398l1.88.15 1.83.44 1.75.7m4.26 3.65l1 1.6.7 1.74.45 1.82v4.74m0 4.74l.02 9.48m0 4.74l.02 9.48m0 4.74v9.48m0 4.74l.02 9.48m0 4.74l.02 9.48m0 4.74l.02 9.47m0 4.74v9.5m.02 4.73v9.48m0 4.75l.02 4.74"
              stroke="#333" fill="none"/>
        <path d="M341.5 680.5h-.5v-1h.5z" stroke="#333" stroke-width=".05" fill="#333"/>
        <path d="M399.82 800.8L410 818.02l10.18-17.22M250 782.5v5.93m0 5.93v11.87m0 5.93v5.93" stroke="#333"
              fill="none"/>
        <path d="M250.5 782.5h-1v-.5h1z" stroke="#333" stroke-width=".05" fill="#333"/>
        <path d="M239.82 800.8L250 818.02l10.18-17.22M600 699.5v4.94m0 4.94v9.9m0 4.93v9.9m0 4.93v9.88m0 4.95v9.9m0 4.93v9.88m0 4.94v9.88m0 4.95v9.88m0 4.95v4.94"
              stroke="#333" fill="none"/>
        <path d="M600.5 699.5h-1v-.5h1z" stroke="#333" stroke-width=".05" fill="#333"/>
        <path d="M589.82 800.8L600 818.02l10.18-17.22M341.5 600h4.97m4.98 0h9.95m4.97 0h9.95m4.98 0h9.94m4.98 0h9.95m4.97 0h9.95m4.96 0H436m5 0h4.96l1.88.15 1.83.44 1.74.7m4.27 3.65l.98 1.6.72 1.74.44 1.82.02 4.95m0 4.96v9.9m0 4.95l.02 9.9m0 4.96v9.9m0 4.95l.02 9.9m0 4.95v9.9m0 4.95l.02 9.9m0 4.96v9.9m.02 4.95v9.9m0 4.96v9.9m.02 4.96v9.9m0 4.95v9.9m.02 4.96v9.9m0 4.95l.02 9.9m0 4.96v4.95"
              stroke="#333" fill="none"/>
        <path d="M341.5 600.5h-.5v-1h.5z" stroke="#333" stroke-width=".05" fill="#333"/>
        <path d="M447.78 800.8l10.18 17.22 10.18-17.22" stroke="#333" fill="none"/>
        <path d="M352.13 366h111v94h-300V340h180zm-189 0h189" stroke="#333" stroke-width="2" fill="#fff"/>
        <use xlink:href="#l" transform="matrix(1,0,0,1,171.125,340) translate(39.12499999999999 16.6)"/>
        <use xlink:href="#m" transform="matrix(1,0,0,1,175.125,374) translate(23.650000000000034 14.4)"/>
        <use xlink:href="#n" transform="matrix(1,0,0,1,175.125,374) translate(30.675000000000026 36)"/>
        <use xlink:href="#o" transform="matrix(1,0,0,1,175.125,374) translate(56.17500000000001 57.6)"/>
        <use xlink:href="#p" transform="matrix(1,0,0,1,175.125,374) translate(18.674999999999983 79.20000000000002)"/>
        <use xlink:href="#q" transform="matrix(1,0,0,1,175.125,374) translate(110.62499999999999 79.20000000000002)"/>
        <use xlink:href="#r" transform="matrix(1,0,0,1,175.125,374) translate(174.525 79.20000000000002)"/>
        <path d="M313.13 461.5v5.1m0 5.1v10.22m0 5.1v10.22m0 5.1v10.22m0 5.1v10.22m0 5.1v5.1" stroke="#333"
              fill="none"/>
        <path d="M313.63 461.5h-1v-.5h1z" stroke="#333" stroke-width=".05" fill="#333"/>
        <path d="M302.94 520.8l10.2 17.22 10.17-17.22" stroke="#333" fill="none"/>
        <path d="M485.08 46h215v234h-580V20h348zm-365 0h365" stroke="#333" stroke-width="2" fill="#fff"/>
        <use xlink:href="#s" transform="matrix(1,0,0,1,128.0796703296703,20) translate(143.225 16.6)"/>
        <path d="M140.08 60h540v40h-540z" stroke="#333" stroke-width="2" fill="#fff"/>
        <use xlink:href="#t" transform="matrix(1,0,0,1,148.0796703296703,68) translate(223.775 15.6)"/>
        <path d="M140.08 140h536.87v40H140.08z" stroke="#333" stroke-width="2" fill="#fff"/>
        <use xlink:href="#u" transform="matrix(1,0,0,1,148.0796703296703,148) translate(197.75 15.6)"/>
        <path d="M140.08 220h240v40h-240z" stroke="#333" stroke-width="2" fill="#fff"/>
        <use xlink:href="#v" transform="matrix(1,0,0,1,148.0796703296703,228) translate(24.275000000000006 15.6)"/>
        <path d="M436.95 220h240v41h-240z" stroke="#333" stroke-width="2" fill="#fff"/>
        <use xlink:href="#b" transform="matrix(1,0,0,1,444.9546703296702,228) translate(12.124999999999986 16.1)"/>
        <use xlink:href="#q" transform="matrix(1,0,0,1,444.9546703296702,228) translate(104.07499999999999 16.1)"/>
        <use xlink:href="#w" transform="matrix(1,0,0,1,444.9546703296702,228) translate(167.97500000000002 16.1)"/>
        <path d="M220 960h380v60H220z" stroke="#333" stroke-width="2" fill="#fff"/>
        <use xlink:href="#x" transform="matrix(1,0,0,1,228,968) translate(164.575 25.6)"/>
        <path d="M260.08 181.5v6.1m0 6.1v12.2m0 6.1v6.1" stroke="#333" fill="none"/>
        <path d="M260.58 181.5h-1v-.5h1z" stroke="#333" stroke-width=".05" fill="#333"/>
        <path d="M249.9 200.8l10.18 17.22 10.18-17.22M556.2 281.5v5.24m0 5.24v10.47m0 5.24v10.46m0 5.24v10.48m0 5.24v10.47m0 5.23v10.47m0 5.24v10.48m0 5.24v10.47m0 5.24v10.47m0 5.24V422.96h-.02v.02h-.02l-.02.02h-.06v.02h-.02l-.02.02v5.25m0 5.2v10.46m0 5.22v10.45m0 5.22v10.45m0 5.22v10.45m0 5.22v10.44m0 5.22v10.45m0 5.23v10.45m0 5.22v10.44m0 5.23v5.22"
              stroke="#333" fill="none"/>
        <path d="M556.7 281.5h-1v-.5h1z" stroke="#333" stroke-width=".05" fill="#333"/>
        <path d="M545.85 546.8l10.2 17.22 10.17-17.22M410 881.5v5.1m0 5.1v10.22m0 5.1v10.22m0 5.1v10.22m0 5.1v10.22m0 5.1v5.1"
              stroke="#333" fill="none"/>
        <path d="M410.5 881.5h-1v-.5h1z" stroke="#333" stroke-width=".05" fill="#333"/>
        <path d="M399.82 940.8L410 958.02l10.18-17.22M701.58 150h5.54m5.54 0h11.1m5.53 0h11.07m5.54 0H757m5.54 0h5.54l1.88.15 1.83.44 1.73.7m4.26 3.65l.97 1.6.72 1.74.43 1.82v4.96m0 4.96v9.9m0 4.97v9.92m0 4.96v9.9m0 4.97v9.9m0 4.97l.02 9.9m0 4.97v9.9m0 4.96v9.9m0 4.97v9.9m0 4.97v9.9m0 4.97v9.9m0 4.97v9.92m0 4.95l.02 9.93m0 4.95v9.92m0 4.95v9.92m0 4.95v9.92m0 4.95v9.9m0 4.96v9.92m0 4.95v9.92m0 4.96v9.92m0 4.96l.02 9.9m0 4.97v9.9m0 4.97v9.9m0 4.97v9.9m0 4.96v9.9m0 4.97v9.9m0 4.97v9.9m0 4.97v9.9m0 4.97v9.9m0 4.97v9.92m0 4.96v9.9m0 4.97l.02 9.9m0 4.97v9.92m0 4.95v9.9m0 4.96v9.92m0 4.95v9.92m0 4.95v9.92m0 4.95v9.92m0 4.94v9.92m.02 4.96v9.9m0 4.97v9.9m0 4.96v9.9m0 4.97v9.9m0 4.97v9.9m0 4.97v9.9m0 4.97v9.9m0 4.97l.02 9.92m0 4.96v9.9m0 4.97v9.9m0 4.97v9.9m0 4.97v9.9m0 4.96v9.9m0 4.97v9.92m0 4.95l.02 9.92m0 4.95v9.92m0 4.94V978l-.15 1.88-.44 1.83-.73 1.75m-3.64 4.26l-1.6 1-1.74.7-1.84.45h-5.1m-5.1 0l-10.17.02m-5.1 0h-10.2m-5.08.02h-10.2m-5.08 0h-10.18m-5.1 0l-10.18.02m-5.1 0l-10.18.02m-5.1 0h-10.17m-5.1.02h-10.18m-5.1 0l-10.18.02m-5.1 0H612.1m-5.1.02h-5.1"
              stroke="#333" fill="none"/>
        <path d="M701.6 150.5h-.52v-1h.5z" stroke="#333" stroke-width=".05" fill="#333"/>
        <path d="M619.2 979.82L601.98 990l17.22 10.18M161.63 400h-5.23m-5.22 0h-10.44m-5.22 0h-10.44m-5.22 0h-10.44m-5.22 0H93.76m-5.22 0H78.1m-5.22 0H62.44m-5.22 0H52l-1.88.15-1.83.44-1.75.7m-4.26 3.65l-1 1.6-.7 1.74-.45 1.82v4.98m0 5v9.95m0 4.98V445m0 4.97l-.02 9.97m0 4.98v9.96m0 4.98v9.96m0 5v9.95m0 4.98v9.96m0 5v9.96m-.02 4.98v9.96m0 4.98v9.97m0 4.98v9.96m0 4.97v9.96m0 5v9.95m0 4.98v9.96m0 4.98v9.97m0 4.98l-.02 9.96m0 5v9.95m0 5v9.95m0 4.98v9.96m0 4.98V714m0 4.97l-.02 9.96m0 4.98v9.98m0 4.98v9.96m0 4.98v9.96m0 4.98v9.97m0 5v9.95m-.02 4.98v9.97m0 4.98v9.96m0 4.98v9.96m0 5v9.95m0 4.98v9.97m-.02 4.98v9.97m0 4.98v9.96m0 4.98v9.96m0 5v9.95m0 4.98v9.96m0 4.97l-.02 9.97m0 4.98V978l.15 1.88.44 1.83.7 1.75m3.65 4.26l1.6 1 1.74.7 1.82.45h5.1m5.08 0l10.18.02m5.1 0h10.17m5.1.02H101m5.1 0h10.17m5.08 0l10.18.02m5.1 0l10.17.02m5.1 0h10.17m5.1.02h10.17m5.1 0l10.17.02m5.1 0h10.17m5.1.02h5.1"
              stroke="#333" fill="none"/>
        <path d="M162.13 400.5h-.52v-1h.53z" stroke="#333" stroke-width=".05" fill="#333"/>
        <path d="M200.8 1000.18L218.02 990l-17.22-10.18M410.08 101.5v6.17m0 6.16v12.2m0 6.03v6.03" stroke="#333"
              fill="none"/>
        <path d="M410.58 101.5h-1v-.5h1z" stroke="#333" stroke-width=".05" fill="#333"/>
        <path d="M399.9 120.8l10.18 17.22 10.18-17.22M556.95 218.1v-6.04m0-6.03v-12.2m0-6.16v-6.17M546.77 200.8l10.18 17.22 10.2-17.22"
              stroke="#333" fill="none"/>
        <path d="M557.45 181.5h-1v-.5h1z" stroke="#333" stroke-width=".05" fill="#333"/>
        <path d="M263.96 281.5v4.74m0 4.73v9.48m0 4.73V309.96h.02v.02h.02l.02.02h.06v.02h.02l.02.02V314.74m0 4.67v9.35m0 4.67v4.67"
              stroke="#333" fill="none"/>
        <path d="M264.46 281.5h-1v-.5h1z" stroke="#333" stroke-width=".05" fill="#333"/>
        <path d="M253.94 320.8l10.18 17.22 10.2-17.22M410.08 369.5v-4.87m0-4.86v-9.73m0-4.87v-9.73m0-4.87v-9.73m0-4.87v-9.73m0-4.87v-9.73m0-4.86v-4.87M410.08 369.5v3.5M420.26 299.2l-10.18-17.22-10.18 17.22"
              stroke="#333" fill="none"/>
        <defs>
            <path fill="#333"
                  d="M240 0l2-218c-23 76-54 145-80 218h-23L58-218 59 0H30v-248h44l77 211c21-75 51-140 76-211h43V0h-30"
                  id="y"/>
            <path fill="#333"
                  d="M100-194c62-1 85 37 85 99 1 63-27 99-86 99S16-35 15-95c0-66 28-99 85-99zM99-20c44 1 53-31 53-75 0-43-8-75-51-75s-53 32-53 75 10 74 51 75"
                  id="z"/>
            <path fill="#333"
                  d="M85-194c31 0 48 13 60 33l-1-100h32l1 261h-30c-2-10 0-23-3-31C134-8 116 4 85 4 32 4 16-35 15-94c0-66 23-100 70-100zm9 24c-40 0-46 34-46 75 0 40 6 74 45 74 42 0 51-32 51-76 0-42-9-74-50-73"
                  id="A"/>
            <path fill="#333"
                  d="M100-194c63 0 86 42 84 106H49c0 40 14 67 53 68 26 1 43-12 49-29l28 8c-11 28-37 45-77 45C44 4 14-33 15-96c1-61 26-98 85-98zm52 81c6-60-76-77-97-28-3 7-6 17-6 28h103"
                  id="B"/>
            <path fill="#333" d="M24 0v-261h32V0H24" id="C"/>
            <g id="a">
                <use transform="matrix(0.05,0,0,0.05,0,0)" xlink:href="#y"/>
                <use transform="matrix(0.05,0,0,0.05,14.950000000000001,0)" xlink:href="#z"/>
                <use transform="matrix(0.05,0,0,0.05,24.950000000000003,0)" xlink:href="#A"/>
                <use transform="matrix(0.05,0,0,0.05,34.95,0)" xlink:href="#B"/>
                <use transform="matrix(0.05,0,0,0.05,44.95,0)" xlink:href="#C"/>
            </g>
            <path fill="#333" d="M205 0l-28-72H64L36 0H1l101-248h38L239 0h-34zm-38-99l-47-123c-12 45-31 82-46 123h93"
                  id="D"/>
            <path fill="#333"
                  d="M84 4C-5 8 30-112 23-190h32v120c0 31 7 50 39 49 72-2 45-101 50-169h31l1 190h-30c-1-10 1-25-2-33-11 22-28 36-60 37"
                  id="E"/>
            <path fill="#333" d="M59-47c-2 24 18 29 38 22v24C64 9 27 4 27-40v-127H5v-23h24l9-43h21v43h35v23H59v120"
                  id="F"/>
            <path fill="#333"
                  d="M210-169c-67 3-38 105-44 169h-31v-121c0-29-5-50-35-48C34-165 62-65 56 0H25l-1-190h30c1 10-1 24 2 32 10-44 99-50 107 0 11-21 27-35 58-36 85-2 47 119 55 194h-31v-121c0-29-5-49-35-48"
                  id="G"/>
            <path fill="#333"
                  d="M141-36C126-15 110 5 73 4 37 3 15-17 15-53c-1-64 63-63 125-63 3-35-9-54-41-54-24 1-41 7-42 31l-33-3c5-37 33-52 76-52 45 0 72 20 72 64v82c-1 20 7 32 28 27v20c-31 9-61-2-59-35zM48-53c0 20 12 33 32 33 41-3 63-29 60-74-43 2-92-5-92 41"
                  id="H"/>
            <path fill="#333"
                  d="M117-194c89-4 53 116 60 194h-32v-121c0-31-8-49-39-48C34-167 62-67 57 0H25l-1-190h30c1 10-1 24 2 32 11-22 29-35 61-36"
                  id="I"/>
            <g id="b">
                <use transform="matrix(0.05,0,0,0.05,0,0)" xlink:href="#D"/>
                <use transform="matrix(0.05,0,0,0.05,12,0)" xlink:href="#E"/>
                <use transform="matrix(0.05,0,0,0.05,22,0)" xlink:href="#F"/>
                <use transform="matrix(0.05,0,0,0.05,27,0)" xlink:href="#z"/>
                <use transform="matrix(0.05,0,0,0.05,37,0)" xlink:href="#G"/>
                <use transform="matrix(0.05,0,0,0.05,51.95,0)" xlink:href="#H"/>
                <use transform="matrix(0.05,0,0,0.05,61.95,0)" xlink:href="#F"/>
                <use transform="matrix(0.05,0,0,0.05,66.95,0)" xlink:href="#z"/>
                <use transform="matrix(0.05,0,0,0.05,76.95,0)" xlink:href="#I"/>
            </g>
            <path fill="#333" d="M101-234c-31-9-42 10-38 44h38v23H63V0H32v-167H5v-23h27c-7-52 17-82 69-68v24" id="J"/>
            <path fill="#333"
                  d="M96-169c-40 0-48 33-48 73s9 75 48 75c24 0 41-14 43-38l32 2c-6 37-31 61-74 61-59 0-76-41-82-99-10-93 101-131 147-64 4 7 5 14 7 22l-32 3c-4-21-16-35-41-35"
                  id="K"/>
            <path fill="#333" d="M114-163C36-179 61-72 57 0H25l-1-190h30c1 12-1 29 2 39 6-27 23-49 58-41v29" id="L"/>
            <path fill="#333" d="M24-231v-30h32v30H24zM24 0v-190h32V0H24" id="M"/>
            <path fill="#333"
                  d="M135-143c-3-34-86-38-87 0 15 53 115 12 119 90S17 21 10-45l28-5c4 36 97 45 98 0-10-56-113-15-118-90-4-57 82-63 122-42 12 7 21 19 24 35"
                  id="N"/>
            <g id="c">
                <use transform="matrix(0.05,0,0,0.05,0,0)" xlink:href="#J"/>
                <use transform="matrix(0.05,0,0,0.05,5,0)" xlink:href="#H"/>
                <use transform="matrix(0.05,0,0,0.05,15,0)" xlink:href="#K"/>
                <use transform="matrix(0.05,0,0,0.05,24,0)" xlink:href="#F"/>
                <use transform="matrix(0.05,0,0,0.05,29,0)" xlink:href="#z"/>
                <use transform="matrix(0.05,0,0,0.05,39,0)" xlink:href="#L"/>
                <use transform="matrix(0.05,0,0,0.05,44.95,0)" xlink:href="#M"/>
                <use transform="matrix(0.05,0,0,0.05,48.900000000000006,0)" xlink:href="#B"/>
                <use transform="matrix(0.05,0,0,0.05,58.900000000000006,0)" xlink:href="#N"/>
            </g>
            <path fill="#333" d="M179-190L93 31C79 59 56 82 12 73V49c39 6 53-20 64-50L1-190h34L92-34l54-156h33" id="O"/>
            <g id="d">
                <use transform="matrix(0.05,0,0,0.05,0,0)" xlink:href="#y"/>
                <use transform="matrix(0.05,0,0,0.05,14.950000000000001,0)" xlink:href="#B"/>
                <use transform="matrix(0.05,0,0,0.05,24.950000000000003,0)" xlink:href="#G"/>
                <use transform="matrix(0.05,0,0,0.05,39.900000000000006,0)" xlink:href="#z"/>
                <use transform="matrix(0.05,0,0,0.05,49.900000000000006,0)" xlink:href="#L"/>
                <use transform="matrix(0.05,0,0,0.05,55.85,0)" xlink:href="#O"/>
            </g>
            <g id="e">
                <use transform="matrix(0.05,0,0,0.05,0,0)" xlink:href="#E"/>
                <use transform="matrix(0.05,0,0,0.05,10,0)" xlink:href="#I"/>
                <use transform="matrix(0.05,0,0,0.05,20,0)" xlink:href="#M"/>
                <use transform="matrix(0.05,0,0,0.05,23.95,0)" xlink:href="#F"/>
                <use transform="matrix(0.05,0,0,0.05,28.950000000000003,0)" xlink:href="#N"/>
            </g>
            <path fill="#333"
                  d="M30-248c118-7 216 8 213 122C240-48 200 0 122 0H30v-248zM63-27c89 8 146-16 146-99s-60-101-146-95v194"
                  id="P"/>
            <g id="f">
                <use transform="matrix(0.05,0,0,0.05,0,0)" xlink:href="#P"/>
                <use transform="matrix(0.05,0,0,0.05,12.950000000000001,0)" xlink:href="#O"/>
                <use transform="matrix(0.05,0,0,0.05,21.950000000000003,0)" xlink:href="#I"/>
                <use transform="matrix(0.05,0,0,0.05,31.950000000000003,0)" xlink:href="#H"/>
                <use transform="matrix(0.05,0,0,0.05,41.95,0)" xlink:href="#G"/>
                <use transform="matrix(0.05,0,0,0.05,56.900000000000006,0)" xlink:href="#M"/>
                <use transform="matrix(0.05,0,0,0.05,60.85,0)" xlink:href="#K"/>
            </g>
            <path fill="#333"
                  d="M115-194c55 1 70 41 70 98S169 2 115 4C84 4 66-9 55-30l1 105H24l-1-265h31l2 30c10-21 28-34 59-34zm-8 174c40 0 45-34 45-75s-6-73-45-74c-42 0-51 32-51 76 0 43 10 73 51 73"
                  id="Q"/>
            <g id="g">
                <use transform="matrix(0.05,0,0,0.05,0,0)" xlink:href="#Q"/>
                <use transform="matrix(0.05,0,0,0.05,10,0)" xlink:href="#L"/>
                <use transform="matrix(0.05,0,0,0.05,15.949999999999998,0)" xlink:href="#z"/>
                <use transform="matrix(0.05,0,0,0.05,25.950000000000003,0)" xlink:href="#Q"/>
                <use transform="matrix(0.05,0,0,0.05,35.95,0)" xlink:href="#B"/>
                <use transform="matrix(0.05,0,0,0.05,45.95,0)" xlink:href="#L"/>
                <use transform="matrix(0.05,0,0,0.05,51.900000000000006,0)" xlink:href="#F"/>
                <use transform="matrix(0.05,0,0,0.05,56.900000000000006,0)" xlink:href="#O"/>
            </g>
            <g id="h">
                <use transform="matrix(0.05,0,0,0.05,0,0)" xlink:href="#A"/>
                <use transform="matrix(0.05,0,0,0.05,10,0)" xlink:href="#B"/>
                <use transform="matrix(0.05,0,0,0.05,20,0)" xlink:href="#N"/>
                <use transform="matrix(0.05,0,0,0.05,29,0)" xlink:href="#K"/>
                <use transform="matrix(0.05,0,0,0.05,38,0)" xlink:href="#L"/>
                <use transform="matrix(0.05,0,0,0.05,43.95,0)" xlink:href="#M"/>
                <use transform="matrix(0.05,0,0,0.05,47.900000000000006,0)" xlink:href="#Q"/>
                <use transform="matrix(0.05,0,0,0.05,57.900000000000006,0)" xlink:href="#F"/>
                <use transform="matrix(0.05,0,0,0.05,62.900000000000006,0)" xlink:href="#z"/>
                <use transform="matrix(0.05,0,0,0.05,72.9,0)" xlink:href="#L"/>
                <use transform="matrix(0.05,0,0,0.05,78.85000000000001,0)" xlink:href="#N"/>
            </g>
            <g id="i">
                <use transform="matrix(0.05,0,0,0.05,0,0)" xlink:href="#y"/>
                <use transform="matrix(0.05,0,0,0.05,14.950000000000001,0)" xlink:href="#z"/>
                <use transform="matrix(0.05,0,0,0.05,24.950000000000003,0)" xlink:href="#A"/>
                <use transform="matrix(0.05,0,0,0.05,34.95,0)" xlink:href="#B"/>
                <use transform="matrix(0.05,0,0,0.05,44.95,0)" xlink:href="#C"/>
            </g>
            <g id="j">
                <use transform="matrix(0.05,0,0,0.05,0,0)" xlink:href="#K"/>
                <use transform="matrix(0.05,0,0,0.05,9,0)" xlink:href="#z"/>
                <use transform="matrix(0.05,0,0,0.05,19,0)" xlink:href="#L"/>
                <use transform="matrix(0.05,0,0,0.05,24.95,0)" xlink:href="#B"/>
            </g>
            <g id="k">
                <use transform="matrix(0.05,0,0,0.05,0,0)" xlink:href="#G"/>
                <use transform="matrix(0.05,0,0,0.05,14.950000000000001,0)" xlink:href="#z"/>
                <use transform="matrix(0.05,0,0,0.05,24.950000000000003,0)" xlink:href="#A"/>
                <use transform="matrix(0.05,0,0,0.05,34.95,0)" xlink:href="#E"/>
                <use transform="matrix(0.05,0,0,0.05,44.95,0)" xlink:href="#C"/>
                <use transform="matrix(0.05,0,0,0.05,48.900000000000006,0)" xlink:href="#B"/>
                <use transform="matrix(0.05,0,0,0.05,58.900000000000006,0)" xlink:href="#N"/>
            </g>
            <path fill="#333"
                  d="M212-179c-10-28-35-45-73-45-59 0-87 40-87 99 0 60 29 101 89 101 43 0 62-24 78-52l27 14C228-24 195 4 139 4 59 4 22-46 18-125c-6-104 99-153 187-111 19 9 31 26 39 46"
                  id="R"/>
            <g id="l">
                <use transform="matrix(0.05,0,0,0.05,0,0)" xlink:href="#R"/>
                <use transform="matrix(0.05,0,0,0.05,12.950000000000001,0)" xlink:href="#z"/>
                <use transform="matrix(0.05,0,0,0.05,22.950000000000003,0)" xlink:href="#I"/>
                <use transform="matrix(0.05,0,0,0.05,32.95,0)" xlink:href="#F"/>
                <use transform="matrix(0.05,0,0,0.05,37.95,0)" xlink:href="#L"/>
                <use transform="matrix(0.05,0,0,0.05,43.900000000000006,0)" xlink:href="#z"/>
                <use transform="matrix(0.05,0,0,0.05,53.900000000000006,0)" xlink:href="#C"/>
                <use transform="matrix(0.05,0,0,0.05,57.85,0)" xlink:href="#C"/>
                <use transform="matrix(0.05,0,0,0.05,61.80000000000001,0)" xlink:href="#B"/>
                <use transform="matrix(0.05,0,0,0.05,71.80000000000001,0)" xlink:href="#L"/>
            </g>
            <path fill="#333"
                  d="M140-251c81 0 123 46 123 126C263-46 219 4 140 4 59 4 17-45 17-125s42-126 123-126zm0 227c63 0 89-41 89-101s-29-99-89-99c-61 0-89 39-89 99S79-25 140-24"
                  id="S"/>
            <g id="m">
                <use transform="matrix(0.05,0,0,0.05,0,0)" xlink:href="#S"/>
                <use transform="matrix(0.05,0,0,0.05,14,0)" xlink:href="#Q"/>
                <use transform="matrix(0.05,0,0,0.05,24,0)" xlink:href="#B"/>
                <use transform="matrix(0.05,0,0,0.05,34,0)" xlink:href="#I"/>
                <use transform="matrix(0.05,0,0,0.05,44,0)" xlink:href="#B"/>
                <use transform="matrix(0.05,0,0,0.05,54,0)" xlink:href="#A"/>
                <use transform="matrix(0.05,0,0,0.05,64,0)" xlink:href="#D"/>
                <use transform="matrix(0.05,0,0,0.05,76,0)" xlink:href="#E"/>
                <use transform="matrix(0.05,0,0,0.05,86,0)" xlink:href="#F"/>
                <use transform="matrix(0.05,0,0,0.05,91,0)" xlink:href="#z"/>
                <use transform="matrix(0.05,0,0,0.05,101,0)" xlink:href="#G"/>
                <use transform="matrix(0.05,0,0,0.05,115.95,0)" xlink:href="#H"/>
                <use transform="matrix(0.05,0,0,0.05,125.95,0)" xlink:href="#F"/>
                <use transform="matrix(0.05,0,0,0.05,130.95,0)" xlink:href="#z"/>
                <use transform="matrix(0.05,0,0,0.05,140.95,0)" xlink:href="#I"/>
                <use transform="matrix(0.05,0,0,0.05,150.95,0)" xlink:href="#R"/>
                <use transform="matrix(0.05,0,0,0.05,163.89999999999998,0)" xlink:href="#z"/>
                <use transform="matrix(0.05,0,0,0.05,173.89999999999998,0)" xlink:href="#I"/>
                <use transform="matrix(0.05,0,0,0.05,183.89999999999998,0)" xlink:href="#F"/>
                <use transform="matrix(0.05,0,0,0.05,188.89999999999998,0)" xlink:href="#L"/>
                <use transform="matrix(0.05,0,0,0.05,194.84999999999997,0)" xlink:href="#z"/>
                <use transform="matrix(0.05,0,0,0.05,204.84999999999997,0)" xlink:href="#C"/>
                <use transform="matrix(0.05,0,0,0.05,208.79999999999995,0)" xlink:href="#C"/>
                <use transform="matrix(0.05,0,0,0.05,212.74999999999991,0)" xlink:href="#B"/>
                <use transform="matrix(0.05,0,0,0.05,222.74999999999991,0)" xlink:href="#L"/>
            </g>
            <path fill="#333"
                  d="M143 4C61 4 22-44 18-125c-5-107 100-154 193-111 17 8 29 25 37 43l-32 9c-13-25-37-40-76-40-61 0-88 39-88 99 0 61 29 100 91 101 35 0 62-11 79-27v-45h-74v-28h105v86C228-13 192 4 143 4"
                  id="T"/>
            <path fill="#333"
                  d="M106-169C34-169 62-67 57 0H25v-261h32l-1 103c12-21 28-36 61-36 89 0 53 116 60 194h-32v-121c2-32-8-49-39-48"
                  id="U"/>
            <g id="n">
                <use transform="matrix(0.05,0,0,0.05,0,0)" xlink:href="#D"/>
                <use transform="matrix(0.05,0,0,0.05,12,0)" xlink:href="#E"/>
                <use transform="matrix(0.05,0,0,0.05,22,0)" xlink:href="#F"/>
                <use transform="matrix(0.05,0,0,0.05,27,0)" xlink:href="#z"/>
                <use transform="matrix(0.05,0,0,0.05,37,0)" xlink:href="#G"/>
                <use transform="matrix(0.05,0,0,0.05,51.95,0)" xlink:href="#H"/>
                <use transform="matrix(0.05,0,0,0.05,61.95,0)" xlink:href="#F"/>
                <use transform="matrix(0.05,0,0,0.05,66.95,0)" xlink:href="#z"/>
                <use transform="matrix(0.05,0,0,0.05,76.95,0)" xlink:href="#I"/>
                <use transform="matrix(0.05,0,0,0.05,86.95,0)" xlink:href="#T"/>
                <use transform="matrix(0.05,0,0,0.05,100.95,0)" xlink:href="#L"/>
                <use transform="matrix(0.05,0,0,0.05,106.9,0)" xlink:href="#H"/>
                <use transform="matrix(0.05,0,0,0.05,116.9,0)" xlink:href="#Q"/>
                <use transform="matrix(0.05,0,0,0.05,126.9,0)" xlink:href="#U"/>
                <use transform="matrix(0.05,0,0,0.05,136.9,0)" xlink:href="#R"/>
                <use transform="matrix(0.05,0,0,0.05,149.85,0)" xlink:href="#z"/>
                <use transform="matrix(0.05,0,0,0.05,159.85,0)" xlink:href="#I"/>
                <use transform="matrix(0.05,0,0,0.05,169.85,0)" xlink:href="#F"/>
                <use transform="matrix(0.05,0,0,0.05,174.85,0)" xlink:href="#L"/>
                <use transform="matrix(0.05,0,0,0.05,180.79999999999998,0)" xlink:href="#z"/>
                <use transform="matrix(0.05,0,0,0.05,190.79999999999998,0)" xlink:href="#C"/>
                <use transform="matrix(0.05,0,0,0.05,194.74999999999997,0)" xlink:href="#C"/>
                <use transform="matrix(0.05,0,0,0.05,198.69999999999996,0)" xlink:href="#B"/>
                <use transform="matrix(0.05,0,0,0.05,208.69999999999996,0)" xlink:href="#L"/>
            </g>
            <path fill="#333"
                  d="M232-93c-1 65-40 97-104 97C67 4 28-28 28-90v-158h33c8 89-33 224 67 224 102 0 64-133 71-224h33v155"
                  id="V"/>
            <path fill="#333"
                  d="M233-177c-1 41-23 64-60 70L243 0h-38l-65-103H63V0H30v-248c88 3 205-21 203 71zM63-129c60-2 137 13 137-47 0-61-80-42-137-45v92"
                  id="W"/>
            <g id="o">
                <use transform="matrix(0.05,0,0,0.05,0,0)" xlink:href="#V"/>
                <use transform="matrix(0.05,0,0,0.05,12.950000000000001,0)" xlink:href="#I"/>
                <use transform="matrix(0.05,0,0,0.05,22.950000000000003,0)" xlink:href="#A"/>
                <use transform="matrix(0.05,0,0,0.05,32.95,0)" xlink:href="#z"/>
                <use transform="matrix(0.05,0,0,0.05,42.95,0)" xlink:href="#W"/>
                <use transform="matrix(0.05,0,0,0.05,55.900000000000006,0)" xlink:href="#B"/>
                <use transform="matrix(0.05,0,0,0.05,65.9,0)" xlink:href="#A"/>
                <use transform="matrix(0.05,0,0,0.05,75.9,0)" xlink:href="#z"/>
                <use transform="matrix(0.05,0,0,0.05,85.9,0)" xlink:href="#R"/>
                <use transform="matrix(0.05,0,0,0.05,98.85000000000001,0)" xlink:href="#z"/>
                <use transform="matrix(0.05,0,0,0.05,108.85000000000001,0)" xlink:href="#I"/>
                <use transform="matrix(0.05,0,0,0.05,118.85000000000001,0)" xlink:href="#F"/>
                <use transform="matrix(0.05,0,0,0.05,123.85000000000001,0)" xlink:href="#L"/>
                <use transform="matrix(0.05,0,0,0.05,129.8,0)" xlink:href="#z"/>
                <use transform="matrix(0.05,0,0,0.05,139.8,0)" xlink:href="#C"/>
                <use transform="matrix(0.05,0,0,0.05,143.75,0)" xlink:href="#C"/>
                <use transform="matrix(0.05,0,0,0.05,147.7,0)" xlink:href="#B"/>
                <use transform="matrix(0.05,0,0,0.05,157.7,0)" xlink:href="#L"/>
            </g>
            <g id="p">
                <use transform="matrix(0.05,0,0,0.05,0,0)" xlink:href="#D"/>
                <use transform="matrix(0.05,0,0,0.05,12,0)" xlink:href="#E"/>
                <use transform="matrix(0.05,0,0,0.05,22,0)" xlink:href="#F"/>
                <use transform="matrix(0.05,0,0,0.05,27,0)" xlink:href="#z"/>
                <use transform="matrix(0.05,0,0,0.05,37,0)" xlink:href="#G"/>
                <use transform="matrix(0.05,0,0,0.05,51.95,0)" xlink:href="#H"/>
                <use transform="matrix(0.05,0,0,0.05,61.95,0)" xlink:href="#F"/>
                <use transform="matrix(0.05,0,0,0.05,66.95,0)" xlink:href="#z"/>
                <use transform="matrix(0.05,0,0,0.05,76.95,0)" xlink:href="#I"/>
            </g>
            <g id="q">
                <use transform="matrix(0.05,0,0,0.05,0,0)" xlink:href="#G"/>
                <use transform="matrix(0.05,0,0,0.05,14.950000000000001,0)" xlink:href="#z"/>
                <use transform="matrix(0.05,0,0,0.05,24.950000000000003,0)" xlink:href="#A"/>
                <use transform="matrix(0.05,0,0,0.05,34.95,0)" xlink:href="#E"/>
                <use transform="matrix(0.05,0,0,0.05,44.95,0)" xlink:href="#C"/>
                <use transform="matrix(0.05,0,0,0.05,48.900000000000006,0)" xlink:href="#B"/>
            </g>
            <g id="r">
                <use transform="matrix(0.05,0,0,0.05,0,0)" xlink:href="#K"/>
                <use transform="matrix(0.05,0,0,0.05,9,0)" xlink:href="#z"/>
                <use transform="matrix(0.05,0,0,0.05,19,0)" xlink:href="#I"/>
                <use transform="matrix(0.05,0,0,0.05,29,0)" xlink:href="#F"/>
                <use transform="matrix(0.05,0,0,0.05,34,0)" xlink:href="#L"/>
                <use transform="matrix(0.05,0,0,0.05,39.95,0)" xlink:href="#z"/>
                <use transform="matrix(0.05,0,0,0.05,49.95,0)" xlink:href="#C"/>
                <use transform="matrix(0.05,0,0,0.05,53.900000000000006,0)" xlink:href="#C"/>
                <use transform="matrix(0.05,0,0,0.05,57.85,0)" xlink:href="#B"/>
                <use transform="matrix(0.05,0,0,0.05,67.85000000000001,0)" xlink:href="#L"/>
                <use transform="matrix(0.05,0,0,0.05,73.80000000000001,0)" xlink:href="#N"/>
            </g>
            <path fill="#333" d="M137 0h-34L2-248h35l83 218 83-218h36" id="X"/>
            <path fill="#333" d="M206 0h-36l-40-164L89 0H53L-1-190h32L70-26l43-164h34l41 164 42-164h31" id="Y"/>
            <g id="s">
                <use transform="matrix(0.05,0,0,0.05,0,0)" xlink:href="#X"/>
                <use transform="matrix(0.05,0,0,0.05,11.65,0)" xlink:href="#M"/>
                <use transform="matrix(0.05,0,0,0.05,15.600000000000001,0)" xlink:href="#B"/>
                <use transform="matrix(0.05,0,0,0.05,25.6,0)" xlink:href="#Y"/>
            </g>
            <g id="t">
                <use transform="matrix(0.05,0,0,0.05,0,0)" xlink:href="#y"/>
                <use transform="matrix(0.05,0,0,0.05,14.950000000000001,0)" xlink:href="#H"/>
                <use transform="matrix(0.05,0,0,0.05,24.950000000000003,0)" xlink:href="#M"/>
                <use transform="matrix(0.05,0,0,0.05,28.900000000000002,0)" xlink:href="#I"/>
                <use transform="matrix(0.05,0,0,0.05,38.900000000000006,0)" xlink:href="#X"/>
                <use transform="matrix(0.05,0,0,0.05,50.550000000000004,0)" xlink:href="#M"/>
                <use transform="matrix(0.05,0,0,0.05,54.5,0)" xlink:href="#B"/>
                <use transform="matrix(0.05,0,0,0.05,64.5,0)" xlink:href="#Y"/>
            </g>
            <g id="u">
                <use transform="matrix(0.05,0,0,0.05,0,0)" xlink:href="#D"/>
                <use transform="matrix(0.05,0,0,0.05,12,0)" xlink:href="#E"/>
                <use transform="matrix(0.05,0,0,0.05,22,0)" xlink:href="#F"/>
                <use transform="matrix(0.05,0,0,0.05,27,0)" xlink:href="#z"/>
                <use transform="matrix(0.05,0,0,0.05,37,0)" xlink:href="#G"/>
                <use transform="matrix(0.05,0,0,0.05,51.95,0)" xlink:href="#H"/>
                <use transform="matrix(0.05,0,0,0.05,61.95,0)" xlink:href="#F"/>
                <use transform="matrix(0.05,0,0,0.05,66.95,0)" xlink:href="#z"/>
                <use transform="matrix(0.05,0,0,0.05,76.95,0)" xlink:href="#I"/>
                <use transform="matrix(0.05,0,0,0.05,86.95,0)" xlink:href="#X"/>
                <use transform="matrix(0.05,0,0,0.05,98.60000000000001,0)" xlink:href="#M"/>
                <use transform="matrix(0.05,0,0,0.05,102.55000000000001,0)" xlink:href="#B"/>
                <use transform="matrix(0.05,0,0,0.05,112.55000000000001,0)" xlink:href="#Y"/>
            </g>
            <g id="v">
                <use transform="matrix(0.05,0,0,0.05,0,0)" xlink:href="#D"/>
                <use transform="matrix(0.05,0,0,0.05,12,0)" xlink:href="#E"/>
                <use transform="matrix(0.05,0,0,0.05,22,0)" xlink:href="#F"/>
                <use transform="matrix(0.05,0,0,0.05,27,0)" xlink:href="#z"/>
                <use transform="matrix(0.05,0,0,0.05,37,0)" xlink:href="#G"/>
                <use transform="matrix(0.05,0,0,0.05,51.95,0)" xlink:href="#H"/>
                <use transform="matrix(0.05,0,0,0.05,61.95,0)" xlink:href="#F"/>
                <use transform="matrix(0.05,0,0,0.05,66.95,0)" xlink:href="#z"/>
                <use transform="matrix(0.05,0,0,0.05,76.95,0)" xlink:href="#I"/>
                <use transform="matrix(0.05,0,0,0.05,86.95,0)" xlink:href="#T"/>
                <use transform="matrix(0.05,0,0,0.05,100.95,0)" xlink:href="#L"/>
                <use transform="matrix(0.05,0,0,0.05,106.9,0)" xlink:href="#H"/>
                <use transform="matrix(0.05,0,0,0.05,116.9,0)" xlink:href="#Q"/>
                <use transform="matrix(0.05,0,0,0.05,126.9,0)" xlink:href="#U"/>
                <use transform="matrix(0.05,0,0,0.05,136.9,0)" xlink:href="#X"/>
                <use transform="matrix(0.05,0,0,0.05,148.55,0)" xlink:href="#M"/>
                <use transform="matrix(0.05,0,0,0.05,152.5,0)" xlink:href="#B"/>
                <use transform="matrix(0.05,0,0,0.05,162.5,0)" xlink:href="#Y"/>
            </g>
            <path fill="#333" d="M108 0H70L1-190h34L89-25l56-165h34" id="Z"/>
            <g id="w">
                <use transform="matrix(0.05,0,0,0.05,0,0)" xlink:href="#Z"/>
                <use transform="matrix(0.05,0,0,0.05,9,0)" xlink:href="#M"/>
                <use transform="matrix(0.05,0,0,0.05,12.949999999999998,0)" xlink:href="#B"/>
                <use transform="matrix(0.05,0,0,0.05,22.95,0)" xlink:href="#Y"/>
                <use transform="matrix(0.05,0,0,0.05,35.9,0)" xlink:href="#N"/>
            </g>
            <g id="x">
                <use transform="matrix(0.05,0,0,0.05,0,0)" xlink:href="#V"/>
                <use transform="matrix(0.05,0,0,0.05,12.950000000000001,0)" xlink:href="#F"/>
                <use transform="matrix(0.05,0,0,0.05,17.950000000000003,0)" xlink:href="#M"/>
                <use transform="matrix(0.05,0,0,0.05,21.900000000000002,0)" xlink:href="#C"/>
                <use transform="matrix(0.05,0,0,0.05,25.85,0)" xlink:href="#N"/>
            </g>
        </defs>
    </g>
</svg>
