<svg xmlns="http://www.w3.org/2000/svg" xmlns:xlink="http://www.w3.org/1999/xlink" xmlns:lucid="lucid" width="755" height="1081"><g transform="translate(-112 -27)" lucid:page-tab-id="HWEp-vi-RSFO"><path d="M0 0h944.08v1155.56H0z" fill="#fff"/><path d="M571 666h229v314H180V640h372zm-391 0h391" stroke="#333" stroke-width="2" fill="#fff"/><use xlink:href="#a" transform="matrix(1,0,0,1,188,640) translate(149.55 16.6)"/><path d="M230 680h200v40H230z" stroke="#333" stroke-width="2" fill="#fff"/><use xlink:href="#b" transform="matrix(1,0,0,1,238,688) translate(6.074999999999989 15.6)"/><use xlink:href="#c" transform="matrix(1,0,0,1,238,688) translate(83.975 15.6)"/><path d="M240 760h180v40H240z" stroke="#333" stroke-width="2" fill="#fff"/><use xlink:href="#d" transform="matrix(1,0,0,1,248,768) translate(28.099999999999994 15.6)"/><use xlink:href="#e" transform="matrix(1,0,0,1,248,768) translate(97.95 15.6)"/><path d="M200 840h260v41H200z" stroke="#333" stroke-width="2" fill="#fff"/><use xlink:href="#f" transform="matrix(1,0,0,1,208,848) translate(5.199999999999989 16.1)"/><use xlink:href="#g" transform="matrix(1,0,0,1,208,848) translate(80.05 16.1)"/><use xlink:href="#h" transform="matrix(1,0,0,1,208,848) translate(150.95 16.1)"/><path d="M200 920h580v40H200z" stroke="#333" stroke-width="2" fill="#fff"/><use xlink:href="#i" transform="matrix(1,0,0,1,208,928) translate(237.575 15.6)"/><use xlink:href="#j" transform="matrix(1,0,0,1,208,928) translate(291.475 15.6)"/><path d="M580 760h200v38H580z" stroke="#333" stroke-width="2" fill="#fff"/><use xlink:href="#k" transform="matrix(1,0,0,1,588,768) translate(12.074999999999989 14.6)"/><use xlink:href="#l" transform="matrix(1,0,0,1,588,768) translate(104.02499999999999 14.6)"/><path d="M330 721.5v6.1m0 6.1v12.2m0 6.1v6.1" stroke="#333" fill="none"/><path d="M330.5 721.5h-1v-.5h1z" stroke="#333" stroke-width=".05" fill="#333"/><path d="M319.82 740.8L330 758.02l10.18-17.22M330 801.5v6.1m0 6.1v12.2m0 6.1v6.1" stroke="#333" fill="none"/><path d="M330.5 801.5h-1v-.5h1z" stroke="#333" stroke-width=".05" fill="#333"/><path d="M319.82 820.8L330 838.02l10.18-17.22M421.5 780h4.7m4.72 0h9.4m4.72 0h9.42m4.7 0h9.42m4.7 0H478l1.88.15 1.83.44 1.75.7m4.26 3.65l1 1.6.7 1.74.45 1.82v4.74m0 4.74l.02 9.48m0 4.74l.02 9.48m0 4.74v9.48m0 4.74l.02 9.48m0 4.74l.02 9.48m0 4.74l.02 9.47m0 4.74v9.5m.02 4.73v9.48m0 4.75l.02 4.74" stroke="#333" fill="none"/><path d="M421.5 780.5h-.5v-1h.5z" stroke="#333" stroke-width=".05" fill="#333"/><path d="M479.82 900.8L490 918.02l10.18-17.22M330 882.5v5.93m0 5.93v11.87m0 5.93v5.93" stroke="#333" fill="none"/><path d="M330.5 882.5h-1v-.5h1z" stroke="#333" stroke-width=".05" fill="#333"/><path d="M319.82 900.8L330 918.02l10.18-17.22M680 799.5v4.94m0 4.94v9.88m0 4.95v9.9m0 4.93v9.88m0 4.95v9.9m0 4.93v9.88m0 4.94v9.88m0 4.95v9.88m0 4.95v4.94" stroke="#333" fill="none"/><path d="M680.5 799.5h-1v-.5h1z" stroke="#333" stroke-width=".05" fill="#333"/><path d="M669.82 900.8L680 918.02l10.18-17.22M431.5 700h5.25m5.25 0h10.5m5.24 0h10.5m5.24 0h10.5m5.25 0h10.5m5.24 0h10.5m5.24 0h5.26l1.88.15 1.83.44 1.74.7m4.27 3.65l.98 1.6.73 1.74.43 1.82.02 4.95m0 4.96v9.9m0 4.95l.02 9.9m0 4.96v9.9m0 4.95l.02 9.9m0 4.95v9.9m0 4.95l.02 9.9m0 4.95v9.9m0 4.96l.02 9.9m0 4.97v9.9m.02 4.95v9.9m0 4.96v9.9m.02 4.95v9.9m0 4.95v9.9m.02 4.96v4.95" stroke="#333" fill="none"/><path d="M431.5 700.5h-.5v-1h.5z" stroke="#333" stroke-width=".05" fill="#333"/><path d="M527.78 900.8l10.18 17.22 10.18-17.22" stroke="#333" fill="none"/><path d="M432.08 456h111v134h-300V430h180zm-189 0h189" stroke="#333" stroke-width="2" fill="#fff"/><use xlink:href="#m" transform="matrix(1,0,0,1,251.08516483516473,430) translate(39.12499999999999 16.6)"/><use xlink:href="#n" transform="matrix(1,0,0,1,255.08516483516473,464) translate(84.69999999999999 14.4)"/><use xlink:href="#o" transform="matrix(1,0,0,1,255.08516483516473,464) translate(56.17500000000001 36)"/><use xlink:href="#p" transform="matrix(1,0,0,1,255.08516483516473,464) translate(72.64999999999999 57.6)"/><use xlink:href="#q" transform="matrix(1,0,0,1,255.08516483516473,464) translate(80.67499999999998 79.20000000000002)"/><use xlink:href="#r" transform="matrix(1,0,0,1,255.08516483516473,464) translate(30.675000000000026 100.80000000000001)"/><use xlink:href="#s" transform="matrix(1,0,0,1,255.08516483516473,464) translate(18.674999999999983 122.4)"/><use xlink:href="#t" transform="matrix(1,0,0,1,255.08516483516473,464) translate(110.62499999999999 122.4)"/><use xlink:href="#u" transform="matrix(1,0,0,1,255.08516483516473,464) translate(174.525 122.4)"/><path d="M393.08 591.5v3.9m0 3.93v7.82m0 3.92V615h.04v3.86m0 3.85v7.7m0 3.85v3.84" stroke="#333" fill="none"/><path d="M393.58 591.5h-1v-.5h1z" stroke="#333" stroke-width=".05" fill="#333"/><path d="M382.94 620.8l10.2 17.22 10.17-17.22" stroke="#333" fill="none"/><path d="M565.04 66h215v314h-580V40h348zm-365 0h365" stroke="#333" stroke-width="2" fill="#fff"/><use xlink:href="#v" transform="matrix(1,0,0,1,208.03983516483498,40) translate(143.225 16.6)"/><path d="M220.04 80h540v40h-540z" stroke="#333" stroke-width="2" fill="#fff"/><use xlink:href="#w" transform="matrix(1,0,0,1,228.03983516483498,88) translate(211.125 15.6)"/><path d="M220.04 244h536.88v40H220.03z" stroke="#333" stroke-width="2" fill="#fff"/><use xlink:href="#x" transform="matrix(1,0,0,1,228.03983516483504,252) translate(197.75 15.6)"/><path d="M220.04 323h240v40h-240z" stroke="#333" stroke-width="2" fill="#fff"/><use xlink:href="#y" transform="matrix(1,0,0,1,228.03983516483504,331) translate(24.275000000000006 15.6)"/><path d="M516.9 323h240v41h-240z" stroke="#333" stroke-width="2" fill="#fff"/><use xlink:href="#k" transform="matrix(1,0,0,1,524.9148351648349,331) translate(12.124999999999986 16.1)"/><use xlink:href="#z" transform="matrix(1,0,0,1,524.9148351648349,331) translate(104.07499999999999 16.1)"/><use xlink:href="#A" transform="matrix(1,0,0,1,524.9148351648349,331) translate(167.97500000000002 16.1)"/><path d="M300.04 1030h380v60h-380z" stroke="#333" stroke-width="2" fill="#fff"/><use xlink:href="#B" transform="matrix(1,0,0,1,308.03983516483504,1038) translate(164.575 25.6)"/><path d="M340.04 285.5v5.93m0 5.93v11.87m0 5.93v5.93" stroke="#333" fill="none"/><path d="M340.54 285.5h-1v-.5h1z" stroke="#333" stroke-width=".05" fill="#333"/><path d="M329.86 303.8l10.18 17.22 10.18-17.22M635.9 381.5v5.24m0 5.24v10.47m0 5.24v10.47m0 5.23v10.48m0 5.24v10.48m0 5.23v10.48m0 5.25v10.47m0 5.24v10.48m0 5.24v10.47m0 5.24v5.27l.02.02h.07v.02h.02v5.26m0 5.23v10.45m0 5.23v10.44m0 5.23v10.44m0 5.22v10.44m0 5.23v10.43m0 5.23v10.44m0 5.23l.02 10.44m0 5.23v10.44m0 5.23v5.22" stroke="#333" fill="none"/><path d="M636.4 381.5h-1v-.5h1z" stroke="#333" stroke-width=".05" fill="#333"/><path d="M625.86 646.8l10.18 17.22 10.18-17.22M490 981.5v3.9m0 3.93v7.82m0 3.92v3.92h.04v3.86m0 3.85v7.7m0 3.84v3.85" stroke="#333" fill="none"/><path d="M490.5 981.5h-1v-.5h1z" stroke="#333" stroke-width=".05" fill="#333"/><path d="M479.86 1010.8l10.18 17.22 10.18-17.22M781.54 210h5.55m5.53 0h11.1m5.53 0h11.1m5.54 0H837m5.53 0h5.55l1.88.15 1.83.44 1.73.7m4.26 3.65l.97 1.6.72 1.74.43 1.82v5.02m0 5.02v10.03m0 5v10.05m0 5v10.05m0 5v10.05m0 5.02l.02 10.03m0 5.02v10.03m0 5.02v10.04m0 5.02v10.04m0 5.02v10.03m0 5.03v10.03m0 5.02v10.04m0 5v10.05m.02 5.02v10.02m0 5.02v10.03m0 5.02v10.03m0 5V466m0 5v10.05m0 5.02v10.03m0 5.02v10.03m0 5.02l.02 10.04m0 5v10.04m0 5.02v10.03m0 5v10.04m0 5.02v10.04m0 5v10.05m0 5v10.05m0 5.02v10.03m0 5.02v10.03m0 5.02v10.04m0 5v10.05m0 5.03l.02 10.03m0 5.02v10.03m0 5.03v10.04m0 5v10.05m0 5.02v10.03m0 5.02V767m0 5.02v10.04m0 5v10.05m.02 5.02v10.03m0 5.02v10.03m0 5.02v10.03m0 5.02v10.04m0 5v10.05m0 5v10.04m0 5.02v10.03m0 5l.02 10.05m0 5v10.05m0 5.02v10.03m0 5.02v10.03m0 5.02v10.04m0 5v10.05m0 5.03v10.03m0 5.02l.02 10.03m0 5.03v10.03m0 5.02v5.02l-.15 1.88-.44 1.83-.73 1.75m-3.64 4.26l-1.6 1-1.74.7-1.84.45h-5.1m-5.1 0l-10.17.02m-5.1 0h-10.18m-5.1.02h-10.18m-5.1 0h-10.17m-5.1 0l-10.17.02m-5.1 0l-10.17.02m-5.1 0h-10.18m-5.1 0l-10.17.02m-5.1 0l-10.18.02m-5.1 0h-10.17m-5.1.02h-5.08" stroke="#333" fill="none"/><path d="M781.55 210.5h-.5v-1h.5z" stroke="#333" stroke-width=".05" fill="#333"/><path d="M699.24 1049.82L682.02 1060l17.22 10.18M241.6 510h-5.23m-5.22 0H220.7m-5.2 0h-10.44m-5.22 0H189.4m-5.22 0h-10.43m-5.22 0H158.1m-5.23 0h-10.43m-5.22 0H132l-1.88.15-1.83.44-1.75.7m-4.26 3.65l-1 1.6-.7 1.74-.45 1.82v5.03m0 5.03v10.05m0 5.03v10.06m0 5.02l-.02 10.06m0 5.02v10.06m0 5.03v10.06m0 5.03v10.04m0 5.03v10.06m-.02 5.02v10.06m0 5.04v10.05m0 5.02v10.05m0 5.03v10.05m0 5.03v10.06m0 5.02v10.06m0 5.03v10.05m0 5.03l-.02 10.05m0 5.03v10.07m0 5.02v10.05m0 5.03v10.05m0 5.03v10.05m-.02 5.04v10.05m0 5.02v10.06m0 5.02v10.06m0 5.03v10.04m0 5.03l-.02 10.05m0 5.03v10.06m0 5.03v10.06m0 5.02v10.05m0 5.03v10.05m0 5.03l-.02 10.05m0 5.03v10.06m0 5.02v10.06m0 5.03v10.05m0 5.03v10.06m0 5.03l-.02 10.04m0 5.03v5.03l.15 1.88.44 1.83.7 1.75m3.65 4.26l1.6 1 1.74.7 1.82.45h5.1m5.1 0l10.17.02m5.08 0h10.18m5.1.02h10.17m5.1 0h10.18m5.1 0l10.18.02m5.1 0l10.17.02m5.1 0h10.18m5.1 0l10.17.02m5.1 0l10.18.02m5.1 0h10.17m5.1.02h5.08" stroke="#333" fill="none"/><path d="M242.1 510.5h-.53v-1h.52z" stroke="#333" stroke-width=".05" fill="#333"/><path d="M280.84 1070.18l17.22-10.18-17.22-10.18M490.04 206.5v5.93m0 5.93v11.87m0 5.93v5.93" stroke="#333" fill="none"/><path d="M490.54 206.5h-1v-.5h1z" stroke="#333" stroke-width=".05" fill="#333"/><path d="M479.86 224.8l10.18 17.22 10.18-17.22M636.9 321.1v-5.87m0-5.87V297.5m0-6v-6M626.73 303.8l10.18 17.22 10.2-17.22" stroke="#333" fill="none"/><path d="M637.4 285.5h-1v-.5h1z" stroke="#333" stroke-width=".05" fill="#333"/><path d="M344.2 381.5v3.9m0 3.92v7.8m0 3.92v3.94l.02.02h.04l.02.02v3.86m0 3.85v7.68m0 3.85v3.84" stroke="#333" fill="none"/><path d="M344.7 381.5h-1v-.5h1z" stroke="#333" stroke-width=".05" fill="#333"/><path d="M334.1 410.8l10.2 17.22 10.17-17.22M490.04 454.5v-6.08m0-6.1v-12.15m0-6.1V412m0-6.03v-12.03m0-6v-6.03" stroke="#333" fill="none"/><path d="M489.54 455v-.5h1v.5z" stroke="#333" stroke-width=".05" fill="#333"/><path d="M500.22 399.2l-10.18-17.22-10.18 17.22" stroke="#333" fill="none"/><path d="M220.04 159h536.88v46H220.03z" stroke="#333" stroke-width="2" fill="#fff"/><g><use xlink:href="#C" transform="matrix(1,0,0,1,228.03983516483504,167) translate(183.275 18.6)"/></g><path d="M490.04 121.5v6m0 6v11.86m0 5.87v5.86" stroke="#333" fill="none"/><path d="M490.54 121.5h-1v-.5h1z" stroke="#333" stroke-width=".05" fill="#333"/><path d="M479.86 139.8l10.18 17.22 10.18-17.22" stroke="#333" fill="none"/><defs><path fill="#333" d="M240 0l2-218c-23 76-54 145-80 218h-23L58-218 59 0H30v-248h44l77 211c21-75 51-140 76-211h43V0h-30" id="D"/><path fill="#333" d="M100-194c62-1 85 37 85 99 1 63-27 99-86 99S16-35 15-95c0-66 28-99 85-99zM99-20c44 1 53-31 53-75 0-43-8-75-51-75s-53 32-53 75 10 74 51 75" id="E"/><path fill="#333" d="M85-194c31 0 48 13 60 33l-1-100h32l1 261h-30c-2-10 0-23-3-31C134-8 116 4 85 4 32 4 16-35 15-94c0-66 23-100 70-100zm9 24c-40 0-46 34-46 75 0 40 6 74 45 74 42 0 51-32 51-76 0-42-9-74-50-73" id="F"/><path fill="#333" d="M100-194c63 0 86 42 84 106H49c0 40 14 67 53 68 26 1 43-12 49-29l28 8c-11 28-37 45-77 45C44 4 14-33 15-96c1-61 26-98 85-98zm52 81c6-60-76-77-97-28-3 7-6 17-6 28h103" id="G"/><path fill="#333" d="M24 0v-261h32V0H24" id="H"/><g id="a"><use transform="matrix(0.05,0,0,0.05,0,0)" xlink:href="#D"/><use transform="matrix(0.05,0,0,0.05,14.950000000000001,0)" xlink:href="#E"/><use transform="matrix(0.05,0,0,0.05,24.950000000000003,0)" xlink:href="#F"/><use transform="matrix(0.05,0,0,0.05,34.95,0)" xlink:href="#G"/><use transform="matrix(0.05,0,0,0.05,44.95,0)" xlink:href="#H"/></g><path fill="#333" d="M212-179c-10-28-35-45-73-45-59 0-87 40-87 99 0 60 29 101 89 101 43 0 62-24 78-52l27 14C228-24 195 4 139 4 59 4 22-46 18-125c-6-104 99-153 187-111 19 9 31 26 39 46" id="I"/><path fill="#333" d="M117-194c89-4 53 116 60 194h-32v-121c0-31-8-49-39-48C34-167 62-67 57 0H25l-1-190h30c1 10-1 24 2 32 11-22 29-35 61-36" id="J"/><path fill="#333" d="M96-169c-40 0-48 33-48 73s9 75 48 75c24 0 41-14 43-38l32 2c-6 37-31 61-74 61-59 0-76-41-82-99-10-93 101-131 147-64 4 7 5 14 7 22l-32 3c-4-21-16-35-41-35" id="K"/><path fill="#333" d="M114-163C36-179 61-72 57 0H25l-1-190h30c1 12-1 29 2 39 6-27 23-49 58-41v29" id="L"/><path fill="#333" d="M59-47c-2 24 18 29 38 22v24C64 9 27 4 27-40v-127H5v-23h24l9-43h21v43h35v23H59v120" id="M"/><g id="b"><use transform="matrix(0.05,0,0,0.05,0,0)" xlink:href="#I"/><use transform="matrix(0.05,0,0,0.05,12.950000000000001,0)" xlink:href="#E"/><use transform="matrix(0.05,0,0,0.05,22.950000000000003,0)" xlink:href="#J"/><use transform="matrix(0.05,0,0,0.05,32.95,0)" xlink:href="#K"/><use transform="matrix(0.05,0,0,0.05,41.95,0)" xlink:href="#L"/><use transform="matrix(0.05,0,0,0.05,47.900000000000006,0)" xlink:href="#G"/><use transform="matrix(0.05,0,0,0.05,57.900000000000006,0)" xlink:href="#M"/><use transform="matrix(0.05,0,0,0.05,62.900000000000006,0)" xlink:href="#G"/></g><path fill="#333" d="M141-36C126-15 110 5 73 4 37 3 15-17 15-53c-1-64 63-63 125-63 3-35-9-54-41-54-24 1-41 7-42 31l-33-3c5-37 33-52 76-52 45 0 72 20 72 64v82c-1 20 7 32 28 27v20c-31 9-61-2-59-35zM48-53c0 20 12 33 32 33 41-3 63-29 60-74-43 2-92-5-92 41" id="N"/><path fill="#333" d="M84 4C-5 8 30-112 23-190h32v120c0 31 7 50 39 49 72-2 45-101 50-169h31l1 190h-30c-1-10 1-25-2-33-11 22-28 36-60 37" id="O"/><path fill="#333" d="M210-169c-67 3-38 105-44 169h-31v-121c0-29-5-50-35-48C34-165 62-65 56 0H25l-1-190h30c1 10-1 24 2 32 10-44 99-50 107 0 11-21 27-35 58-36 85-2 47 119 55 194h-31v-121c0-29-5-49-35-48" id="P"/><path fill="#333" d="M135-143c-3-34-86-38-87 0 15 53 115 12 119 90S17 21 10-45l28-5c4 36 97 45 98 0-10-56-113-15-118-90-4-57 82-63 122-42 12 7 21 19 24 35" id="Q"/><g id="c"><use transform="matrix(0.05,0,0,0.05,0,0)" xlink:href="#N"/><use transform="matrix(0.05,0,0,0.05,10,0)" xlink:href="#O"/><use transform="matrix(0.05,0,0,0.05,20,0)" xlink:href="#M"/><use transform="matrix(0.05,0,0,0.05,25,0)" xlink:href="#E"/><use transform="matrix(0.05,0,0,0.05,35,0)" xlink:href="#P"/><use transform="matrix(0.05,0,0,0.05,49.95,0)" xlink:href="#N"/><use transform="matrix(0.05,0,0,0.05,59.95,0)" xlink:href="#M"/><use transform="matrix(0.05,0,0,0.05,64.95,0)" xlink:href="#E"/><use transform="matrix(0.05,0,0,0.05,74.95,0)" xlink:href="#J"/><use transform="matrix(0.05,0,0,0.05,84.95,0)" xlink:href="#Q"/></g><path fill="#333" d="M179-190L93 31C79 59 56 82 12 73V49c39 6 53-20 64-50L1-190h34L92-34l54-156h33" id="R"/><g id="d"><use transform="matrix(0.05,0,0,0.05,0,0)" xlink:href="#D"/><use transform="matrix(0.05,0,0,0.05,14.950000000000001,0)" xlink:href="#G"/><use transform="matrix(0.05,0,0,0.05,24.950000000000003,0)" xlink:href="#P"/><use transform="matrix(0.05,0,0,0.05,39.900000000000006,0)" xlink:href="#E"/><use transform="matrix(0.05,0,0,0.05,49.900000000000006,0)" xlink:href="#L"/><use transform="matrix(0.05,0,0,0.05,55.85,0)" xlink:href="#R"/></g><path fill="#333" d="M24-231v-30h32v30H24zM24 0v-190h32V0H24" id="S"/><g id="e"><use transform="matrix(0.05,0,0,0.05,0,0)" xlink:href="#O"/><use transform="matrix(0.05,0,0,0.05,10,0)" xlink:href="#J"/><use transform="matrix(0.05,0,0,0.05,20,0)" xlink:href="#S"/><use transform="matrix(0.05,0,0,0.05,23.95,0)" xlink:href="#M"/><use transform="matrix(0.05,0,0,0.05,28.950000000000003,0)" xlink:href="#Q"/></g><path fill="#333" d="M30-248c118-7 216 8 213 122C240-48 200 0 122 0H30v-248zM63-27c89 8 146-16 146-99s-60-101-146-95v194" id="T"/><g id="f"><use transform="matrix(0.05,0,0,0.05,0,0)" xlink:href="#T"/><use transform="matrix(0.05,0,0,0.05,12.950000000000001,0)" xlink:href="#R"/><use transform="matrix(0.05,0,0,0.05,21.950000000000003,0)" xlink:href="#J"/><use transform="matrix(0.05,0,0,0.05,31.950000000000003,0)" xlink:href="#N"/><use transform="matrix(0.05,0,0,0.05,41.95,0)" xlink:href="#P"/><use transform="matrix(0.05,0,0,0.05,56.900000000000006,0)" xlink:href="#S"/><use transform="matrix(0.05,0,0,0.05,60.85,0)" xlink:href="#K"/></g><path fill="#333" d="M115-194c55 1 70 41 70 98S169 2 115 4C84 4 66-9 55-30l1 105H24l-1-265h31l2 30c10-21 28-34 59-34zm-8 174c40 0 45-34 45-75s-6-73-45-74c-42 0-51 32-51 76 0 43 10 73 51 73" id="U"/><g id="g"><use transform="matrix(0.05,0,0,0.05,0,0)" xlink:href="#U"/><use transform="matrix(0.05,0,0,0.05,10,0)" xlink:href="#L"/><use transform="matrix(0.05,0,0,0.05,15.949999999999998,0)" xlink:href="#E"/><use transform="matrix(0.05,0,0,0.05,25.950000000000003,0)" xlink:href="#U"/><use transform="matrix(0.05,0,0,0.05,35.95,0)" xlink:href="#G"/><use transform="matrix(0.05,0,0,0.05,45.95,0)" xlink:href="#L"/><use transform="matrix(0.05,0,0,0.05,51.900000000000006,0)" xlink:href="#M"/><use transform="matrix(0.05,0,0,0.05,56.900000000000006,0)" xlink:href="#R"/></g><g id="h"><use transform="matrix(0.05,0,0,0.05,0,0)" xlink:href="#F"/><use transform="matrix(0.05,0,0,0.05,10,0)" xlink:href="#G"/><use transform="matrix(0.05,0,0,0.05,20,0)" xlink:href="#Q"/><use transform="matrix(0.05,0,0,0.05,29,0)" xlink:href="#K"/><use transform="matrix(0.05,0,0,0.05,38,0)" xlink:href="#L"/><use transform="matrix(0.05,0,0,0.05,43.95,0)" xlink:href="#S"/><use transform="matrix(0.05,0,0,0.05,47.900000000000006,0)" xlink:href="#U"/><use transform="matrix(0.05,0,0,0.05,57.900000000000006,0)" xlink:href="#M"/><use transform="matrix(0.05,0,0,0.05,62.900000000000006,0)" xlink:href="#E"/><use transform="matrix(0.05,0,0,0.05,72.9,0)" xlink:href="#L"/><use transform="matrix(0.05,0,0,0.05,78.85000000000001,0)" xlink:href="#Q"/></g><g id="i"><use transform="matrix(0.05,0,0,0.05,0,0)" xlink:href="#D"/><use transform="matrix(0.05,0,0,0.05,14.950000000000001,0)" xlink:href="#E"/><use transform="matrix(0.05,0,0,0.05,24.950000000000003,0)" xlink:href="#F"/><use transform="matrix(0.05,0,0,0.05,34.95,0)" xlink:href="#G"/><use transform="matrix(0.05,0,0,0.05,44.95,0)" xlink:href="#H"/></g><g id="j"><use transform="matrix(0.05,0,0,0.05,0,0)" xlink:href="#K"/><use transform="matrix(0.05,0,0,0.05,9,0)" xlink:href="#E"/><use transform="matrix(0.05,0,0,0.05,19,0)" xlink:href="#L"/><use transform="matrix(0.05,0,0,0.05,24.95,0)" xlink:href="#G"/></g><path fill="#333" d="M205 0l-28-72H64L36 0H1l101-248h38L239 0h-34zm-38-99l-47-123c-12 45-31 82-46 123h93" id="V"/><g id="k"><use transform="matrix(0.05,0,0,0.05,0,0)" xlink:href="#V"/><use transform="matrix(0.05,0,0,0.05,12,0)" xlink:href="#O"/><use transform="matrix(0.05,0,0,0.05,22,0)" xlink:href="#M"/><use transform="matrix(0.05,0,0,0.05,27,0)" xlink:href="#E"/><use transform="matrix(0.05,0,0,0.05,37,0)" xlink:href="#P"/><use transform="matrix(0.05,0,0,0.05,51.95,0)" xlink:href="#N"/><use transform="matrix(0.05,0,0,0.05,61.95,0)" xlink:href="#M"/><use transform="matrix(0.05,0,0,0.05,66.95,0)" xlink:href="#E"/><use transform="matrix(0.05,0,0,0.05,76.95,0)" xlink:href="#J"/></g><g id="l"><use transform="matrix(0.05,0,0,0.05,0,0)" xlink:href="#P"/><use transform="matrix(0.05,0,0,0.05,14.950000000000001,0)" xlink:href="#E"/><use transform="matrix(0.05,0,0,0.05,24.950000000000003,0)" xlink:href="#F"/><use transform="matrix(0.05,0,0,0.05,34.95,0)" xlink:href="#O"/><use transform="matrix(0.05,0,0,0.05,44.95,0)" xlink:href="#H"/><use transform="matrix(0.05,0,0,0.05,48.900000000000006,0)" xlink:href="#G"/><use transform="matrix(0.05,0,0,0.05,58.900000000000006,0)" xlink:href="#Q"/></g><g id="m"><use transform="matrix(0.05,0,0,0.05,0,0)" xlink:href="#I"/><use transform="matrix(0.05,0,0,0.05,12.950000000000001,0)" xlink:href="#E"/><use transform="matrix(0.05,0,0,0.05,22.950000000000003,0)" xlink:href="#J"/><use transform="matrix(0.05,0,0,0.05,32.95,0)" xlink:href="#M"/><use transform="matrix(0.05,0,0,0.05,37.95,0)" xlink:href="#L"/><use transform="matrix(0.05,0,0,0.05,43.900000000000006,0)" xlink:href="#E"/><use transform="matrix(0.05,0,0,0.05,53.900000000000006,0)" xlink:href="#H"/><use transform="matrix(0.05,0,0,0.05,57.85,0)" xlink:href="#H"/><use transform="matrix(0.05,0,0,0.05,61.80000000000001,0)" xlink:href="#G"/><use transform="matrix(0.05,0,0,0.05,71.80000000000001,0)" xlink:href="#L"/></g><path fill="#333" d="M63-220v92h138v28H63V0H30v-248h175v28H63" id="W"/><g id="n"><use transform="matrix(0.05,0,0,0.05,0,0)" xlink:href="#W"/><use transform="matrix(0.05,0,0,0.05,10.950000000000001,0)" xlink:href="#S"/><use transform="matrix(0.05,0,0,0.05,14.9,0)" xlink:href="#H"/><use transform="matrix(0.05,0,0,0.05,18.85,0)" xlink:href="#G"/><use transform="matrix(0.05,0,0,0.05,28.85,0)" xlink:href="#I"/><use transform="matrix(0.05,0,0,0.05,41.800000000000004,0)" xlink:href="#E"/><use transform="matrix(0.05,0,0,0.05,51.800000000000004,0)" xlink:href="#J"/><use transform="matrix(0.05,0,0,0.05,61.800000000000004,0)" xlink:href="#M"/><use transform="matrix(0.05,0,0,0.05,66.80000000000001,0)" xlink:href="#L"/><use transform="matrix(0.05,0,0,0.05,72.75000000000001,0)" xlink:href="#E"/><use transform="matrix(0.05,0,0,0.05,82.75000000000001,0)" xlink:href="#H"/><use transform="matrix(0.05,0,0,0.05,86.70000000000002,0)" xlink:href="#H"/><use transform="matrix(0.05,0,0,0.05,90.65000000000002,0)" xlink:href="#G"/><use transform="matrix(0.05,0,0,0.05,100.65000000000002,0)" xlink:href="#L"/></g><path fill="#333" d="M232-93c-1 65-40 97-104 97C67 4 28-28 28-90v-158h33c8 89-33 224 67 224 102 0 64-133 71-224h33v155" id="X"/><path fill="#333" d="M233-177c-1 41-23 64-60 70L243 0h-38l-65-103H63V0H30v-248c88 3 205-21 203 71zM63-129c60-2 137 13 137-47 0-61-80-42-137-45v92" id="Y"/><g id="o"><use transform="matrix(0.05,0,0,0.05,0,0)" xlink:href="#X"/><use transform="matrix(0.05,0,0,0.05,12.950000000000001,0)" xlink:href="#J"/><use transform="matrix(0.05,0,0,0.05,22.950000000000003,0)" xlink:href="#F"/><use transform="matrix(0.05,0,0,0.05,32.95,0)" xlink:href="#E"/><use transform="matrix(0.05,0,0,0.05,42.95,0)" xlink:href="#Y"/><use transform="matrix(0.05,0,0,0.05,55.900000000000006,0)" xlink:href="#G"/><use transform="matrix(0.05,0,0,0.05,65.9,0)" xlink:href="#F"/><use transform="matrix(0.05,0,0,0.05,75.9,0)" xlink:href="#E"/><use transform="matrix(0.05,0,0,0.05,85.9,0)" xlink:href="#I"/><use transform="matrix(0.05,0,0,0.05,98.85000000000001,0)" xlink:href="#E"/><use transform="matrix(0.05,0,0,0.05,108.85000000000001,0)" xlink:href="#J"/><use transform="matrix(0.05,0,0,0.05,118.85000000000001,0)" xlink:href="#M"/><use transform="matrix(0.05,0,0,0.05,123.85000000000001,0)" xlink:href="#L"/><use transform="matrix(0.05,0,0,0.05,129.8,0)" xlink:href="#E"/><use transform="matrix(0.05,0,0,0.05,139.8,0)" xlink:href="#H"/><use transform="matrix(0.05,0,0,0.05,143.75,0)" xlink:href="#H"/><use transform="matrix(0.05,0,0,0.05,147.7,0)" xlink:href="#G"/><use transform="matrix(0.05,0,0,0.05,157.7,0)" xlink:href="#L"/></g><path fill="#333" d="M30 0v-248h33v221h125V0H30" id="Z"/><g id="p"><use transform="matrix(0.05,0,0,0.05,0,0)" xlink:href="#Z"/><use transform="matrix(0.05,0,0,0.05,10,0)" xlink:href="#E"/><use transform="matrix(0.05,0,0,0.05,20,0)" xlink:href="#K"/><use transform="matrix(0.05,0,0,0.05,29,0)" xlink:href="#N"/><use transform="matrix(0.05,0,0,0.05,39,0)" xlink:href="#H"/><use transform="matrix(0.05,0,0,0.05,42.95,0)" xlink:href="#G"/><use transform="matrix(0.05,0,0,0.05,52.95,0)" xlink:href="#I"/><use transform="matrix(0.05,0,0,0.05,65.9,0)" xlink:href="#E"/><use transform="matrix(0.05,0,0,0.05,75.9,0)" xlink:href="#J"/><use transform="matrix(0.05,0,0,0.05,85.9,0)" xlink:href="#M"/><use transform="matrix(0.05,0,0,0.05,90.9,0)" xlink:href="#L"/><use transform="matrix(0.05,0,0,0.05,96.85000000000001,0)" xlink:href="#E"/><use transform="matrix(0.05,0,0,0.05,106.85000000000001,0)" xlink:href="#H"/><use transform="matrix(0.05,0,0,0.05,110.80000000000001,0)" xlink:href="#H"/><use transform="matrix(0.05,0,0,0.05,114.75,0)" xlink:href="#G"/><use transform="matrix(0.05,0,0,0.05,124.75,0)" xlink:href="#L"/></g><path fill="#333" d="M197 0v-115H63V0H30v-248h33v105h134v-105h34V0h-34" id="aa"/><g id="q"><use transform="matrix(0.05,0,0,0.05,0,0)" xlink:href="#aa"/><use transform="matrix(0.05,0,0,0.05,12.950000000000001,0)" xlink:href="#G"/><use transform="matrix(0.05,0,0,0.05,22.950000000000003,0)" xlink:href="#H"/><use transform="matrix(0.05,0,0,0.05,26.900000000000002,0)" xlink:href="#U"/><use transform="matrix(0.05,0,0,0.05,36.900000000000006,0)" xlink:href="#I"/><use transform="matrix(0.05,0,0,0.05,49.85000000000001,0)" xlink:href="#E"/><use transform="matrix(0.05,0,0,0.05,59.85,0)" xlink:href="#J"/><use transform="matrix(0.05,0,0,0.05,69.85000000000001,0)" xlink:href="#M"/><use transform="matrix(0.05,0,0,0.05,74.85000000000001,0)" xlink:href="#L"/><use transform="matrix(0.05,0,0,0.05,80.80000000000001,0)" xlink:href="#E"/><use transform="matrix(0.05,0,0,0.05,90.80000000000001,0)" xlink:href="#H"/><use transform="matrix(0.05,0,0,0.05,94.75000000000001,0)" xlink:href="#H"/><use transform="matrix(0.05,0,0,0.05,98.70000000000002,0)" xlink:href="#G"/><use transform="matrix(0.05,0,0,0.05,108.7,0)" xlink:href="#L"/></g><path fill="#333" d="M143 4C61 4 22-44 18-125c-5-107 100-154 193-111 17 8 29 25 37 43l-32 9c-13-25-37-40-76-40-61 0-88 39-88 99 0 61 29 100 91 101 35 0 62-11 79-27v-45h-74v-28h105v86C228-13 192 4 143 4" id="ab"/><path fill="#333" d="M106-169C34-169 62-67 57 0H25v-261h32l-1 103c12-21 28-36 61-36 89 0 53 116 60 194h-32v-121c2-32-8-49-39-48" id="ac"/><g id="r"><use transform="matrix(0.05,0,0,0.05,0,0)" xlink:href="#V"/><use transform="matrix(0.05,0,0,0.05,12,0)" xlink:href="#O"/><use transform="matrix(0.05,0,0,0.05,22,0)" xlink:href="#M"/><use transform="matrix(0.05,0,0,0.05,27,0)" xlink:href="#E"/><use transform="matrix(0.05,0,0,0.05,37,0)" xlink:href="#P"/><use transform="matrix(0.05,0,0,0.05,51.95,0)" xlink:href="#N"/><use transform="matrix(0.05,0,0,0.05,61.95,0)" xlink:href="#M"/><use transform="matrix(0.05,0,0,0.05,66.95,0)" xlink:href="#E"/><use transform="matrix(0.05,0,0,0.05,76.95,0)" xlink:href="#J"/><use transform="matrix(0.05,0,0,0.05,86.95,0)" xlink:href="#ab"/><use transform="matrix(0.05,0,0,0.05,100.95,0)" xlink:href="#L"/><use transform="matrix(0.05,0,0,0.05,106.9,0)" xlink:href="#N"/><use transform="matrix(0.05,0,0,0.05,116.9,0)" xlink:href="#U"/><use transform="matrix(0.05,0,0,0.05,126.9,0)" xlink:href="#ac"/><use transform="matrix(0.05,0,0,0.05,136.9,0)" xlink:href="#I"/><use transform="matrix(0.05,0,0,0.05,149.85,0)" xlink:href="#E"/><use transform="matrix(0.05,0,0,0.05,159.85,0)" xlink:href="#J"/><use transform="matrix(0.05,0,0,0.05,169.85,0)" xlink:href="#M"/><use transform="matrix(0.05,0,0,0.05,174.85,0)" xlink:href="#L"/><use transform="matrix(0.05,0,0,0.05,180.79999999999998,0)" xlink:href="#E"/><use transform="matrix(0.05,0,0,0.05,190.79999999999998,0)" xlink:href="#H"/><use transform="matrix(0.05,0,0,0.05,194.74999999999997,0)" xlink:href="#H"/><use transform="matrix(0.05,0,0,0.05,198.69999999999996,0)" xlink:href="#G"/><use transform="matrix(0.05,0,0,0.05,208.69999999999996,0)" xlink:href="#L"/></g><g id="s"><use transform="matrix(0.05,0,0,0.05,0,0)" xlink:href="#V"/><use transform="matrix(0.05,0,0,0.05,12,0)" xlink:href="#O"/><use transform="matrix(0.05,0,0,0.05,22,0)" xlink:href="#M"/><use transform="matrix(0.05,0,0,0.05,27,0)" xlink:href="#E"/><use transform="matrix(0.05,0,0,0.05,37,0)" xlink:href="#P"/><use transform="matrix(0.05,0,0,0.05,51.95,0)" xlink:href="#N"/><use transform="matrix(0.05,0,0,0.05,61.95,0)" xlink:href="#M"/><use transform="matrix(0.05,0,0,0.05,66.95,0)" xlink:href="#E"/><use transform="matrix(0.05,0,0,0.05,76.95,0)" xlink:href="#J"/></g><g id="t"><use transform="matrix(0.05,0,0,0.05,0,0)" xlink:href="#P"/><use transform="matrix(0.05,0,0,0.05,14.950000000000001,0)" xlink:href="#E"/><use transform="matrix(0.05,0,0,0.05,24.950000000000003,0)" xlink:href="#F"/><use transform="matrix(0.05,0,0,0.05,34.95,0)" xlink:href="#O"/><use transform="matrix(0.05,0,0,0.05,44.95,0)" xlink:href="#H"/><use transform="matrix(0.05,0,0,0.05,48.900000000000006,0)" xlink:href="#G"/></g><g id="u"><use transform="matrix(0.05,0,0,0.05,0,0)" xlink:href="#K"/><use transform="matrix(0.05,0,0,0.05,9,0)" xlink:href="#E"/><use transform="matrix(0.05,0,0,0.05,19,0)" xlink:href="#J"/><use transform="matrix(0.05,0,0,0.05,29,0)" xlink:href="#M"/><use transform="matrix(0.05,0,0,0.05,34,0)" xlink:href="#L"/><use transform="matrix(0.05,0,0,0.05,39.95,0)" xlink:href="#E"/><use transform="matrix(0.05,0,0,0.05,49.95,0)" xlink:href="#H"/><use transform="matrix(0.05,0,0,0.05,53.900000000000006,0)" xlink:href="#H"/><use transform="matrix(0.05,0,0,0.05,57.85,0)" xlink:href="#G"/><use transform="matrix(0.05,0,0,0.05,67.85000000000001,0)" xlink:href="#L"/><use transform="matrix(0.05,0,0,0.05,73.80000000000001,0)" xlink:href="#Q"/></g><path fill="#333" d="M137 0h-34L2-248h35l83 218 83-218h36" id="ad"/><path fill="#333" d="M206 0h-36l-40-164L89 0H53L-1-190h32L70-26l43-164h34l41 164 42-164h31" id="ae"/><g id="v"><use transform="matrix(0.05,0,0,0.05,0,0)" xlink:href="#ad"/><use transform="matrix(0.05,0,0,0.05,11.65,0)" xlink:href="#S"/><use transform="matrix(0.05,0,0,0.05,15.600000000000001,0)" xlink:href="#G"/><use transform="matrix(0.05,0,0,0.05,25.6,0)" xlink:href="#ae"/></g><path fill="#333" d="M266 0h-40l-56-210L115 0H75L2-248h35L96-30l15-64 43-154h32l59 218 59-218h35" id="af"/><g id="w"><use transform="matrix(0.05,0,0,0.05,0,0)" xlink:href="#D"/><use transform="matrix(0.05,0,0,0.05,14.950000000000001,0)" xlink:href="#N"/><use transform="matrix(0.05,0,0,0.05,24.950000000000003,0)" xlink:href="#S"/><use transform="matrix(0.05,0,0,0.05,28.900000000000002,0)" xlink:href="#J"/><use transform="matrix(0.05,0,0,0.05,38.900000000000006,0)" xlink:href="#af"/><use transform="matrix(0.05,0,0,0.05,55.85,0)" xlink:href="#S"/><use transform="matrix(0.05,0,0,0.05,59.80000000000001,0)" xlink:href="#J"/><use transform="matrix(0.05,0,0,0.05,69.80000000000001,0)" xlink:href="#F"/><use transform="matrix(0.05,0,0,0.05,79.80000000000001,0)" xlink:href="#E"/><use transform="matrix(0.05,0,0,0.05,89.80000000000001,0)" xlink:href="#ae"/></g><g id="x"><use transform="matrix(0.05,0,0,0.05,0,0)" xlink:href="#V"/><use transform="matrix(0.05,0,0,0.05,12,0)" xlink:href="#O"/><use transform="matrix(0.05,0,0,0.05,22,0)" xlink:href="#M"/><use transform="matrix(0.05,0,0,0.05,27,0)" xlink:href="#E"/><use transform="matrix(0.05,0,0,0.05,37,0)" xlink:href="#P"/><use transform="matrix(0.05,0,0,0.05,51.95,0)" xlink:href="#N"/><use transform="matrix(0.05,0,0,0.05,61.95,0)" xlink:href="#M"/><use transform="matrix(0.05,0,0,0.05,66.95,0)" xlink:href="#E"/><use transform="matrix(0.05,0,0,0.05,76.95,0)" xlink:href="#J"/><use transform="matrix(0.05,0,0,0.05,86.95,0)" xlink:href="#ad"/><use transform="matrix(0.05,0,0,0.05,98.60000000000001,0)" xlink:href="#S"/><use transform="matrix(0.05,0,0,0.05,102.55000000000001,0)" xlink:href="#G"/><use transform="matrix(0.05,0,0,0.05,112.55000000000001,0)" xlink:href="#ae"/></g><g id="y"><use transform="matrix(0.05,0,0,0.05,0,0)" xlink:href="#V"/><use transform="matrix(0.05,0,0,0.05,12,0)" xlink:href="#O"/><use transform="matrix(0.05,0,0,0.05,22,0)" xlink:href="#M"/><use transform="matrix(0.05,0,0,0.05,27,0)" xlink:href="#E"/><use transform="matrix(0.05,0,0,0.05,37,0)" xlink:href="#P"/><use transform="matrix(0.05,0,0,0.05,51.95,0)" xlink:href="#N"/><use transform="matrix(0.05,0,0,0.05,61.95,0)" xlink:href="#M"/><use transform="matrix(0.05,0,0,0.05,66.95,0)" xlink:href="#E"/><use transform="matrix(0.05,0,0,0.05,76.95,0)" xlink:href="#J"/><use transform="matrix(0.05,0,0,0.05,86.95,0)" xlink:href="#ab"/><use transform="matrix(0.05,0,0,0.05,100.95,0)" xlink:href="#L"/><use transform="matrix(0.05,0,0,0.05,106.9,0)" xlink:href="#N"/><use transform="matrix(0.05,0,0,0.05,116.9,0)" xlink:href="#U"/><use transform="matrix(0.05,0,0,0.05,126.9,0)" xlink:href="#ac"/><use transform="matrix(0.05,0,0,0.05,136.9,0)" xlink:href="#ad"/><use transform="matrix(0.05,0,0,0.05,148.55,0)" xlink:href="#S"/><use transform="matrix(0.05,0,0,0.05,152.5,0)" xlink:href="#G"/><use transform="matrix(0.05,0,0,0.05,162.5,0)" xlink:href="#ae"/></g><g id="z"><use transform="matrix(0.05,0,0,0.05,0,0)" xlink:href="#P"/><use transform="matrix(0.05,0,0,0.05,14.950000000000001,0)" xlink:href="#E"/><use transform="matrix(0.05,0,0,0.05,24.950000000000003,0)" xlink:href="#F"/><use transform="matrix(0.05,0,0,0.05,34.95,0)" xlink:href="#O"/><use transform="matrix(0.05,0,0,0.05,44.95,0)" xlink:href="#H"/><use transform="matrix(0.05,0,0,0.05,48.900000000000006,0)" xlink:href="#G"/></g><path fill="#333" d="M108 0H70L1-190h34L89-25l56-165h34" id="ag"/><g id="A"><use transform="matrix(0.05,0,0,0.05,0,0)" xlink:href="#ag"/><use transform="matrix(0.05,0,0,0.05,9,0)" xlink:href="#S"/><use transform="matrix(0.05,0,0,0.05,12.949999999999998,0)" xlink:href="#G"/><use transform="matrix(0.05,0,0,0.05,22.95,0)" xlink:href="#ae"/><use transform="matrix(0.05,0,0,0.05,35.9,0)" xlink:href="#Q"/></g><g id="B"><use transform="matrix(0.05,0,0,0.05,0,0)" xlink:href="#X"/><use transform="matrix(0.05,0,0,0.05,12.950000000000001,0)" xlink:href="#M"/><use transform="matrix(0.05,0,0,0.05,17.950000000000003,0)" xlink:href="#S"/><use transform="matrix(0.05,0,0,0.05,21.900000000000002,0)" xlink:href="#H"/><use transform="matrix(0.05,0,0,0.05,25.85,0)" xlink:href="#Q"/></g><path fill="#333" d="M127-220V0H93v-220H8v-28h204v28h-85" id="ah"/><path fill="#333" d="M115-194c53 0 69 39 70 98 0 66-23 100-70 100C84 3 66-7 56-30L54 0H23l1-261h32v101c10-23 28-34 59-34zm-8 174c40 0 45-34 45-75 0-40-5-75-45-74-42 0-51 32-51 76 0 43 10 73 51 73" id="ai"/><g id="C"><use transform="matrix(0.05,0,0,0.05,0,0)" xlink:href="#V"/><use transform="matrix(0.05,0,0,0.05,12,0)" xlink:href="#O"/><use transform="matrix(0.05,0,0,0.05,22,0)" xlink:href="#M"/><use transform="matrix(0.05,0,0,0.05,27,0)" xlink:href="#E"/><use transform="matrix(0.05,0,0,0.05,37,0)" xlink:href="#P"/><use transform="matrix(0.05,0,0,0.05,51.95,0)" xlink:href="#N"/><use transform="matrix(0.05,0,0,0.05,61.95,0)" xlink:href="#M"/><use transform="matrix(0.05,0,0,0.05,66.95,0)" xlink:href="#E"/><use transform="matrix(0.05,0,0,0.05,76.95,0)" xlink:href="#J"/><use transform="matrix(0.05,0,0,0.05,86.95,0)" xlink:href="#ah"/><use transform="matrix(0.05,0,0,0.05,95.9,0)" xlink:href="#N"/><use transform="matrix(0.05,0,0,0.05,105.9,0)" xlink:href="#ai"/><use transform="matrix(0.05,0,0,0.05,115.9,0)" xlink:href="#ad"/><use transform="matrix(0.05,0,0,0.05,127.55000000000001,0)" xlink:href="#S"/><use transform="matrix(0.05,0,0,0.05,131.5,0)" xlink:href="#G"/><use transform="matrix(0.05,0,0,0.05,141.5,0)" xlink:href="#ae"/></g></defs></g></svg>