<svg xmlns="http://www.w3.org/2000/svg" xmlns:xlink="http://www.w3.org/1999/xlink" xmlns:lucid="lucid" width="953" height="1271"><g transform="translate(-13 -11)" lucid:page-tab-id="HWEp-vi-RSFO"><path d="M0 0h977.82v1366.28H0z" fill="#fff"/><path d="M192.54 20h360v286h-360z" stroke="#333" stroke-width="2" fill="#fff"/><path d="M192.54 57.6h360m-360 59.2h360" stroke="#333" stroke-width="2" fill="none"/><use xlink:href="#a" transform="matrix(1,0,0,1,200.54324052432776,28) translate(88.275 14.6)"/><use xlink:href="#b" transform="matrix(1,0,0,1,204.54324052432776,65.6) translate(0 14.799999999999999)"/><use xlink:href="#c" transform="matrix(1,0,0,1,204.54324052432776,65.6) translate(15.5 14.799999999999999)"/><use xlink:href="#b" transform="matrix(1,0,0,1,204.54324052432776,65.6) translate(0 36.4)"/><use xlink:href="#d" transform="matrix(1,0,0,1,204.54324052432776,65.6) translate(15.5 36.4)"/><use xlink:href="#b" transform="matrix(1,0,0,1,204.54324052432776,124.80000000000001) translate(0 14.500000000000009)"/><use xlink:href="#e" transform="matrix(1,0,0,1,204.54324052432776,124.80000000000001) translate(15.5 14.500000000000009)"/><use xlink:href="#f" transform="matrix(1,0,0,1,204.54324052432776,124.80000000000001) translate(148.4 14.500000000000009)"/><use xlink:href="#b" transform="matrix(1,0,0,1,204.54324052432776,124.80000000000001) translate(0 36.10000000000001)"/><use xlink:href="#g" transform="matrix(1,0,0,1,204.54324052432776,124.80000000000001) translate(15.5 36.10000000000001)"/><use xlink:href="#b" transform="matrix(1,0,0,1,204.54324052432776,124.80000000000001) translate(0 57.70000000000001)"/><use xlink:href="#h" transform="matrix(1,0,0,1,204.54324052432776,124.80000000000001) translate(15.5 57.70000000000001)"/><use xlink:href="#i" transform="matrix(1,0,0,1,204.54324052432776,124.80000000000001) translate(178.60000000000002 57.70000000000001)"/><use xlink:href="#b" transform="matrix(1,0,0,1,204.54324052432776,124.80000000000001) translate(0 79.30000000000003)"/><use xlink:href="#j" transform="matrix(1,0,0,1,204.54324052432776,124.80000000000001) translate(15.5 79.30000000000003)"/><use xlink:href="#b" transform="matrix(1,0,0,1,204.54324052432776,124.80000000000001) translate(0 100.90000000000002)"/><use xlink:href="#k" transform="matrix(1,0,0,1,204.54324052432776,124.80000000000001) translate(15.5 100.90000000000002)"/><use xlink:href="#b" transform="matrix(1,0,0,1,204.54324052432776,124.80000000000001) translate(0 122.50000000000001)"/><use xlink:href="#l" transform="matrix(1,0,0,1,204.54324052432776,124.80000000000001) translate(15.5 122.50000000000001)"/><use xlink:href="#b" transform="matrix(1,0,0,1,204.54324052432776,124.80000000000001) translate(0 144.1)"/><use xlink:href="#m" transform="matrix(1,0,0,1,204.54324052432776,124.80000000000001) translate(15.5 144.1)"/><use xlink:href="#n" transform="matrix(1,0,0,1,204.54324052432776,124.80000000000001) translate(250.49999999999997 144.1)"/><use xlink:href="#b" transform="matrix(1,0,0,1,204.54324052432776,124.80000000000001) translate(0 165.70000000000002)"/><use xlink:href="#o" transform="matrix(1,0,0,1,204.54324052432776,124.80000000000001) translate(15.5 165.70000000000002)"/><path d="M336.3 337.38V568a12 12 0 0 1-12 12H82.13a12 12 0 0 0-12 12v226.5" stroke="#333" fill="none"/><path d="M336.3 307.7l14.84 14.86-14.85 15.15-14.86-15.14z" stroke="#333" fill="#333"/><path d="M70.64 819h-1v-.5h1z" stroke="#333" stroke-width=".05" fill="#333"/><use xlink:href="#p" transform="matrix(1,0,0,1,78.14463912572637,798.2000000000003) translate(0 14.4)"/><path d="M20.14 820h100v134h-100z" stroke="#333" stroke-width="2" fill="#fff"/><path d="M20.14 857.6h100m-100 59.2h100" stroke="#333" stroke-width="2" fill="none"/><use xlink:href="#q" transform="matrix(1,0,0,1,28.14463912572637,828) translate(-0.8750000000000071 14.6)"/><use xlink:href="#b" transform="matrix(1,0,0,1,32.14463912572637,865.6) translate(0 14.799999999999999)"/><use xlink:href="#r" transform="matrix(1,0,0,1,32.14463912572637,865.6) translate(15.5 14.799999999999999)"/><use xlink:href="#b" transform="matrix(1,0,0,1,32.14463912572637,865.6) translate(0 36.4)"/><use xlink:href="#s" transform="matrix(1,0,0,1,32.14463912572637,865.6) translate(15.5 36.4)"/><path d="M263.28 337.38V351a12 12 0 0 1-12 12H142.44a12 12 0 0 0-12 12v43.5" stroke="#333" fill="none"/><path d="M263.28 307.7l14.85 14.86-14.85 15.15-14.85-15.14z" stroke="#333" fill="#333"/><path d="M130.94 419h-1v-.5h1z" stroke="#333" stroke-width=".05" fill="#333"/><use xlink:href="#p" transform="matrix(1,0,0,1,138.43694681803413,398.1999999999999) translate(0 14.4)"/><path d="M408.8 337.38V865.5" stroke="#333" fill="none"/><path d="M408.8 307.7l14.84 14.86-14.84 15.15-14.85-15.14z" stroke="#333" fill="#333"/><path d="M409.3 866h-1v-.5h1z" stroke="#333" stroke-width=".05" fill="#333"/><use xlink:href="#p" transform="matrix(1,0,0,1,416.794988776076,845.2) translate(0 14.4)"/><path d="M316.64 867h180v199h-180z" stroke="#333" stroke-width="2" fill="#fff"/><path d="M316.64 904.6h180m-180 124h180" stroke="#333" stroke-width="2" fill="none"/><use xlink:href="#t" transform="matrix(1,0,0,1,324.6362475173348,875.0000000000001) translate(7.5249999999999915 14.6)"/><use xlink:href="#b" transform="matrix(1,0,0,1,328.6362475173348,912.6000000000001) translate(0 14.899999999999993)"/><use xlink:href="#u" transform="matrix(1,0,0,1,328.6362475173348,912.6000000000001) translate(15.5 14.899999999999993)"/><use xlink:href="#b" transform="matrix(1,0,0,1,328.6362475173348,912.6000000000001) translate(0 36.49999999999999)"/><use xlink:href="#v" transform="matrix(1,0,0,1,328.6362475173348,912.6000000000001) translate(15.5 36.49999999999999)"/><use xlink:href="#b" transform="matrix(1,0,0,1,328.6362475173348,912.6000000000001) translate(0 58.099999999999994)"/><use xlink:href="#w" transform="matrix(1,0,0,1,328.6362475173348,912.6000000000001) translate(15.5 58.099999999999994)"/><use xlink:href="#b" transform="matrix(1,0,0,1,328.6362475173348,912.6000000000001) translate(0 79.70000000000002)"/><use xlink:href="#x" transform="matrix(1,0,0,1,328.6362475173348,912.6000000000001) translate(15.5 79.70000000000002)"/><use xlink:href="#b" transform="matrix(1,0,0,1,328.6362475173348,912.6000000000001) translate(0 101.30000000000001)"/><use xlink:href="#y" transform="matrix(1,0,0,1,328.6362475173348,912.6000000000001) translate(15.5 101.30000000000001)"/><path d="M480.23 337.38V341a12 12 0 0 0 12 12h325.9a12 12 0 0 1 12 12v33.5" stroke="#333" fill="none"/><path d="M480.23 307.7l14.85 14.86-14.85 15.15-14.85-15.14z" stroke="#333" fill="#333"/><path d="M830.64 399h-1v-.5h1z" stroke="#333" stroke-width=".05" fill="#333"/><use xlink:href="#z" transform="matrix(1,0,0,1,838.1446391257261,378.19999999999976) translate(0 14.4)"/><use xlink:href="#A" transform="matrix(1,0,0,1,838.1446391257261,378.19999999999976) translate(12 14.4)"/><path d="M44.24 420h172.4v97H44.24z" stroke="#333" stroke-width="2" fill="#fff"/><path d="M44.24 479.2h172.4" stroke="#333" stroke-width="2" fill="none"/><use xlink:href="#B" transform="matrix(1,0,0,1,52.23764611873344,428) translate(20.074999999999996 14.799999999999999)"/><use xlink:href="#C" transform="matrix(1,0,0,1,52.23764611873344,428) translate(-0.22500000000000853 36.4)"/><path d="M700.14 400h260v205h-260z" stroke="#333" stroke-width="2" fill="#fff"/><path d="M700.14 459.2h260" stroke="#333" stroke-width="2" fill="none"/><use xlink:href="#D" transform="matrix(1,0,0,1,708.1446391257263,408) translate(63.574999999999996 14.799999999999999)"/><use xlink:href="#E" transform="matrix(1,0,0,1,708.1446391257263,408) translate(25.22500000000001 36.4)"/><use xlink:href="#F" transform="matrix(1,0,0,1,712.1446391257263,467.2) translate(0 14.600000000000003)"/><use xlink:href="#G" transform="matrix(1,0,0,1,712.1446391257263,467.2) translate(15.5 14.600000000000003)"/><use xlink:href="#F" transform="matrix(1,0,0,1,712.1446391257263,467.2) translate(0 36.2)"/><use xlink:href="#H" transform="matrix(1,0,0,1,712.1446391257263,467.2) translate(15.5 36.2)"/><use xlink:href="#F" transform="matrix(1,0,0,1,712.1446391257263,467.2) translate(0 57.800000000000004)"/><use xlink:href="#I" transform="matrix(1,0,0,1,712.1446391257263,467.2) translate(15.5 57.800000000000004)"/><use xlink:href="#F" transform="matrix(1,0,0,1,712.1446391257263,467.2) translate(0 79.40000000000002)"/><use xlink:href="#J" transform="matrix(1,0,0,1,712.1446391257263,467.2) translate(15.5 79.40000000000002)"/><use xlink:href="#F" transform="matrix(1,0,0,1,712.1446391257263,467.2) translate(0 101.00000000000001)"/><use xlink:href="#K" transform="matrix(1,0,0,1,712.1446391257263,467.2) translate(15.5 101.00000000000001)"/><use xlink:href="#F" transform="matrix(1,0,0,1,712.1446391257263,467.2) translate(0 122.60000000000001)"/><use xlink:href="#L" transform="matrix(1,0,0,1,712.1446391257263,467.2) translate(15.5 122.60000000000001)"/><path d="M786.93 878.1h-1v-5.03h1zm0-10.05h-1V858h1zm0-15.06h-1v-10.06h1zm0-15.08h-1v-10.04h1zm0-15.06h-1V812.8h1zm0-15.07h-1v-10.05h1zm0-15.07h-1V782.7h1zm0-15.07h-1v-10.04h1zm0-15.06h-1v-9.3h1zm-.04-30.9h-1v-9.37h1zm0-14.4h-1v-10.07h1zm0-15.1h-1V692.1h1zm0-15.12h-1V677h1zm0-15.1h-1V661.9h1zm0-15.12h-1V646.8h1zm0-15.1h-1v-10.08h1zm0-15.12h-1v-10.07h1zm0-15.1h-1v-5.04h1z" stroke="#333" stroke-width=".05" fill="#333"/><path d="M786.9 606.5h-1v-.5h1z" fill="#333"/><path d="M786.9 606.54h-1.04v-.56h1.05zm-1-.5v.45h.96V606zM797.04 861.06L786.44 879l-10.62-17.94.86-.5 9.75 16.48 9.75-16.5z" stroke="#333" stroke-width=".05" fill="#333"/><g><use xlink:href="#M" transform="matrix(1,0,0,1,740.4331832655924,731.7) translate(0.005000000000002558 14.4)"/></g><path d="M700.14 880h260v226h-260z" stroke="#333" stroke-width="2" fill="#fff"/><path d="M700.14 939.2h260" stroke="#333" stroke-width="2" fill="none"/><g><use xlink:href="#D" transform="matrix(1,0,0,1,708.1446391257263,888) translate(63.574999999999996 14.799999999999999)"/><use xlink:href="#N" transform="matrix(1,0,0,1,708.1446391257263,888) translate(70.125 36.4)"/></g><g><use xlink:href="#F" transform="matrix(1,0,0,1,712.1446391257263,947.2) translate(0 14.800000000000006)"/><use xlink:href="#O" transform="matrix(1,0,0,1,712.1446391257263,947.2) translate(15.5 14.800000000000006)"/><use xlink:href="#F" transform="matrix(1,0,0,1,712.1446391257263,947.2) translate(0 36.400000000000006)"/><use xlink:href="#P" transform="matrix(1,0,0,1,712.1446391257263,947.2) translate(15.5 36.400000000000006)"/><use xlink:href="#F" transform="matrix(1,0,0,1,712.1446391257263,947.2) translate(0 58.00000000000001)"/><use xlink:href="#Q" transform="matrix(1,0,0,1,712.1446391257263,947.2) translate(15.5 58.00000000000001)"/><use xlink:href="#F" transform="matrix(1,0,0,1,712.1446391257263,947.2) translate(0 79.60000000000002)"/><use xlink:href="#R" transform="matrix(1,0,0,1,712.1446391257263,947.2) translate(15.5 79.60000000000002)"/><use xlink:href="#F" transform="matrix(1,0,0,1,712.1446391257263,947.2) translate(0 101.20000000000002)"/><use xlink:href="#S" transform="matrix(1,0,0,1,712.1446391257263,947.2) translate(15.5 101.20000000000002)"/><use xlink:href="#F" transform="matrix(1,0,0,1,712.1446391257263,947.2) translate(0 122.80000000000001)"/><use xlink:href="#K" transform="matrix(1,0,0,1,712.1446391257263,947.2) translate(15.5 122.80000000000001)"/><use xlink:href="#F" transform="matrix(1,0,0,1,712.1446391257263,947.2) translate(0 144.4)"/><use xlink:href="#T" transform="matrix(1,0,0,1,712.1446391257263,947.2) translate(15.5 144.4)"/></g><path d="M76.64 1160h240v113h-240z" stroke="#333" stroke-width="2" fill="#fff"/><path d="M76.64 1197.6h240m-240 37.6h240" stroke="#333" stroke-width="2" fill="none"/><g><use xlink:href="#U" transform="matrix(1,0,0,1,84.63624751733482,1168) translate(29.724999999999994 14.6)"/></g><g><use xlink:href="#b" transform="matrix(1,0,0,1,88.63624751733482,1205.6) translate(0 14.4)"/><use xlink:href="#V" transform="matrix(1,0,0,1,88.63624751733482,1205.6) translate(15.5 14.4)"/></g><g><use xlink:href="#b" transform="matrix(1,0,0,1,88.63624751733482,1243.1999999999998) translate(0 14.4)"/><use xlink:href="#W" transform="matrix(1,0,0,1,88.63624751733482,1243.1999999999998) translate(15.5 14.4)"/></g><path d="M406.64 1067.5v33.5a12 12 0 0 1-12 12h-145.3a12 12 0 0 0-12 12v11" stroke="#333" fill="none"/><path d="M407.14 1067.5h-1v-.5h1z" stroke="#333" stroke-width=".05" fill="#333"/><path d="M237.34 1158.02l-12.72-21.52h25.45z" stroke="#333" fill="#fff"/><path d="M70.14 955.5v89.5a12 12 0 0 0 12 12h61.8a12 12 0 0 1 12 12v67" stroke="#333" fill="none"/><path d="M70.64 955.5h-1v-.5h1z" stroke="#333" stroke-width=".05" fill="#333"/><path d="M155.93 1158.02l-12.73-21.52h25.45z" stroke="#333" fill="#fff"/><path d="M873.9 606.5v195.48a.02.02 0 0 1-.02.02.02.02 0 0 0-.02.02v46.6" stroke="#333" fill="none"/><path d="M874.4 606.5h-1v-.5h1z" stroke="#333" stroke-width=".05" fill="#333"/><path d="M873.86 878.3L859 863.43l14.86-15.15 14.85 15.14z" stroke="#333" fill="#fff"/><g><use xlink:href="#X" transform="matrix(1,0,0,1,865.900736686702,605.2) translate(0 14.4)"/></g><g><use xlink:href="#p" transform="matrix(1,0,0,1,897.3614532850185,858.2) translate(0 14.4)"/></g><path d="M216.64 660h100v113h-100z" stroke="#333" stroke-width="2" fill="#fff"/><path d="M216.64 697.6h100m-100 37.6h100" stroke="#333" stroke-width="2" fill="none"/><g><use xlink:href="#Y" transform="matrix(1,0,0,1,224.63624751733482,668.0000000000001) translate(20.05 14.6)"/></g><path d="M500.14 660h160v113h-160z" stroke="#333" stroke-width="2" fill="#fff"/><path d="M500.14 697.6h160m-160 37.6h160" stroke="#333" stroke-width="2" fill="none"/><g><use xlink:href="#Z" transform="matrix(1,0,0,1,508.14463912572637,668.0000000000001) translate(11.67499999999999 14.6)"/></g><g><use xlink:href="#F" transform="matrix(1,0,0,1,512.1446391257264,705.6000000000001) translate(0 14.6)"/><use xlink:href="#aa" transform="matrix(1,0,0,1,512.1446391257264,705.6000000000001) translate(15.5 14.6)"/></g><path d="M580.14 774.5V808a12 12 0 0 1-12 12h-103.9a12 12 0 0 0-12 12v11" stroke="#333" fill="none"/><path d="M580.64 774.5h-1v-.5h1z" stroke="#333" stroke-width=".05" fill="#333"/><path d="M452.24 865.02L439.5 843.5h25.46z" stroke="#333" fill="#fff"/><path d="M266.64 774.5V808a12 12 0 0 0 12 12h66.8a12 12 0 0 1 12 12v11" stroke="#333" fill="none"/><path d="M267.14 774.5h-1v-.5h1z" stroke="#333" stroke-width=".05" fill="#333"/><path d="M357.44 865.02L344.7 843.5h25.46z" stroke="#333" fill="#fff"/><defs><path fill="#333" d="M183 0l-10-63H79L44 0H-7l138-248h61L234 0h-51zm-14-102l-15-108c-16 38-36 73-55 108h70" id="ab"/><path fill="#333" d="M87-160c15-17 32-34 63-34 99 1 59 172-1 192-36 12-78 0-87-29L54 0H6l52-261h49zm71 38c0-24-5-37-29-37-46 0-55 46-57 89-1 25 12 40 35 40 44 0 51-50 51-92" id="ac"/><path fill="#333" d="M144-137c-1-29-70-35-71-2 16 41 103 10 103 80C176 9 79 16 32-9 18-17 9-31 4-48l44-6c3 32 80 36 82 1-15-42-103-11-103-82 0-77 157-79 161-8" id="ad"/><path fill="#333" d="M72-63c-8 23 5 39 32 30L98-1C54 14 12-6 23-64l18-93H15l7-33h28l24-45h31l-8 45h35l-6 33H90" id="ae"/><path fill="#333" d="M84-151c13-25 34-51 72-40l-8 41C67-170 71-64 56 0H6l36-190h47" id="af"/><path fill="#333" d="M166-52c-4 17 5 29 24 23l-3 27c-30 11-74 1-67-34C105-15 91 4 56 4 23 4 3-15 2-49c0-64 63-67 128-67 10-22 3-53-29-45-13 3-22 10-25 24l-46-5c5-64 156-77 153 0-1 33-11 60-17 90zM97-88c-44-9-64 57-19 57 31 0 42-28 47-57H97" id="ag"/><path fill="#333" d="M67-101c-8 29-7 73 27 71 23-2 32-16 39-37l48 9C170-19 141 4 91 4 36 4 7-28 12-86c6-75 61-124 140-103 26 7 40 29 43 59l-50 4c-1-20-9-34-29-34-35 0-41 29-49 59" id="ah"/><path fill="#333" d="M69 3c-96 0-34-126-28-193h49L65-57c6 42 62 18 71-6 14-38 17-86 28-127h50L178 0h-47c0-11 4-26 3-33-14 20-30 37-65 36" id="ai"/><path fill="#333" d="M124-194c51 0 84 22 84 74C207-44 167 4 94 4 43 4 11-23 11-74c0-74 41-120 113-120zM99-30c46 0 58-42 58-86 0-27-11-44-37-44-44 0-55 40-57 84-1 27 10 45 36 46" id="aj"/><path fill="#333" d="M255-194c90 0 29 129 24 194h-49l25-136c-7-39-53-14-60 9-12 38-18 85-28 127h-49l25-136c2-29-39-23-50-7C69-108 68-47 56 0H6l36-190h48c-1 10-6 24-4 32 12-20 27-36 57-36s46 15 50 41c14-21 29-41 62-41" id="ak"/><path fill="#333" d="M151-194c95 0 34 128 28 194h-49l25-134c0-29-45-25-59-9C67-111 69-48 56 0H6l36-190h47l-4 32c15-20 33-36 66-36" id="al"/><g id="a"><use transform="matrix(0.05,0,0,0.05,0,0)" xlink:href="#ab"/><use transform="matrix(0.05,0,0,0.05,12.950000000000001,0)" xlink:href="#ac"/><use transform="matrix(0.05,0,0,0.05,23.900000000000002,0)" xlink:href="#ad"/><use transform="matrix(0.05,0,0,0.05,33.900000000000006,0)" xlink:href="#ae"/><use transform="matrix(0.05,0,0,0.05,39.85000000000001,0)" xlink:href="#af"/><use transform="matrix(0.05,0,0,0.05,46.85000000000001,0)" xlink:href="#ag"/><use transform="matrix(0.05,0,0,0.05,56.85,0)" xlink:href="#ah"/><use transform="matrix(0.05,0,0,0.05,66.85000000000001,0)" xlink:href="#ae"/><use transform="matrix(0.05,0,0,0.05,72.80000000000001,0)" xlink:href="#ab"/><use transform="matrix(0.05,0,0,0.05,85.75000000000001,0)" xlink:href="#ai"/><use transform="matrix(0.05,0,0,0.05,96.70000000000002,0)" xlink:href="#ae"/><use transform="matrix(0.05,0,0,0.05,102.65000000000003,0)" xlink:href="#aj"/><use transform="matrix(0.05,0,0,0.05,113.60000000000002,0)" xlink:href="#ak"/><use transform="matrix(0.05,0,0,0.05,129.60000000000002,0)" xlink:href="#ag"/><use transform="matrix(0.05,0,0,0.05,139.60000000000002,0)" xlink:href="#ae"/><use transform="matrix(0.05,0,0,0.05,145.55,0)" xlink:href="#aj"/><use transform="matrix(0.05,0,0,0.05,156.5,0)" xlink:href="#al"/></g><path fill="#333" d="M118-107v75H92v-75H18v-26h74v-75h26v75h74v26h-74" id="am"/><use transform="matrix(0.05,0,0,0.05,0,0)" xlink:href="#am" id="b"/><path fill="#333" d="M59-47c-2 24 18 29 38 22v24C64 9 27 4 27-40v-127H5v-23h24l9-43h21v43h35v23H59v120" id="an"/><path fill="#333" d="M179-190L93 31C79 59 56 82 12 73V49c39 6 53-20 64-50L1-190h34L92-34l54-156h33" id="ao"/><path fill="#333" d="M115-194c55 1 70 41 70 98S169 2 115 4C84 4 66-9 55-30l1 105H24l-1-265h31l2 30c10-21 28-34 59-34zm-8 174c40 0 45-34 45-75s-6-73-45-74c-42 0-51 32-51 76 0 43 10 73 51 73" id="ap"/><path fill="#333" d="M100-194c63 0 86 42 84 106H49c0 40 14 67 53 68 26 1 43-12 49-29l28 8c-11 28-37 45-77 45C44 4 14-33 15-96c1-61 26-98 85-98zm52 81c6-60-76-77-97-28-3 7-6 17-6 28h103" id="aq"/><path fill="#333" d="M190 0L58-211 59 0H30v-248h39L202-35l-2-213h31V0h-41" id="ar"/><path fill="#333" d="M141-36C126-15 110 5 73 4 37 3 15-17 15-53c-1-64 63-63 125-63 3-35-9-54-41-54-24 1-41 7-42 31l-33-3c5-37 33-52 76-52 45 0 72 20 72 64v82c-1 20 7 32 28 27v20c-31 9-61-2-59-35zM48-53c0 20 12 33 32 33 41-3 63-29 60-74-43 2-92-5-92 41" id="as"/><path fill="#333" d="M210-169c-67 3-38 105-44 169h-31v-121c0-29-5-50-35-48C34-165 62-65 56 0H25l-1-190h30c1 10-1 24 2 32 10-44 99-50 107 0 11-21 27-35 58-36 85-2 47 119 55 194h-31v-121c0-29-5-49-35-48" id="at"/><g id="c"><use transform="matrix(0.05,0,0,0.05,0,0)" xlink:href="#an"/><use transform="matrix(0.05,0,0,0.05,5,0)" xlink:href="#ao"/><use transform="matrix(0.05,0,0,0.05,14,0)" xlink:href="#ap"/><use transform="matrix(0.05,0,0,0.05,24,0)" xlink:href="#aq"/><use transform="matrix(0.05,0,0,0.05,34,0)" xlink:href="#ar"/><use transform="matrix(0.05,0,0,0.05,46.95,0)" xlink:href="#as"/><use transform="matrix(0.05,0,0,0.05,56.95,0)" xlink:href="#at"/><use transform="matrix(0.05,0,0,0.05,71.9,0)" xlink:href="#aq"/></g><path fill="#333" d="M84 4C-5 8 30-112 23-190h32v120c0 31 7 50 39 49 72-2 45-101 50-169h31l1 190h-30c-1-10 1-25-2-33-11 22-28 36-60 37" id="au"/><path fill="#333" d="M117-194c89-4 53 116 60 194h-32v-121c0-31-8-49-39-48C34-167 62-67 57 0H25l-1-190h30c1 10-1 24 2 32 11-22 29-35 61-36" id="av"/><path fill="#333" d="M85-194c31 0 48 13 60 33l-1-100h32l1 261h-30c-2-10 0-23-3-31C134-8 116 4 85 4 32 4 16-35 15-94c0-66 23-100 70-100zm9 24c-40 0-46 34-46 75 0 40 6 74 45 74 42 0 51-32 51-76 0-42-9-74-50-73" id="aw"/><path fill="#333" d="M100-194c62-1 85 37 85 99 1 63-27 99-86 99S16-35 15-95c0-66 28-99 85-99zM99-20c44 1 53-31 53-75 0-43-8-75-51-75s-53 32-53 75 10 74 51 75" id="ax"/><path fill="#333" d="M233-177c-1 41-23 64-60 70L243 0h-38l-65-103H63V0H30v-248c88 3 205-21 203 71zM63-129c60-2 137 13 137-47 0-61-80-42-137-45v92" id="ay"/><path fill="#333" d="M240 0l2-218c-23 76-54 145-80 218h-23L58-218 59 0H30v-248h44l77 211c21-75 51-140 76-211h43V0h-30" id="az"/><path fill="#333" d="M177-190C167-65 218 103 67 71c-23-6-38-20-44-43l32-5c15 47 100 32 89-28v-30C133-14 115 1 83 1 29 1 15-40 15-95c0-56 16-97 71-98 29-1 48 16 59 35 1-10 0-23 2-32h30zM94-22c36 0 50-32 50-73 0-42-14-75-50-75-39 0-46 34-46 75s6 73 46 73" id="aA"/><path fill="#333" d="M114-163C36-179 61-72 57 0H25l-1-190h30c1 12-1 29 2 39 6-27 23-49 58-41v29" id="aB"/><g id="d"><use transform="matrix(0.05,0,0,0.05,0,0)" xlink:href="#au"/><use transform="matrix(0.05,0,0,0.05,10,0)" xlink:href="#av"/><use transform="matrix(0.05,0,0,0.05,20,0)" xlink:href="#aw"/><use transform="matrix(0.05,0,0,0.05,30,0)" xlink:href="#ax"/><use transform="matrix(0.05,0,0,0.05,40,0)" xlink:href="#ay"/><use transform="matrix(0.05,0,0,0.05,52.95,0)" xlink:href="#aq"/><use transform="matrix(0.05,0,0,0.05,62.95,0)" xlink:href="#aw"/><use transform="matrix(0.05,0,0,0.05,72.95,0)" xlink:href="#ax"/><use transform="matrix(0.05,0,0,0.05,82.95,0)" xlink:href="#az"/><use transform="matrix(0.05,0,0,0.05,97.9,0)" xlink:href="#as"/><use transform="matrix(0.05,0,0,0.05,107.9,0)" xlink:href="#av"/><use transform="matrix(0.05,0,0,0.05,117.9,0)" xlink:href="#as"/><use transform="matrix(0.05,0,0,0.05,127.9,0)" xlink:href="#aA"/><use transform="matrix(0.05,0,0,0.05,137.9,0)" xlink:href="#aq"/><use transform="matrix(0.05,0,0,0.05,147.9,0)" xlink:href="#aB"/></g><path fill="#333" d="M185-189c-5-48-123-54-124 2 14 75 158 14 163 119 3 78-121 87-175 55-17-10-28-26-33-46l33-7c5 56 141 63 141-1 0-78-155-14-162-118-5-82 145-84 179-34 5 7 8 16 11 25" id="aC"/><path fill="#333" d="M87 75C49 33 22-17 22-94c0-76 28-126 65-167h31c-38 41-64 92-64 168S80 34 118 75H87" id="aD"/><path fill="#333" d="M68-38c1 34 0 65-14 84H32c9-13 17-26 17-46H33v-38h35" id="aE"/><g id="e"><use transform="matrix(0.05,0,0,0.05,0,0)" xlink:href="#as"/><use transform="matrix(0.05,0,0,0.05,10,0)" xlink:href="#aw"/><use transform="matrix(0.05,0,0,0.05,20,0)" xlink:href="#aw"/><use transform="matrix(0.05,0,0,0.05,30,0)" xlink:href="#aC"/><use transform="matrix(0.05,0,0,0.05,42,0)" xlink:href="#an"/><use transform="matrix(0.05,0,0,0.05,47,0)" xlink:href="#as"/><use transform="matrix(0.05,0,0,0.05,57,0)" xlink:href="#an"/><use transform="matrix(0.05,0,0,0.05,62,0)" xlink:href="#aq"/><use transform="matrix(0.05,0,0,0.05,72,0)" xlink:href="#aD"/><use transform="matrix(0.05,0,0,0.05,77.95,0)" xlink:href="#av"/><use transform="matrix(0.05,0,0,0.05,87.95,0)" xlink:href="#as"/><use transform="matrix(0.05,0,0,0.05,97.95,0)" xlink:href="#at"/><use transform="matrix(0.05,0,0,0.05,112.9,0)" xlink:href="#aq"/><use transform="matrix(0.05,0,0,0.05,122.9,0)" xlink:href="#aE"/></g><path fill="#333" d="M135-143c-3-34-86-38-87 0 15 53 115 12 119 90S17 21 10-45l28-5c4 36 97 45 98 0-10-56-113-15-118-90-4-57 82-63 122-42 12 7 21 19 24 35" id="aF"/><path fill="#333" d="M33-261c38 41 65 92 65 168S71 34 33 75H2C39 34 66-17 66-93S39-220 2-261h31" id="aG"/><g id="f"><use transform="matrix(0.05,0,0,0.05,0,0)" xlink:href="#ap"/><use transform="matrix(0.05,0,0,0.05,10,0)" xlink:href="#ax"/><use transform="matrix(0.05,0,0,0.05,20,0)" xlink:href="#aF"/><use transform="matrix(0.05,0,0,0.05,29,0)" xlink:href="#aG"/></g><path fill="#333" d="M108 0H70L1-190h34L89-25l56-165h34" id="aH"/><g id="g"><use transform="matrix(0.05,0,0,0.05,0,0)" xlink:href="#aB"/><use transform="matrix(0.05,0,0,0.05,5.95,0)" xlink:href="#aq"/><use transform="matrix(0.05,0,0,0.05,15.949999999999998,0)" xlink:href="#at"/><use transform="matrix(0.05,0,0,0.05,30.899999999999995,0)" xlink:href="#ax"/><use transform="matrix(0.05,0,0,0.05,40.9,0)" xlink:href="#aH"/><use transform="matrix(0.05,0,0,0.05,49.9,0)" xlink:href="#aq"/><use transform="matrix(0.05,0,0,0.05,59.900000000000006,0)" xlink:href="#aC"/><use transform="matrix(0.05,0,0,0.05,71.9,0)" xlink:href="#an"/><use transform="matrix(0.05,0,0,0.05,76.9,0)" xlink:href="#as"/><use transform="matrix(0.05,0,0,0.05,86.9,0)" xlink:href="#an"/><use transform="matrix(0.05,0,0,0.05,91.9,0)" xlink:href="#aq"/><use transform="matrix(0.05,0,0,0.05,101.9,0)" xlink:href="#aD"/><use transform="matrix(0.05,0,0,0.05,107.85000000000001,0)" xlink:href="#aF"/><use transform="matrix(0.05,0,0,0.05,116.85000000000001,0)" xlink:href="#an"/><use transform="matrix(0.05,0,0,0.05,121.85000000000001,0)" xlink:href="#as"/><use transform="matrix(0.05,0,0,0.05,131.85000000000002,0)" xlink:href="#an"/><use transform="matrix(0.05,0,0,0.05,136.85000000000002,0)" xlink:href="#aq"/><use transform="matrix(0.05,0,0,0.05,146.85000000000002,0)" xlink:href="#aG"/></g><path fill="#333" d="M127-220V0H93v-220H8v-28h204v28h-85" id="aI"/><path fill="#333" d="M24-231v-30h32v30H24zM24 0v-190h32V0H24" id="aJ"/><g id="h"><use transform="matrix(0.05,0,0,0.05,0,0)" xlink:href="#as"/><use transform="matrix(0.05,0,0,0.05,10,0)" xlink:href="#aw"/><use transform="matrix(0.05,0,0,0.05,20,0)" xlink:href="#aw"/><use transform="matrix(0.05,0,0,0.05,30,0)" xlink:href="#aI"/><use transform="matrix(0.05,0,0,0.05,40.300000000000004,0)" xlink:href="#aB"/><use transform="matrix(0.05,0,0,0.05,46.25000000000001,0)" xlink:href="#as"/><use transform="matrix(0.05,0,0,0.05,56.25,0)" xlink:href="#av"/><use transform="matrix(0.05,0,0,0.05,66.25,0)" xlink:href="#aF"/><use transform="matrix(0.05,0,0,0.05,75.25,0)" xlink:href="#aJ"/><use transform="matrix(0.05,0,0,0.05,79.2,0)" xlink:href="#an"/><use transform="matrix(0.05,0,0,0.05,84.2,0)" xlink:href="#aJ"/><use transform="matrix(0.05,0,0,0.05,88.15,0)" xlink:href="#ax"/><use transform="matrix(0.05,0,0,0.05,98.15,0)" xlink:href="#av"/><use transform="matrix(0.05,0,0,0.05,108.15,0)" xlink:href="#aD"/><use transform="matrix(0.05,0,0,0.05,114.10000000000001,0)" xlink:href="#aF"/><use transform="matrix(0.05,0,0,0.05,123.10000000000001,0)" xlink:href="#an"/><use transform="matrix(0.05,0,0,0.05,128.10000000000002,0)" xlink:href="#as"/><use transform="matrix(0.05,0,0,0.05,138.10000000000002,0)" xlink:href="#an"/><use transform="matrix(0.05,0,0,0.05,143.10000000000002,0)" xlink:href="#aq"/><use transform="matrix(0.05,0,0,0.05,153.10000000000002,0)" xlink:href="#aE"/></g><g id="i"><use transform="matrix(0.05,0,0,0.05,0,0)" xlink:href="#aF"/><use transform="matrix(0.05,0,0,0.05,9,0)" xlink:href="#an"/><use transform="matrix(0.05,0,0,0.05,14,0)" xlink:href="#as"/><use transform="matrix(0.05,0,0,0.05,24,0)" xlink:href="#an"/><use transform="matrix(0.05,0,0,0.05,29,0)" xlink:href="#aq"/><use transform="matrix(0.05,0,0,0.05,39,0)" xlink:href="#aG"/></g><g id="j"><use transform="matrix(0.05,0,0,0.05,0,0)" xlink:href="#aB"/><use transform="matrix(0.05,0,0,0.05,5.95,0)" xlink:href="#aq"/><use transform="matrix(0.05,0,0,0.05,15.949999999999998,0)" xlink:href="#at"/><use transform="matrix(0.05,0,0,0.05,30.899999999999995,0)" xlink:href="#ax"/><use transform="matrix(0.05,0,0,0.05,40.9,0)" xlink:href="#aH"/><use transform="matrix(0.05,0,0,0.05,49.9,0)" xlink:href="#aq"/><use transform="matrix(0.05,0,0,0.05,59.900000000000006,0)" xlink:href="#aI"/><use transform="matrix(0.05,0,0,0.05,70.2,0)" xlink:href="#aB"/><use transform="matrix(0.05,0,0,0.05,76.15,0)" xlink:href="#as"/><use transform="matrix(0.05,0,0,0.05,86.15,0)" xlink:href="#av"/><use transform="matrix(0.05,0,0,0.05,96.15,0)" xlink:href="#aF"/><use transform="matrix(0.05,0,0,0.05,105.15,0)" xlink:href="#aJ"/><use transform="matrix(0.05,0,0,0.05,109.10000000000001,0)" xlink:href="#an"/><use transform="matrix(0.05,0,0,0.05,114.10000000000001,0)" xlink:href="#aJ"/><use transform="matrix(0.05,0,0,0.05,118.05000000000001,0)" xlink:href="#ax"/><use transform="matrix(0.05,0,0,0.05,128.05,0)" xlink:href="#av"/><use transform="matrix(0.05,0,0,0.05,138.05,0)" xlink:href="#aD"/><use transform="matrix(0.05,0,0,0.05,144,0)" xlink:href="#aI"/><use transform="matrix(0.05,0,0,0.05,154.29999999999998,0)" xlink:href="#aB"/><use transform="matrix(0.05,0,0,0.05,160.24999999999997,0)" xlink:href="#as"/><use transform="matrix(0.05,0,0,0.05,170.24999999999997,0)" xlink:href="#av"/><use transform="matrix(0.05,0,0,0.05,180.24999999999997,0)" xlink:href="#aF"/><use transform="matrix(0.05,0,0,0.05,189.24999999999997,0)" xlink:href="#aJ"/><use transform="matrix(0.05,0,0,0.05,193.19999999999996,0)" xlink:href="#an"/><use transform="matrix(0.05,0,0,0.05,198.19999999999996,0)" xlink:href="#aJ"/><use transform="matrix(0.05,0,0,0.05,202.14999999999995,0)" xlink:href="#ax"/><use transform="matrix(0.05,0,0,0.05,212.14999999999998,0)" xlink:href="#av"/><use transform="matrix(0.05,0,0,0.05,222.14999999999998,0)" xlink:href="#aG"/></g><path fill="#333" d="M24 0v-261h32V0H24" id="aK"/><path fill="#333" d="M63-220v92h138v28H63V0H30v-248h175v28H63" id="aL"/><path fill="#333" d="M96-169c-40 0-48 33-48 73s9 75 48 75c24 0 41-14 43-38l32 2c-6 37-31 61-74 61-59 0-76-41-82-99-10-93 101-131 147-64 4 7 5 14 7 22l-32 3c-4-21-16-35-41-35" id="aM"/><g id="k"><use transform="matrix(0.05,0,0,0.05,0,0)" xlink:href="#aA"/><use transform="matrix(0.05,0,0,0.05,10,0)" xlink:href="#aq"/><use transform="matrix(0.05,0,0,0.05,20,0)" xlink:href="#an"/><use transform="matrix(0.05,0,0,0.05,25,0)" xlink:href="#az"/><use transform="matrix(0.05,0,0,0.05,39.95,0)" xlink:href="#ax"/><use transform="matrix(0.05,0,0,0.05,49.95,0)" xlink:href="#aw"/><use transform="matrix(0.05,0,0,0.05,59.95,0)" xlink:href="#au"/><use transform="matrix(0.05,0,0,0.05,69.95,0)" xlink:href="#aK"/><use transform="matrix(0.05,0,0,0.05,73.9,0)" xlink:href="#aq"/><use transform="matrix(0.05,0,0,0.05,83.9,0)" xlink:href="#aD"/><use transform="matrix(0.05,0,0,0.05,89.85000000000001,0)" xlink:href="#at"/><use transform="matrix(0.05,0,0,0.05,104.80000000000001,0)" xlink:href="#ax"/><use transform="matrix(0.05,0,0,0.05,114.80000000000001,0)" xlink:href="#aw"/><use transform="matrix(0.05,0,0,0.05,124.80000000000001,0)" xlink:href="#au"/><use transform="matrix(0.05,0,0,0.05,134.8,0)" xlink:href="#aK"/><use transform="matrix(0.05,0,0,0.05,138.75,0)" xlink:href="#aq"/><use transform="matrix(0.05,0,0,0.05,148.75,0)" xlink:href="#aL"/><use transform="matrix(0.05,0,0,0.05,159.7,0)" xlink:href="#as"/><use transform="matrix(0.05,0,0,0.05,169.7,0)" xlink:href="#aM"/><use transform="matrix(0.05,0,0,0.05,178.7,0)" xlink:href="#an"/><use transform="matrix(0.05,0,0,0.05,183.7,0)" xlink:href="#ax"/><use transform="matrix(0.05,0,0,0.05,193.7,0)" xlink:href="#aB"/><use transform="matrix(0.05,0,0,0.05,199.64999999999998,0)" xlink:href="#ao"/><use transform="matrix(0.05,0,0,0.05,208.64999999999998,0)" xlink:href="#aG"/></g><g id="l"><use transform="matrix(0.05,0,0,0.05,0,0)" xlink:href="#aA"/><use transform="matrix(0.05,0,0,0.05,10,0)" xlink:href="#aq"/><use transform="matrix(0.05,0,0,0.05,20,0)" xlink:href="#an"/><use transform="matrix(0.05,0,0,0.05,25,0)" xlink:href="#aI"/><use transform="matrix(0.05,0,0,0.05,35.300000000000004,0)" xlink:href="#aB"/><use transform="matrix(0.05,0,0,0.05,41.25000000000001,0)" xlink:href="#as"/><use transform="matrix(0.05,0,0,0.05,51.25,0)" xlink:href="#av"/><use transform="matrix(0.05,0,0,0.05,61.25,0)" xlink:href="#aF"/><use transform="matrix(0.05,0,0,0.05,70.25,0)" xlink:href="#aJ"/><use transform="matrix(0.05,0,0,0.05,74.2,0)" xlink:href="#an"/><use transform="matrix(0.05,0,0,0.05,79.2,0)" xlink:href="#aJ"/><use transform="matrix(0.05,0,0,0.05,83.15,0)" xlink:href="#ax"/><use transform="matrix(0.05,0,0,0.05,93.15,0)" xlink:href="#av"/><use transform="matrix(0.05,0,0,0.05,103.15,0)" xlink:href="#aF"/><use transform="matrix(0.05,0,0,0.05,112.15,0)" xlink:href="#aD"/><use transform="matrix(0.05,0,0,0.05,118.10000000000001,0)" xlink:href="#aF"/><use transform="matrix(0.05,0,0,0.05,127.10000000000001,0)" xlink:href="#an"/><use transform="matrix(0.05,0,0,0.05,132.10000000000002,0)" xlink:href="#as"/><use transform="matrix(0.05,0,0,0.05,142.10000000000002,0)" xlink:href="#an"/><use transform="matrix(0.05,0,0,0.05,147.10000000000002,0)" xlink:href="#aq"/><use transform="matrix(0.05,0,0,0.05,157.10000000000002,0)" xlink:href="#aG"/></g><path fill="#333" d="M30-248c87 1 191-15 191 75 0 78-77 80-158 76V0H30v-248zm33 125c57 0 124 11 124-50 0-59-68-47-124-48v98" id="aN"/><path fill="#333" d="M115-194c53 0 69 39 70 98 0 66-23 100-70 100C84 3 66-7 56-30L54 0H23l1-261h32v101c10-23 28-34 59-34zm-8 174c40 0 45-34 45-75 0-40-5-75-45-74-42 0-51 32-51 76 0 43 10 73 51 73" id="aO"/><g id="m"><use transform="matrix(0.05,0,0,0.05,0,0)" xlink:href="#aA"/><use transform="matrix(0.05,0,0,0.05,10,0)" xlink:href="#aq"/><use transform="matrix(0.05,0,0,0.05,20,0)" xlink:href="#an"/><use transform="matrix(0.05,0,0,0.05,25,0)" xlink:href="#aN"/><use transform="matrix(0.05,0,0,0.05,37,0)" xlink:href="#ax"/><use transform="matrix(0.05,0,0,0.05,47,0)" xlink:href="#aF"/><use transform="matrix(0.05,0,0,0.05,56,0)" xlink:href="#aF"/><use transform="matrix(0.05,0,0,0.05,65,0)" xlink:href="#aJ"/><use transform="matrix(0.05,0,0,0.05,68.95,0)" xlink:href="#aO"/><use transform="matrix(0.05,0,0,0.05,78.95,0)" xlink:href="#aK"/><use transform="matrix(0.05,0,0,0.05,82.9,0)" xlink:href="#aq"/><use transform="matrix(0.05,0,0,0.05,92.9,0)" xlink:href="#aI"/><use transform="matrix(0.05,0,0,0.05,103.2,0)" xlink:href="#aB"/><use transform="matrix(0.05,0,0,0.05,109.15,0)" xlink:href="#as"/><use transform="matrix(0.05,0,0,0.05,119.15,0)" xlink:href="#av"/><use transform="matrix(0.05,0,0,0.05,129.15,0)" xlink:href="#aF"/><use transform="matrix(0.05,0,0,0.05,138.15,0)" xlink:href="#aJ"/><use transform="matrix(0.05,0,0,0.05,142.1,0)" xlink:href="#an"/><use transform="matrix(0.05,0,0,0.05,147.1,0)" xlink:href="#aJ"/><use transform="matrix(0.05,0,0,0.05,151.04999999999998,0)" xlink:href="#ax"/><use transform="matrix(0.05,0,0,0.05,161.04999999999998,0)" xlink:href="#av"/><use transform="matrix(0.05,0,0,0.05,171.04999999999998,0)" xlink:href="#aF"/><use transform="matrix(0.05,0,0,0.05,180.04999999999998,0)" xlink:href="#aD"/><use transform="matrix(0.05,0,0,0.05,185.99999999999997,0)" xlink:href="#aF"/><use transform="matrix(0.05,0,0,0.05,194.99999999999997,0)" xlink:href="#an"/><use transform="matrix(0.05,0,0,0.05,199.99999999999997,0)" xlink:href="#as"/><use transform="matrix(0.05,0,0,0.05,209.99999999999997,0)" xlink:href="#an"/><use transform="matrix(0.05,0,0,0.05,214.99999999999997,0)" xlink:href="#aq"/><use transform="matrix(0.05,0,0,0.05,224.99999999999997,0)" xlink:href="#aE"/></g><g id="n"><use transform="matrix(0.05,0,0,0.05,0,0)" xlink:href="#at"/><use transform="matrix(0.05,0,0,0.05,14.950000000000001,0)" xlink:href="#aq"/><use transform="matrix(0.05,0,0,0.05,24.950000000000003,0)" xlink:href="#at"/><use transform="matrix(0.05,0,0,0.05,39.900000000000006,0)" xlink:href="#ax"/><use transform="matrix(0.05,0,0,0.05,49.900000000000006,0)" xlink:href="#aB"/><use transform="matrix(0.05,0,0,0.05,55.85,0)" xlink:href="#ao"/><use transform="matrix(0.05,0,0,0.05,64.85000000000001,0)" xlink:href="#aG"/></g><g id="o"><use transform="matrix(0.05,0,0,0.05,0,0)" xlink:href="#aA"/><use transform="matrix(0.05,0,0,0.05,10,0)" xlink:href="#aq"/><use transform="matrix(0.05,0,0,0.05,20,0)" xlink:href="#an"/><use transform="matrix(0.05,0,0,0.05,25,0)" xlink:href="#aN"/><use transform="matrix(0.05,0,0,0.05,37,0)" xlink:href="#au"/><use transform="matrix(0.05,0,0,0.05,47,0)" xlink:href="#aB"/><use transform="matrix(0.05,0,0,0.05,52.95,0)" xlink:href="#aq"/><use transform="matrix(0.05,0,0,0.05,62.95,0)" xlink:href="#aI"/><use transform="matrix(0.05,0,0,0.05,73.25,0)" xlink:href="#aB"/><use transform="matrix(0.05,0,0,0.05,79.2,0)" xlink:href="#as"/><use transform="matrix(0.05,0,0,0.05,89.2,0)" xlink:href="#av"/><use transform="matrix(0.05,0,0,0.05,99.2,0)" xlink:href="#aF"/><use transform="matrix(0.05,0,0,0.05,108.2,0)" xlink:href="#aJ"/><use transform="matrix(0.05,0,0,0.05,112.15,0)" xlink:href="#an"/><use transform="matrix(0.05,0,0,0.05,117.15,0)" xlink:href="#aJ"/><use transform="matrix(0.05,0,0,0.05,121.10000000000001,0)" xlink:href="#ax"/><use transform="matrix(0.05,0,0,0.05,131.10000000000002,0)" xlink:href="#av"/><use transform="matrix(0.05,0,0,0.05,141.10000000000002,0)" xlink:href="#aF"/><use transform="matrix(0.05,0,0,0.05,150.10000000000002,0)" xlink:href="#aD"/><use transform="matrix(0.05,0,0,0.05,156.05,0)" xlink:href="#aF"/><use transform="matrix(0.05,0,0,0.05,165.05,0)" xlink:href="#an"/><use transform="matrix(0.05,0,0,0.05,170.05,0)" xlink:href="#as"/><use transform="matrix(0.05,0,0,0.05,180.05,0)" xlink:href="#an"/><use transform="matrix(0.05,0,0,0.05,185.05,0)" xlink:href="#aq"/><use transform="matrix(0.05,0,0,0.05,195.05,0)" xlink:href="#aG"/></g><path d="M80-196l47-18 7 23-49 13 32 44-20 13-27-46-27 45-21-12 33-44-49-13 8-23 47 19-2-53h23" id="aP"/><use transform="matrix(0.05,0,0,0.05,0,0)" xlink:href="#aP" id="p"/><path fill="#333" d="M136-208V0H84v-208H4v-40h212v40h-80" id="aQ"/><path fill="#333" d="M135-150c-39-12-60 13-60 57V0H25l-1-190h47c2 13-1 29 3 40 6-28 27-53 61-41v41" id="aR"/><path fill="#333" d="M133-34C117-15 103 5 69 4 32 3 11-16 11-54c-1-60 55-63 116-61 1-26-3-47-28-47-18 1-26 9-28 27l-52-2c7-38 36-58 82-57s74 22 75 68l1 82c-1 14 12 18 25 15v27c-30 8-71 5-69-32zm-48 3c29 0 43-24 42-57-32 0-66-3-65 30 0 17 8 27 23 27" id="aS"/><path fill="#333" d="M135-194c87-1 58 113 63 194h-50c-7-57 23-157-34-157-59 0-34 97-39 157H25l-1-190h47c2 12-1 28 3 38 12-26 28-41 61-42" id="aT"/><path fill="#333" d="M137-138c1-29-70-34-71-4 15 46 118 7 119 86 1 83-164 76-172 9l43-7c4 19 20 25 44 25 33 8 57-30 24-41C81-84 22-81 20-136c-2-80 154-74 161-7" id="aU"/><path fill="#333" d="M25-224v-37h50v37H25zM25 0v-190h50V0H25" id="aV"/><path fill="#333" d="M115-3C79 11 28 4 28-45v-112H4v-33h27l15-45h31v45h36v33H77v99c-1 23 16 31 38 25v30" id="aW"/><path fill="#333" d="M110-194c64 0 96 36 96 99 0 64-35 99-97 99-61 0-95-36-95-99 0-62 34-99 96-99zm-1 164c35 0 45-28 45-65 0-40-10-65-43-65-34 0-45 26-45 65 0 36 10 65 43 65" id="aX"/><g id="q"><use transform="matrix(0.05,0,0,0.05,0,0)" xlink:href="#aQ"/><use transform="matrix(0.05,0,0,0.05,9.950000000000001,0)" xlink:href="#aR"/><use transform="matrix(0.05,0,0,0.05,16.950000000000003,0)" xlink:href="#aS"/><use transform="matrix(0.05,0,0,0.05,26.950000000000003,0)" xlink:href="#aT"/><use transform="matrix(0.05,0,0,0.05,37.900000000000006,0)" xlink:href="#aU"/><use transform="matrix(0.05,0,0,0.05,47.900000000000006,0)" xlink:href="#aV"/><use transform="matrix(0.05,0,0,0.05,52.900000000000006,0)" xlink:href="#aW"/><use transform="matrix(0.05,0,0,0.05,58.85,0)" xlink:href="#aV"/><use transform="matrix(0.05,0,0,0.05,63.85,0)" xlink:href="#aX"/><use transform="matrix(0.05,0,0,0.05,74.80000000000001,0)" xlink:href="#aT"/></g><g id="r"><use transform="matrix(0.05,0,0,0.05,0,0)" xlink:href="#aF"/><use transform="matrix(0.05,0,0,0.05,9,0)" xlink:href="#ax"/><use transform="matrix(0.05,0,0,0.05,19,0)" xlink:href="#au"/><use transform="matrix(0.05,0,0,0.05,29,0)" xlink:href="#aB"/><use transform="matrix(0.05,0,0,0.05,34.95,0)" xlink:href="#aM"/><use transform="matrix(0.05,0,0,0.05,43.95,0)" xlink:href="#aq"/></g><g id="s"><use transform="matrix(0.05,0,0,0.05,0,0)" xlink:href="#an"/><use transform="matrix(0.05,0,0,0.05,5,0)" xlink:href="#as"/><use transform="matrix(0.05,0,0,0.05,15,0)" xlink:href="#aB"/><use transform="matrix(0.05,0,0,0.05,20.95,0)" xlink:href="#aA"/><use transform="matrix(0.05,0,0,0.05,30.950000000000003,0)" xlink:href="#aq"/><use transform="matrix(0.05,0,0,0.05,40.95,0)" xlink:href="#an"/></g><path fill="#333" d="M130 0H70L30-248h54l24 206c31-72 69-137 103-206h54" id="aY"/><path fill="#333" d="M114-194c63-2 87 48 72 110H63c-3 28 1 55 31 54 21-1 32-13 37-29l44 13C160-14 137 4 91 4 41 4 11-22 11-73c0-71 33-119 103-121zm30 77c14-47-50-61-67-22-3 6-6 13-8 22h75" id="aZ"/><path fill="#333" d="M127 0L95-67 37 0h-53l89-99-49-91h52l30 61 52-61h54l-85 92 52 98h-52" id="ba"/><g id="t"><use transform="matrix(0.05,0,0,0.05,0,0)" xlink:href="#ab"/><use transform="matrix(0.05,0,0,0.05,12.950000000000001,0)" xlink:href="#ai"/><use transform="matrix(0.05,0,0,0.05,23.900000000000002,0)" xlink:href="#ae"/><use transform="matrix(0.05,0,0,0.05,29.85,0)" xlink:href="#aj"/><use transform="matrix(0.05,0,0,0.05,40.800000000000004,0)" xlink:href="#ak"/><use transform="matrix(0.05,0,0,0.05,56.800000000000004,0)" xlink:href="#ag"/><use transform="matrix(0.05,0,0,0.05,66.80000000000001,0)" xlink:href="#ae"/><use transform="matrix(0.05,0,0,0.05,72.75000000000001,0)" xlink:href="#aj"/><use transform="matrix(0.05,0,0,0.05,83.70000000000002,0)" xlink:href="#al"/><use transform="matrix(0.05,0,0,0.05,94.65000000000002,0)" xlink:href="#aY"/><use transform="matrix(0.05,0,0,0.05,106,0)" xlink:href="#aZ"/><use transform="matrix(0.05,0,0,0.05,116,0)" xlink:href="#af"/><use transform="matrix(0.05,0,0,0.05,123,0)" xlink:href="#ae"/><use transform="matrix(0.05,0,0,0.05,128.95000000000002,0)" xlink:href="#aZ"/><use transform="matrix(0.05,0,0,0.05,138.95000000000002,0)" xlink:href="#ba"/></g><g id="u"><use transform="matrix(0.05,0,0,0.05,0,0)" xlink:href="#av"/><use transform="matrix(0.05,0,0,0.05,10,0)" xlink:href="#as"/><use transform="matrix(0.05,0,0,0.05,20,0)" xlink:href="#at"/><use transform="matrix(0.05,0,0,0.05,34.95,0)" xlink:href="#aq"/></g><path fill="#333" d="M33 0v-248h34V0H33" id="bb"/><g id="v"><use transform="matrix(0.05,0,0,0.05,0,0)" xlink:href="#aJ"/><use transform="matrix(0.05,0,0,0.05,3.95,0)" xlink:href="#aF"/><use transform="matrix(0.05,0,0,0.05,12.949999999999998,0)" xlink:href="#bb"/><use transform="matrix(0.05,0,0,0.05,17.95,0)" xlink:href="#av"/><use transform="matrix(0.05,0,0,0.05,27.950000000000003,0)" xlink:href="#aJ"/><use transform="matrix(0.05,0,0,0.05,31.899999999999995,0)" xlink:href="#an"/><use transform="matrix(0.05,0,0,0.05,36.9,0)" xlink:href="#aJ"/><use transform="matrix(0.05,0,0,0.05,40.85,0)" xlink:href="#as"/><use transform="matrix(0.05,0,0,0.05,50.85,0)" xlink:href="#aK"/></g><g id="w"><use transform="matrix(0.05,0,0,0.05,0,0)" xlink:href="#aJ"/><use transform="matrix(0.05,0,0,0.05,3.95,0)" xlink:href="#aF"/><use transform="matrix(0.05,0,0,0.05,12.949999999999998,0)" xlink:href="#aL"/><use transform="matrix(0.05,0,0,0.05,23.9,0)" xlink:href="#aJ"/><use transform="matrix(0.05,0,0,0.05,27.849999999999994,0)" xlink:href="#av"/><use transform="matrix(0.05,0,0,0.05,37.849999999999994,0)" xlink:href="#as"/><use transform="matrix(0.05,0,0,0.05,47.849999999999994,0)" xlink:href="#aK"/></g><path fill="#333" d="M212-179c-10-28-35-45-73-45-59 0-87 40-87 99 0 60 29 101 89 101 43 0 62-24 78-52l27 14C228-24 195 4 139 4 59 4 22-46 18-125c-6-104 99-153 187-111 19 9 31 26 39 46" id="bc"/><g id="x"><use transform="matrix(0.05,0,0,0.05,0,0)" xlink:href="#aJ"/><use transform="matrix(0.05,0,0,0.05,3.95,0)" xlink:href="#aF"/><use transform="matrix(0.05,0,0,0.05,12.949999999999998,0)" xlink:href="#bc"/><use transform="matrix(0.05,0,0,0.05,25.899999999999995,0)" xlink:href="#au"/><use transform="matrix(0.05,0,0,0.05,35.9,0)" xlink:href="#aB"/><use transform="matrix(0.05,0,0,0.05,41.85,0)" xlink:href="#aB"/><use transform="matrix(0.05,0,0,0.05,47.800000000000004,0)" xlink:href="#aq"/><use transform="matrix(0.05,0,0,0.05,57.800000000000004,0)" xlink:href="#av"/><use transform="matrix(0.05,0,0,0.05,67.80000000000001,0)" xlink:href="#an"/></g><g id="y"><use transform="matrix(0.05,0,0,0.05,0,0)" xlink:href="#ap"/><use transform="matrix(0.05,0,0,0.05,10,0)" xlink:href="#ax"/><use transform="matrix(0.05,0,0,0.05,20,0)" xlink:href="#aF"/><use transform="matrix(0.05,0,0,0.05,29,0)" xlink:href="#aJ"/><use transform="matrix(0.05,0,0,0.05,32.95,0)" xlink:href="#an"/><use transform="matrix(0.05,0,0,0.05,37.95,0)" xlink:href="#aJ"/><use transform="matrix(0.05,0,0,0.05,41.900000000000006,0)" xlink:href="#ax"/><use transform="matrix(0.05,0,0,0.05,51.900000000000006,0)" xlink:href="#av"/></g><use transform="matrix(0.05,0,0,0.05,0,0)" xlink:href="#aP" id="z"/><path d="M39-94c74 12-11 154 75 146v23c-44 4-70-10-70-52C44-23 55-84 6-82v-22c81 4-7-162 84-157h24v23c-82-15-2 131-75 144" id="bd"/><path d="M100-194c62-1 85 37 85 99 1 63-27 99-86 99S16-35 15-95c0-66 28-99 85-99zM99-20c44 1 53-31 53-75 0-43-8-75-51-75s-53 32-53 75 10 74 51 75" id="be"/><path d="M114-163C36-179 61-72 57 0H25l-1-190h30c1 12-1 29 2 39 6-27 23-49 58-41v29" id="bf"/><path d="M85-194c31 0 48 13 60 33l-1-100h32l1 261h-30c-2-10 0-23-3-31C134-8 116 4 85 4 32 4 16-35 15-94c0-66 23-100 70-100zm9 24c-40 0-46 34-46 75 0 40 6 74 45 74 42 0 51-32 51-76 0-42-9-74-50-73" id="bg"/><path d="M100-194c63 0 86 42 84 106H49c0 40 14 67 53 68 26 1 43-12 49-29l28 8c-11 28-37 45-77 45C44 4 14-33 15-96c1-61 26-98 85-98zm52 81c6-60-76-77-97-28-3 7-6 17-6 28h103" id="bh"/><path d="M76-40C78 24 84 88 6 75V52C86 64 9-79 80-94c-40-6-34-59-34-106 1-29-11-41-40-38v-23c44-4 70 10 70 52 0 47-12 108 38 105v22c-26 1-39 14-38 42" id="bi"/><g id="A"><use transform="matrix(0.05,0,0,0.05,0,0)" xlink:href="#bd"/><use transform="matrix(0.05,0,0,0.05,6,0)" xlink:href="#be"/><use transform="matrix(0.05,0,0,0.05,16,0)" xlink:href="#bf"/><use transform="matrix(0.05,0,0,0.05,21.95,0)" xlink:href="#bg"/><use transform="matrix(0.05,0,0,0.05,31.950000000000003,0)" xlink:href="#bh"/><use transform="matrix(0.05,0,0,0.05,41.95,0)" xlink:href="#bf"/><use transform="matrix(0.05,0,0,0.05,47.900000000000006,0)" xlink:href="#bh"/><use transform="matrix(0.05,0,0,0.05,57.900000000000006,0)" xlink:href="#bg"/><use transform="matrix(0.05,0,0,0.05,67.9,0)" xlink:href="#bi"/></g><path d="M15-91v-56l181-69v40L49-119l147 57v40" id="bj"/><path d="M25-224v-37h50v37H25zM25 0v-190h50V0H25" id="bk"/><path d="M135-194c87-1 58 113 63 194h-50c-7-57 23-157-34-157-59 0-34 97-39 157H25l-1-190h47c2 12-1 28 3 38 12-26 28-41 61-42" id="bl"/><path d="M115-3C79 11 28 4 28-45v-112H4v-33h27l15-45h31v45h36v33H77v99c-1 23 16 31 38 25v30" id="bm"/><path d="M185-48c-13 30-37 53-82 52C43 2 14-33 14-96s30-98 90-98c62 0 83 45 84 108H66c0 31 8 55 39 56 18 0 30-7 34-22zm-45-69c5-46-57-63-70-21-2 6-4 13-4 21h74" id="bn"/><path d="M135-150c-39-12-60 13-60 57V0H25l-1-190h47c2 13-1 29 3 40 6-28 27-53 61-41v41" id="bo"/><path d="M121-226c-27-7-43 5-38 36h38v33H83V0H34v-157H6v-33h28c-9-59 32-81 87-68v32" id="bp"/><path d="M133-34C117-15 103 5 69 4 32 3 11-16 11-54c-1-60 55-63 116-61 1-26-3-47-28-47-18 1-26 9-28 27l-52-2c7-38 36-58 82-57s74 22 75 68l1 82c-1 14 12 18 25 15v27c-30 8-71 5-69-32zm-48 3c29 0 43-24 42-57-32 0-66-3-65 30 0 17 8 27 23 27" id="bq"/><path d="M190-63c-7 42-38 67-86 67-59 0-84-38-90-98-12-110 154-137 174-36l-49 2c-2-19-15-32-35-32-30 0-35 28-38 64-6 74 65 87 74 30" id="br"/><path d="M15-22v-40l146-57-146-57v-40l181 69v56" id="bs"/><g id="B"><use transform="matrix(0.05,0,0,0.05,0,0)" xlink:href="#bj"/><use transform="matrix(0.05,0,0,0.05,10.5,0)" xlink:href="#bj"/><use transform="matrix(0.05,0,0,0.05,21,0)" xlink:href="#bk"/><use transform="matrix(0.05,0,0,0.05,26,0)" xlink:href="#bl"/><use transform="matrix(0.05,0,0,0.05,36.95,0)" xlink:href="#bm"/><use transform="matrix(0.05,0,0,0.05,42.900000000000006,0)" xlink:href="#bn"/><use transform="matrix(0.05,0,0,0.05,52.900000000000006,0)" xlink:href="#bo"/><use transform="matrix(0.05,0,0,0.05,59.900000000000006,0)" xlink:href="#bp"/><use transform="matrix(0.05,0,0,0.05,65.85000000000001,0)" xlink:href="#bq"/><use transform="matrix(0.05,0,0,0.05,75.85000000000001,0)" xlink:href="#br"/><use transform="matrix(0.05,0,0,0.05,85.85000000000001,0)" xlink:href="#bn"/><use transform="matrix(0.05,0,0,0.05,95.85000000000001,0)" xlink:href="#bs"/><use transform="matrix(0.05,0,0,0.05,106.35000000000001,0)" xlink:href="#bs"/></g><path fill="#333" d="M199 0l-22-63H83L61 0H9l90-248h61L250 0h-51zm-33-102l-36-108c-10 38-24 72-36 108h72" id="bt"/><path fill="#333" d="M85 4C-2 5 27-109 22-190h50c7 57-23 150 33 157 60-5 35-97 40-157h50l1 190h-47c-2-12 1-28-3-38-12 25-28 42-61 42" id="bu"/><path fill="#333" d="M220-157c-53 9-28 100-34 157h-49v-107c1-27-5-49-29-50C55-147 81-57 75 0H25l-1-190h47c2 12-1 28 3 38 10-53 101-56 108 0 13-22 24-43 59-42 82 1 51 116 57 194h-49v-107c-1-25-5-48-29-50" id="bv"/><path fill="#333" d="M230 0l2-204L168 0h-37L68-204 70 0H24v-248h70l56 185 57-185h69V0h-46" id="bw"/><path fill="#333" d="M88-194c31-1 46 15 58 34l-1-101h50l1 261h-48c-2-10 0-23-3-31C134-8 116 4 84 4 32 4 16-41 15-95c0-56 19-97 73-99zm17 164c33 0 40-30 41-66 1-37-9-64-41-64s-38 30-39 65c0 43 13 65 39 65" id="bx"/><path fill="#333" d="M25 0v-261h50V0H25" id="by"/><path fill="#333" d="M185-48c-13 30-37 53-82 52C43 2 14-33 14-96s30-98 90-98c62 0 83 45 84 108H66c0 31 8 55 39 56 18 0 30-7 34-22zm-45-69c5-46-57-63-70-21-2 6-4 13-4 21h74" id="bz"/><g id="C"><use transform="matrix(0.05,0,0,0.05,0,0)" xlink:href="#bt"/><use transform="matrix(0.05,0,0,0.05,12.950000000000001,0)" xlink:href="#bu"/><use transform="matrix(0.05,0,0,0.05,23.900000000000002,0)" xlink:href="#aW"/><use transform="matrix(0.05,0,0,0.05,29.85,0)" xlink:href="#aX"/><use transform="matrix(0.05,0,0,0.05,40.800000000000004,0)" xlink:href="#bv"/><use transform="matrix(0.05,0,0,0.05,56.800000000000004,0)" xlink:href="#aS"/><use transform="matrix(0.05,0,0,0.05,66.80000000000001,0)" xlink:href="#aW"/><use transform="matrix(0.05,0,0,0.05,72.75000000000001,0)" xlink:href="#aX"/><use transform="matrix(0.05,0,0,0.05,83.70000000000002,0)" xlink:href="#aT"/><use transform="matrix(0.05,0,0,0.05,94.65000000000002,0)" xlink:href="#bw"/><use transform="matrix(0.05,0,0,0.05,109.60000000000002,0)" xlink:href="#aX"/><use transform="matrix(0.05,0,0,0.05,120.55000000000003,0)" xlink:href="#bx"/><use transform="matrix(0.05,0,0,0.05,131.50000000000003,0)" xlink:href="#bu"/><use transform="matrix(0.05,0,0,0.05,142.45000000000002,0)" xlink:href="#by"/><use transform="matrix(0.05,0,0,0.05,147.45000000000002,0)" xlink:href="#bz"/></g><path fill="#333" d="M15-91v-56l181-69v40L49-119l147 57v40" id="bA"/><path fill="#333" d="M121-226c-27-7-43 5-38 36h38v33H83V0H34v-157H6v-33h28c-9-59 32-81 87-68v32" id="bB"/><path fill="#333" d="M190-63c-7 42-38 67-86 67-59 0-84-38-90-98-12-110 154-137 174-36l-49 2c-2-19-15-32-35-32-30 0-35 28-38 64-6 74 65 87 74 30" id="bC"/><path fill="#333" d="M15-22v-40l146-57-146-57v-40l181 69v56" id="bD"/><g id="D"><use transform="matrix(0.05,0,0,0.05,0,0)" xlink:href="#bA"/><use transform="matrix(0.05,0,0,0.05,10.5,0)" xlink:href="#bA"/><use transform="matrix(0.05,0,0,0.05,21,0)" xlink:href="#aV"/><use transform="matrix(0.05,0,0,0.05,26,0)" xlink:href="#aT"/><use transform="matrix(0.05,0,0,0.05,36.95,0)" xlink:href="#aW"/><use transform="matrix(0.05,0,0,0.05,42.900000000000006,0)" xlink:href="#bz"/><use transform="matrix(0.05,0,0,0.05,52.900000000000006,0)" xlink:href="#aR"/><use transform="matrix(0.05,0,0,0.05,59.900000000000006,0)" xlink:href="#bB"/><use transform="matrix(0.05,0,0,0.05,65.85000000000001,0)" xlink:href="#aS"/><use transform="matrix(0.05,0,0,0.05,75.85000000000001,0)" xlink:href="#bC"/><use transform="matrix(0.05,0,0,0.05,85.85000000000001,0)" xlink:href="#bz"/><use transform="matrix(0.05,0,0,0.05,95.85000000000001,0)" xlink:href="#bD"/><use transform="matrix(0.05,0,0,0.05,106.35000000000001,0)" xlink:href="#bD"/></g><path fill="#333" d="M123 10C108 53 80 86 19 72V37c35 8 53-11 59-39L3-190h52l48 148c12-52 28-100 44-148h51" id="bE"/><path fill="#333" d="M238-95c0 69-44 99-111 99C63 4 22-25 22-93v-155h51v151c-1 38 19 59 55 60 90 1 49-130 58-211h52v153" id="bF"/><path fill="#333" d="M24-248c120-7 223 5 221 122C244-46 201 0 124 0H24v-248zM76-40c74 7 117-18 117-86 0-67-45-88-117-82v168" id="bG"/><path fill="#333" d="M135-194c53 0 70 44 70 98 0 56-19 98-73 100-31 1-45-17-59-34 3 33 2 69 2 105H25l-1-265h48c2 10 0 23 3 31 11-24 29-35 60-35zM114-30c33 0 39-31 40-66 0-38-9-64-40-64-56 0-55 130 0 130" id="bH"/><g id="E"><use transform="matrix(0.05,0,0,0.05,0,0)" xlink:href="#bw"/><use transform="matrix(0.05,0,0,0.05,14.950000000000001,0)" xlink:href="#bz"/><use transform="matrix(0.05,0,0,0.05,24.950000000000003,0)" xlink:href="#bv"/><use transform="matrix(0.05,0,0,0.05,40.95,0)" xlink:href="#aX"/><use transform="matrix(0.05,0,0,0.05,51.900000000000006,0)" xlink:href="#aR"/><use transform="matrix(0.05,0,0,0.05,58.900000000000006,0)" xlink:href="#bE"/><use transform="matrix(0.05,0,0,0.05,68.9,0)" xlink:href="#bF"/><use transform="matrix(0.05,0,0,0.05,81.85000000000001,0)" xlink:href="#aT"/><use transform="matrix(0.05,0,0,0.05,92.80000000000001,0)" xlink:href="#aV"/><use transform="matrix(0.05,0,0,0.05,97.80000000000001,0)" xlink:href="#aW"/><use transform="matrix(0.05,0,0,0.05,103.75,0)" xlink:href="#bG"/><use transform="matrix(0.05,0,0,0.05,116.7,0)" xlink:href="#bz"/><use transform="matrix(0.05,0,0,0.05,126.7,0)" xlink:href="#aU"/><use transform="matrix(0.05,0,0,0.05,136.70000000000002,0)" xlink:href="#bC"/><use transform="matrix(0.05,0,0,0.05,146.70000000000002,0)" xlink:href="#aR"/><use transform="matrix(0.05,0,0,0.05,153.70000000000002,0)" xlink:href="#aV"/><use transform="matrix(0.05,0,0,0.05,158.70000000000002,0)" xlink:href="#bH"/><use transform="matrix(0.05,0,0,0.05,169.65,0)" xlink:href="#aW"/><use transform="matrix(0.05,0,0,0.05,175.6,0)" xlink:href="#aX"/><use transform="matrix(0.05,0,0,0.05,186.54999999999998,0)" xlink:href="#aR"/></g><path d="M118-107v75H92v-75H18v-26h74v-75h26v75h74v26h-74" id="bI"/><use transform="matrix(0.05,0,0,0.05,0,0)" xlink:href="#bI" id="F"/><path d="M177-190C167-65 218 103 67 71c-23-6-38-20-44-43l32-5c15 47 100 32 89-28v-30C133-14 115 1 83 1 29 1 15-40 15-95c0-56 16-97 71-98 29-1 48 16 59 35 1-10 0-23 2-32h30zM94-22c36 0 50-32 50-73 0-42-14-75-50-75-39 0-46 34-46 75s6 73 46 73" id="bJ"/><path d="M59-47c-2 24 18 29 38 22v24C64 9 27 4 27-40v-127H5v-23h24l9-43h21v43h35v23H59v120" id="bK"/><path d="M127-220V0H93v-220H8v-28h204v28h-85" id="bL"/><path d="M141-36C126-15 110 5 73 4 37 3 15-17 15-53c-1-64 63-63 125-63 3-35-9-54-41-54-24 1-41 7-42 31l-33-3c5-37 33-52 76-52 45 0 72 20 72 64v82c-1 20 7 32 28 27v20c-31 9-61-2-59-35zM48-53c0 20 12 33 32 33 41-3 63-29 60-74-43 2-92-5-92 41" id="bM"/><path d="M117-194c89-4 53 116 60 194h-32v-121c0-31-8-49-39-48C34-167 62-67 57 0H25l-1-190h30c1 10-1 24 2 32 11-22 29-35 61-36" id="bN"/><path d="M135-143c-3-34-86-38-87 0 15 53 115 12 119 90S17 21 10-45l28-5c4 36 97 45 98 0-10-56-113-15-118-90-4-57 82-63 122-42 12 7 21 19 24 35" id="bO"/><path d="M24-231v-30h32v30H24zM24 0v-190h32V0H24" id="bP"/><path d="M185-189c-5-48-123-54-124 2 14 75 158 14 163 119 3 78-121 87-175 55-17-10-28-26-33-46l33-7c5 56 141 63 141-1 0-78-155-14-162-118-5-82 145-84 179-34 5 7 8 16 11 25" id="bQ"/><path d="M30 0v-248h187v28H63v79h144v27H63v87h162V0H30" id="bR"/><path d="M101-234c-31-9-42 10-38 44h38v23H63V0H32v-167H5v-23h27c-7-52 17-82 69-68v24" id="bS"/><path d="M96-169c-40 0-48 33-48 73s9 75 48 75c24 0 41-14 43-38l32 2c-6 37-31 61-74 61-59 0-76-41-82-99-10-93 101-131 147-64 4 7 5 14 7 22l-32 3c-4-21-16-35-41-35" id="bT"/><path d="M87 75C49 33 22-17 22-94c0-76 28-126 65-167h31c-38 41-64 92-64 168S80 34 118 75H87" id="bU"/><path d="M33-261c38 41 65 92 65 168S71 34 33 75H2C39 34 66-17 66-93S39-220 2-261h31" id="bV"/><g id="G"><use transform="matrix(0.05,0,0,0.05,0,0)" xlink:href="#bJ"/><use transform="matrix(0.05,0,0,0.05,10,0)" xlink:href="#bh"/><use transform="matrix(0.05,0,0,0.05,20,0)" xlink:href="#bK"/><use transform="matrix(0.05,0,0,0.05,25,0)" xlink:href="#bL"/><use transform="matrix(0.05,0,0,0.05,35.300000000000004,0)" xlink:href="#bf"/><use transform="matrix(0.05,0,0,0.05,41.25000000000001,0)" xlink:href="#bM"/><use transform="matrix(0.05,0,0,0.05,51.25,0)" xlink:href="#bN"/><use transform="matrix(0.05,0,0,0.05,61.25,0)" xlink:href="#bO"/><use transform="matrix(0.05,0,0,0.05,70.25,0)" xlink:href="#bP"/><use transform="matrix(0.05,0,0,0.05,74.2,0)" xlink:href="#bK"/><use transform="matrix(0.05,0,0,0.05,79.2,0)" xlink:href="#bP"/><use transform="matrix(0.05,0,0,0.05,83.15,0)" xlink:href="#be"/><use transform="matrix(0.05,0,0,0.05,93.15,0)" xlink:href="#bN"/><use transform="matrix(0.05,0,0,0.05,103.15,0)" xlink:href="#bO"/><use transform="matrix(0.05,0,0,0.05,112.15,0)" xlink:href="#bQ"/><use transform="matrix(0.05,0,0,0.05,124.15,0)" xlink:href="#bP"/><use transform="matrix(0.05,0,0,0.05,128.1,0)" xlink:href="#bg"/><use transform="matrix(0.05,0,0,0.05,138.1,0)" xlink:href="#bh"/><use transform="matrix(0.05,0,0,0.05,148.1,0)" xlink:href="#bR"/><use transform="matrix(0.05,0,0,0.05,160.1,0)" xlink:href="#bS"/><use transform="matrix(0.05,0,0,0.05,164.75,0)" xlink:href="#bS"/><use transform="matrix(0.05,0,0,0.05,169.75,0)" xlink:href="#bh"/><use transform="matrix(0.05,0,0,0.05,179.75,0)" xlink:href="#bT"/><use transform="matrix(0.05,0,0,0.05,188.75,0)" xlink:href="#bK"/><use transform="matrix(0.05,0,0,0.05,193.75,0)" xlink:href="#bO"/><use transform="matrix(0.05,0,0,0.05,202.75,0)" xlink:href="#bU"/><use transform="matrix(0.05,0,0,0.05,208.69999999999996,0)" xlink:href="#bV"/></g><path d="M63-220v92h138v28H63V0H30v-248h175v28H63" id="bW"/><path d="M24 0v-261h32V0H24" id="bX"/><g id="H"><use transform="matrix(0.05,0,0,0.05,0,0)" xlink:href="#bJ"/><use transform="matrix(0.05,0,0,0.05,10,0)" xlink:href="#bh"/><use transform="matrix(0.05,0,0,0.05,20,0)" xlink:href="#bK"/><use transform="matrix(0.05,0,0,0.05,25,0)" xlink:href="#bL"/><use transform="matrix(0.05,0,0,0.05,35.300000000000004,0)" xlink:href="#bf"/><use transform="matrix(0.05,0,0,0.05,41.25000000000001,0)" xlink:href="#bM"/><use transform="matrix(0.05,0,0,0.05,51.25,0)" xlink:href="#bN"/><use transform="matrix(0.05,0,0,0.05,61.25,0)" xlink:href="#bO"/><use transform="matrix(0.05,0,0,0.05,70.25,0)" xlink:href="#bP"/><use transform="matrix(0.05,0,0,0.05,74.2,0)" xlink:href="#bK"/><use transform="matrix(0.05,0,0,0.05,79.2,0)" xlink:href="#bP"/><use transform="matrix(0.05,0,0,0.05,83.15,0)" xlink:href="#be"/><use transform="matrix(0.05,0,0,0.05,93.15,0)" xlink:href="#bN"/><use transform="matrix(0.05,0,0,0.05,103.15,0)" xlink:href="#bO"/><use transform="matrix(0.05,0,0,0.05,112.15,0)" xlink:href="#bW"/><use transform="matrix(0.05,0,0,0.05,123.10000000000001,0)" xlink:href="#bP"/><use transform="matrix(0.05,0,0,0.05,127.05000000000001,0)" xlink:href="#bX"/><use transform="matrix(0.05,0,0,0.05,131,0)" xlink:href="#bK"/><use transform="matrix(0.05,0,0,0.05,136,0)" xlink:href="#bh"/><use transform="matrix(0.05,0,0,0.05,146,0)" xlink:href="#bf"/><use transform="matrix(0.05,0,0,0.05,151.95,0)" xlink:href="#bO"/><use transform="matrix(0.05,0,0,0.05,160.95,0)" xlink:href="#bU"/><use transform="matrix(0.05,0,0,0.05,166.89999999999998,0)" xlink:href="#bV"/></g><g id="I"><use transform="matrix(0.05,0,0,0.05,0,0)" xlink:href="#bJ"/><use transform="matrix(0.05,0,0,0.05,10,0)" xlink:href="#bh"/><use transform="matrix(0.05,0,0,0.05,20,0)" xlink:href="#bK"/><use transform="matrix(0.05,0,0,0.05,25,0)" xlink:href="#bQ"/><use transform="matrix(0.05,0,0,0.05,37,0)" xlink:href="#bK"/><use transform="matrix(0.05,0,0,0.05,42,0)" xlink:href="#bM"/><use transform="matrix(0.05,0,0,0.05,52,0)" xlink:href="#bK"/><use transform="matrix(0.05,0,0,0.05,57,0)" xlink:href="#bh"/><use transform="matrix(0.05,0,0,0.05,67,0)" xlink:href="#bO"/><use transform="matrix(0.05,0,0,0.05,76,0)" xlink:href="#bQ"/><use transform="matrix(0.05,0,0,0.05,88,0)" xlink:href="#bP"/><use transform="matrix(0.05,0,0,0.05,91.95,0)" xlink:href="#bg"/><use transform="matrix(0.05,0,0,0.05,101.95,0)" xlink:href="#bh"/><use transform="matrix(0.05,0,0,0.05,111.95,0)" xlink:href="#bR"/><use transform="matrix(0.05,0,0,0.05,123.95,0)" xlink:href="#bS"/><use transform="matrix(0.05,0,0,0.05,128.60000000000002,0)" xlink:href="#bS"/><use transform="matrix(0.05,0,0,0.05,133.60000000000002,0)" xlink:href="#bh"/><use transform="matrix(0.05,0,0,0.05,143.60000000000002,0)" xlink:href="#bT"/><use transform="matrix(0.05,0,0,0.05,152.60000000000002,0)" xlink:href="#bK"/><use transform="matrix(0.05,0,0,0.05,157.60000000000002,0)" xlink:href="#bO"/><use transform="matrix(0.05,0,0,0.05,166.60000000000002,0)" xlink:href="#bU"/><use transform="matrix(0.05,0,0,0.05,172.55,0)" xlink:href="#bV"/></g><path d="M30-248c118-7 216 8 213 122C240-48 200 0 122 0H30v-248zM63-27c89 8 146-16 146-99s-60-101-146-95v194" id="bY"/><path d="M115-194c55 1 70 41 70 98S169 2 115 4C84 4 66-9 55-30l1 105H24l-1-265h31l2 30c10-21 28-34 59-34zm-8 174c40 0 45-34 45-75s-6-73-45-74c-42 0-51 32-51 76 0 43 10 73 51 73" id="bZ"/><path d="M179-190L93 31C79 59 56 82 12 73V49c39 6 53-20 64-50L1-190h34L92-34l54-156h33" id="ca"/><path d="M190 0L58-211 59 0H30v-248h39L202-35l-2-213h31V0h-41" id="cb"/><path d="M210-169c-67 3-38 105-44 169h-31v-121c0-29-5-50-35-48C34-165 62-65 56 0H25l-1-190h30c1 10-1 24 2 32 10-44 99-50 107 0 11-21 27-35 58-36 85-2 47 119 55 194h-31v-121c0-29-5-49-35-48" id="cc"/><g id="J"><use transform="matrix(0.05,0,0,0.05,0,0)" xlink:href="#bJ"/><use transform="matrix(0.05,0,0,0.05,10,0)" xlink:href="#bh"/><use transform="matrix(0.05,0,0,0.05,20,0)" xlink:href="#bK"/><use transform="matrix(0.05,0,0,0.05,25,0)" xlink:href="#bY"/><use transform="matrix(0.05,0,0,0.05,37.95,0)" xlink:href="#bP"/><use transform="matrix(0.05,0,0,0.05,41.900000000000006,0)" xlink:href="#bO"/><use transform="matrix(0.05,0,0,0.05,50.900000000000006,0)" xlink:href="#bZ"/><use transform="matrix(0.05,0,0,0.05,60.900000000000006,0)" xlink:href="#bX"/><use transform="matrix(0.05,0,0,0.05,64.85000000000001,0)" xlink:href="#bM"/><use transform="matrix(0.05,0,0,0.05,74.85000000000001,0)" xlink:href="#ca"/><use transform="matrix(0.05,0,0,0.05,83.85000000000001,0)" xlink:href="#cb"/><use transform="matrix(0.05,0,0,0.05,96.80000000000001,0)" xlink:href="#bM"/><use transform="matrix(0.05,0,0,0.05,106.80000000000001,0)" xlink:href="#cc"/><use transform="matrix(0.05,0,0,0.05,121.75,0)" xlink:href="#bh"/><use transform="matrix(0.05,0,0,0.05,131.75,0)" xlink:href="#bU"/><use transform="matrix(0.05,0,0,0.05,137.7,0)" xlink:href="#bV"/></g><g id="K"><use transform="matrix(0.05,0,0,0.05,0,0)" xlink:href="#bT"/><use transform="matrix(0.05,0,0,0.05,9,0)" xlink:href="#bf"/><use transform="matrix(0.05,0,0,0.05,14.949999999999998,0)" xlink:href="#bh"/><use transform="matrix(0.05,0,0,0.05,24.95,0)" xlink:href="#bM"/><use transform="matrix(0.05,0,0,0.05,34.95,0)" xlink:href="#bK"/><use transform="matrix(0.05,0,0,0.05,39.95,0)" xlink:href="#bh"/><use transform="matrix(0.05,0,0,0.05,49.95,0)" xlink:href="#bR"/><use transform="matrix(0.05,0,0,0.05,61.95,0)" xlink:href="#bg"/><use transform="matrix(0.05,0,0,0.05,71.95,0)" xlink:href="#bP"/><use transform="matrix(0.05,0,0,0.05,75.9,0)" xlink:href="#bK"/><use transform="matrix(0.05,0,0,0.05,80.9,0)" xlink:href="#be"/><use transform="matrix(0.05,0,0,0.05,90.9,0)" xlink:href="#bf"/><use transform="matrix(0.05,0,0,0.05,96.85000000000001,0)" xlink:href="#bU"/><use transform="matrix(0.05,0,0,0.05,102.80000000000001,0)" xlink:href="#bV"/></g><path d="M240 0l2-218c-23 76-54 145-80 218h-23L58-218 59 0H30v-248h44l77 211c21-75 51-140 76-211h43V0h-30" id="cd"/><path d="M232-93c-1 65-40 97-104 97C67 4 28-28 28-90v-158h33c8 89-33 224 67 224 102 0 64-133 71-224h33v155" id="ce"/><g id="L"><use transform="matrix(0.05,0,0,0.05,0,0)" xlink:href="#bT"/><use transform="matrix(0.05,0,0,0.05,9,0)" xlink:href="#bf"/><use transform="matrix(0.05,0,0,0.05,14.949999999999998,0)" xlink:href="#bh"/><use transform="matrix(0.05,0,0,0.05,24.95,0)" xlink:href="#bM"/><use transform="matrix(0.05,0,0,0.05,34.95,0)" xlink:href="#bK"/><use transform="matrix(0.05,0,0,0.05,39.95,0)" xlink:href="#bh"/><use transform="matrix(0.05,0,0,0.05,49.95,0)" xlink:href="#cd"/><use transform="matrix(0.05,0,0,0.05,64.9,0)" xlink:href="#bh"/><use transform="matrix(0.05,0,0,0.05,74.9,0)" xlink:href="#cc"/><use transform="matrix(0.05,0,0,0.05,89.85000000000001,0)" xlink:href="#be"/><use transform="matrix(0.05,0,0,0.05,99.85000000000001,0)" xlink:href="#bf"/><use transform="matrix(0.05,0,0,0.05,105.80000000000001,0)" xlink:href="#ca"/><use transform="matrix(0.05,0,0,0.05,114.80000000000001,0)" xlink:href="#ce"/><use transform="matrix(0.05,0,0,0.05,127.75,0)" xlink:href="#bN"/><use transform="matrix(0.05,0,0,0.05,137.75,0)" xlink:href="#bP"/><use transform="matrix(0.05,0,0,0.05,141.7,0)" xlink:href="#bK"/><use transform="matrix(0.05,0,0,0.05,146.7,0)" xlink:href="#bU"/><use transform="matrix(0.05,0,0,0.05,152.64999999999998,0)" xlink:href="#bV"/></g><path d="M18-100v-36l175-74v27L42-118l151 64v27" id="cf"/><path d="M18-27v-27l151-64-151-65v-27l175 74v36" id="cg"/><g id="M"><use transform="matrix(0.05,0,0,0.05,0,0)" xlink:href="#cf"/><use transform="matrix(0.05,0,0,0.05,10.5,0)" xlink:href="#cf"/><use transform="matrix(0.05,0,0,0.05,21,0)" xlink:href="#bT"/><use transform="matrix(0.05,0,0,0.05,30,0)" xlink:href="#bf"/><use transform="matrix(0.05,0,0,0.05,35.95,0)" xlink:href="#bh"/><use transform="matrix(0.05,0,0,0.05,45.95,0)" xlink:href="#bM"/><use transform="matrix(0.05,0,0,0.05,55.95,0)" xlink:href="#bK"/><use transform="matrix(0.05,0,0,0.05,60.95,0)" xlink:href="#bh"/><use transform="matrix(0.05,0,0,0.05,70.95,0)" xlink:href="#cg"/><use transform="matrix(0.05,0,0,0.05,81.45,0)" xlink:href="#cg"/></g><g id="N"><use transform="matrix(0.05,0,0,0.05,0,0)" xlink:href="#bw"/><use transform="matrix(0.05,0,0,0.05,14.950000000000001,0)" xlink:href="#bz"/><use transform="matrix(0.05,0,0,0.05,24.950000000000003,0)" xlink:href="#bv"/><use transform="matrix(0.05,0,0,0.05,40.95,0)" xlink:href="#aX"/><use transform="matrix(0.05,0,0,0.05,51.900000000000006,0)" xlink:href="#aR"/><use transform="matrix(0.05,0,0,0.05,58.900000000000006,0)" xlink:href="#bE"/><use transform="matrix(0.05,0,0,0.05,68.9,0)" xlink:href="#bF"/><use transform="matrix(0.05,0,0,0.05,81.85000000000001,0)" xlink:href="#aT"/><use transform="matrix(0.05,0,0,0.05,92.80000000000001,0)" xlink:href="#aV"/><use transform="matrix(0.05,0,0,0.05,97.80000000000001,0)" xlink:href="#aW"/></g><path d="M84 4C-5 8 30-112 23-190h32v120c0 31 7 50 39 49 72-2 45-101 50-169h31l1 190h-30c-1-10 1-25-2-33-11 22-28 36-60 37" id="ch"/><g id="O"><use transform="matrix(0.05,0,0,0.05,0,0)" xlink:href="#bJ"/><use transform="matrix(0.05,0,0,0.05,10,0)" xlink:href="#bh"/><use transform="matrix(0.05,0,0,0.05,20,0)" xlink:href="#bK"/><use transform="matrix(0.05,0,0,0.05,25,0)" xlink:href="#bQ"/><use transform="matrix(0.05,0,0,0.05,37,0)" xlink:href="#bK"/><use transform="matrix(0.05,0,0,0.05,42,0)" xlink:href="#bM"/><use transform="matrix(0.05,0,0,0.05,52,0)" xlink:href="#bK"/><use transform="matrix(0.05,0,0,0.05,57,0)" xlink:href="#ch"/><use transform="matrix(0.05,0,0,0.05,67,0)" xlink:href="#bO"/><use transform="matrix(0.05,0,0,0.05,76,0)" xlink:href="#bU"/><use transform="matrix(0.05,0,0,0.05,81.95,0)" xlink:href="#bV"/></g><path d="M212-179c-10-28-35-45-73-45-59 0-87 40-87 99 0 60 29 101 89 101 43 0 62-24 78-52l27 14C228-24 195 4 139 4 59 4 22-46 18-125c-6-104 99-153 187-111 19 9 31 26 39 46" id="ci"/><path d="M137 0h-34L2-248h35l83 218 83-218h36" id="cj"/><g id="P"><use transform="matrix(0.05,0,0,0.05,0,0)" xlink:href="#bJ"/><use transform="matrix(0.05,0,0,0.05,10,0)" xlink:href="#bh"/><use transform="matrix(0.05,0,0,0.05,20,0)" xlink:href="#bK"/><use transform="matrix(0.05,0,0,0.05,25,0)" xlink:href="#ci"/><use transform="matrix(0.05,0,0,0.05,37.95,0)" xlink:href="#ch"/><use transform="matrix(0.05,0,0,0.05,47.95,0)" xlink:href="#bf"/><use transform="matrix(0.05,0,0,0.05,53.900000000000006,0)" xlink:href="#bf"/><use transform="matrix(0.05,0,0,0.05,59.85,0)" xlink:href="#bh"/><use transform="matrix(0.05,0,0,0.05,69.85000000000001,0)" xlink:href="#bN"/><use transform="matrix(0.05,0,0,0.05,79.85000000000001,0)" xlink:href="#bK"/><use transform="matrix(0.05,0,0,0.05,84.85000000000001,0)" xlink:href="#bW"/><use transform="matrix(0.05,0,0,0.05,95.80000000000001,0)" xlink:href="#bP"/><use transform="matrix(0.05,0,0,0.05,99.75000000000001,0)" xlink:href="#bX"/><use transform="matrix(0.05,0,0,0.05,103.7,0)" xlink:href="#bK"/><use transform="matrix(0.05,0,0,0.05,108.7,0)" xlink:href="#bh"/><use transform="matrix(0.05,0,0,0.05,118.7,0)" xlink:href="#bf"/><use transform="matrix(0.05,0,0,0.05,124.65000000000003,0)" xlink:href="#cj"/><use transform="matrix(0.05,0,0,0.05,135.3,0)" xlink:href="#bM"/><use transform="matrix(0.05,0,0,0.05,145.3,0)" xlink:href="#bX"/><use transform="matrix(0.05,0,0,0.05,149.25,0)" xlink:href="#ch"/><use transform="matrix(0.05,0,0,0.05,159.25,0)" xlink:href="#bh"/><use transform="matrix(0.05,0,0,0.05,169.25,0)" xlink:href="#bO"/><use transform="matrix(0.05,0,0,0.05,178.25,0)" xlink:href="#bU"/><use transform="matrix(0.05,0,0,0.05,184.2,0)" xlink:href="#bV"/></g><g id="Q"><use transform="matrix(0.05,0,0,0.05,0,0)" xlink:href="#be"/><use transform="matrix(0.05,0,0,0.05,10,0)" xlink:href="#bN"/><use transform="matrix(0.05,0,0,0.05,20,0)" xlink:href="#bL"/><use transform="matrix(0.05,0,0,0.05,30.3,0)" xlink:href="#bf"/><use transform="matrix(0.05,0,0,0.05,36.25000000000001,0)" xlink:href="#bM"/><use transform="matrix(0.05,0,0,0.05,46.25000000000001,0)" xlink:href="#bN"/><use transform="matrix(0.05,0,0,0.05,56.25,0)" xlink:href="#bO"/><use transform="matrix(0.05,0,0,0.05,65.25,0)" xlink:href="#bP"/><use transform="matrix(0.05,0,0,0.05,69.2,0)" xlink:href="#bK"/><use transform="matrix(0.05,0,0,0.05,74.2,0)" xlink:href="#bP"/><use transform="matrix(0.05,0,0,0.05,78.15,0)" xlink:href="#be"/><use transform="matrix(0.05,0,0,0.05,88.15,0)" xlink:href="#bN"/><use transform="matrix(0.05,0,0,0.05,98.15,0)" xlink:href="#bU"/><use transform="matrix(0.05,0,0,0.05,104.10000000000001,0)" xlink:href="#bK"/><use transform="matrix(0.05,0,0,0.05,109.10000000000001,0)" xlink:href="#bf"/><use transform="matrix(0.05,0,0,0.05,115.05000000000001,0)" xlink:href="#bM"/><use transform="matrix(0.05,0,0,0.05,125.05000000000001,0)" xlink:href="#bN"/><use transform="matrix(0.05,0,0,0.05,135.05,0)" xlink:href="#bO"/><use transform="matrix(0.05,0,0,0.05,144.05,0)" xlink:href="#bP"/><use transform="matrix(0.05,0,0,0.05,148,0)" xlink:href="#bK"/><use transform="matrix(0.05,0,0,0.05,153,0)" xlink:href="#bP"/><use transform="matrix(0.05,0,0,0.05,156.95,0)" xlink:href="#be"/><use transform="matrix(0.05,0,0,0.05,166.95,0)" xlink:href="#bN"/><use transform="matrix(0.05,0,0,0.05,176.95,0)" xlink:href="#bV"/></g><g id="R"><use transform="matrix(0.05,0,0,0.05,0,0)" xlink:href="#be"/><use transform="matrix(0.05,0,0,0.05,10,0)" xlink:href="#bN"/><use transform="matrix(0.05,0,0,0.05,20,0)" xlink:href="#bQ"/><use transform="matrix(0.05,0,0,0.05,32,0)" xlink:href="#bK"/><use transform="matrix(0.05,0,0,0.05,37,0)" xlink:href="#bM"/><use transform="matrix(0.05,0,0,0.05,47,0)" xlink:href="#bK"/><use transform="matrix(0.05,0,0,0.05,52,0)" xlink:href="#bh"/><use transform="matrix(0.05,0,0,0.05,62,0)" xlink:href="#bR"/><use transform="matrix(0.05,0,0,0.05,74,0)" xlink:href="#bN"/><use transform="matrix(0.05,0,0,0.05,84,0)" xlink:href="#bK"/><use transform="matrix(0.05,0,0,0.05,89,0)" xlink:href="#bh"/><use transform="matrix(0.05,0,0,0.05,99,0)" xlink:href="#bf"/><use transform="matrix(0.05,0,0,0.05,104.95,0)" xlink:href="#bh"/><use transform="matrix(0.05,0,0,0.05,114.95,0)" xlink:href="#bg"/><use transform="matrix(0.05,0,0,0.05,124.95,0)" xlink:href="#bU"/><use transform="matrix(0.05,0,0,0.05,130.9,0)" xlink:href="#bO"/><use transform="matrix(0.05,0,0,0.05,139.9,0)" xlink:href="#bK"/><use transform="matrix(0.05,0,0,0.05,144.9,0)" xlink:href="#bM"/><use transform="matrix(0.05,0,0,0.05,154.9,0)" xlink:href="#bK"/><use transform="matrix(0.05,0,0,0.05,159.9,0)" xlink:href="#bh"/><use transform="matrix(0.05,0,0,0.05,169.9,0)" xlink:href="#bV"/></g><path d="M33-154v-36h34v36H33zM33 0v-36h34V0H33" id="ck"/><g id="S"><use transform="matrix(0.05,0,0,0.05,0,0)" xlink:href="#bJ"/><use transform="matrix(0.05,0,0,0.05,10,0)" xlink:href="#bh"/><use transform="matrix(0.05,0,0,0.05,20,0)" xlink:href="#bK"/><use transform="matrix(0.05,0,0,0.05,25,0)" xlink:href="#bY"/><use transform="matrix(0.05,0,0,0.05,37.95,0)" xlink:href="#bP"/><use transform="matrix(0.05,0,0,0.05,41.900000000000006,0)" xlink:href="#bO"/><use transform="matrix(0.05,0,0,0.05,50.900000000000006,0)" xlink:href="#bZ"/><use transform="matrix(0.05,0,0,0.05,60.900000000000006,0)" xlink:href="#bX"/><use transform="matrix(0.05,0,0,0.05,64.85000000000001,0)" xlink:href="#bM"/><use transform="matrix(0.05,0,0,0.05,74.85000000000001,0)" xlink:href="#ca"/><use transform="matrix(0.05,0,0,0.05,83.85000000000001,0)" xlink:href="#cb"/><use transform="matrix(0.05,0,0,0.05,96.80000000000001,0)" xlink:href="#bM"/><use transform="matrix(0.05,0,0,0.05,106.80000000000001,0)" xlink:href="#cc"/><use transform="matrix(0.05,0,0,0.05,121.75,0)" xlink:href="#bh"/><use transform="matrix(0.05,0,0,0.05,131.75,0)" xlink:href="#bU"/><use transform="matrix(0.05,0,0,0.05,137.7,0)" xlink:href="#bV"/><use transform="matrix(0.05,0,0,0.05,143.64999999999998,0)" xlink:href="#ck"/></g><g id="T"><use transform="matrix(0.05,0,0,0.05,0,0)" xlink:href="#bT"/><use transform="matrix(0.05,0,0,0.05,9,0)" xlink:href="#be"/><use transform="matrix(0.05,0,0,0.05,19,0)" xlink:href="#bZ"/><use transform="matrix(0.05,0,0,0.05,29,0)" xlink:href="#ca"/><use transform="matrix(0.05,0,0,0.05,38,0)" xlink:href="#bU"/><use transform="matrix(0.05,0,0,0.05,43.95,0)" xlink:href="#bV"/></g><path fill="#333" d="M6 0l48-248h195l-8 40H98l-12 63h132l-7 40H79L66-40h150l-8 40H6" id="cl"/><path fill="#333" d="M6 0l51-261h49L55 0H6" id="cm"/><g id="U"><use transform="matrix(0.05,0,0,0.05,0,0)" xlink:href="#ab"/><use transform="matrix(0.05,0,0,0.05,12.950000000000001,0)" xlink:href="#ai"/><use transform="matrix(0.05,0,0,0.05,23.900000000000002,0)" xlink:href="#ae"/><use transform="matrix(0.05,0,0,0.05,29.85,0)" xlink:href="#aj"/><use transform="matrix(0.05,0,0,0.05,40.800000000000004,0)" xlink:href="#ak"/><use transform="matrix(0.05,0,0,0.05,56.800000000000004,0)" xlink:href="#ag"/><use transform="matrix(0.05,0,0,0.05,66.80000000000001,0)" xlink:href="#ae"/><use transform="matrix(0.05,0,0,0.05,72.75000000000001,0)" xlink:href="#aj"/><use transform="matrix(0.05,0,0,0.05,83.70000000000002,0)" xlink:href="#al"/><use transform="matrix(0.05,0,0,0.05,94.65000000000002,0)" xlink:href="#cl"/><use transform="matrix(0.05,0,0,0.05,106.65000000000003,0)" xlink:href="#cm"/><use transform="matrix(0.05,0,0,0.05,111.65000000000003,0)" xlink:href="#aZ"/><use transform="matrix(0.05,0,0,0.05,121.65000000000003,0)" xlink:href="#ak"/><use transform="matrix(0.05,0,0,0.05,137.65000000000003,0)" xlink:href="#aZ"/><use transform="matrix(0.05,0,0,0.05,147.65000000000003,0)" xlink:href="#al"/><use transform="matrix(0.05,0,0,0.05,158.60000000000002,0)" xlink:href="#ae"/></g><path fill="#333" d="M143 4C61 4 22-44 18-125c-5-107 100-154 193-111 17 8 29 25 37 43l-32 9c-13-25-37-40-76-40-61 0-88 39-88 99 0 61 29 100 91 101 35 0 62-11 79-27v-45h-74v-28h105v86C228-13 192 4 143 4" id="cn"/><g id="V"><use transform="matrix(0.05,0,0,0.05,0,0)" xlink:href="#ap"/><use transform="matrix(0.05,0,0,0.05,10,0)" xlink:href="#aB"/><use transform="matrix(0.05,0,0,0.05,15.949999999999998,0)" xlink:href="#ax"/><use transform="matrix(0.05,0,0,0.05,25.950000000000003,0)" xlink:href="#ap"/><use transform="matrix(0.05,0,0,0.05,35.95,0)" xlink:href="#aq"/><use transform="matrix(0.05,0,0,0.05,45.95,0)" xlink:href="#aB"/><use transform="matrix(0.05,0,0,0.05,51.900000000000006,0)" xlink:href="#an"/><use transform="matrix(0.05,0,0,0.05,56.900000000000006,0)" xlink:href="#ao"/><use transform="matrix(0.05,0,0,0.05,65.9,0)" xlink:href="#cn"/><use transform="matrix(0.05,0,0,0.05,79.9,0)" xlink:href="#aB"/><use transform="matrix(0.05,0,0,0.05,85.85000000000001,0)" xlink:href="#ax"/><use transform="matrix(0.05,0,0,0.05,95.85000000000001,0)" xlink:href="#au"/><use transform="matrix(0.05,0,0,0.05,105.85000000000001,0)" xlink:href="#ap"/><use transform="matrix(0.05,0,0,0.05,115.85000000000001,0)" xlink:href="#aF"/></g><g id="W"><use transform="matrix(0.05,0,0,0.05,0,0)" xlink:href="#aA"/><use transform="matrix(0.05,0,0,0.05,10,0)" xlink:href="#aq"/><use transform="matrix(0.05,0,0,0.05,20,0)" xlink:href="#an"/><use transform="matrix(0.05,0,0,0.05,25,0)" xlink:href="#aN"/><use transform="matrix(0.05,0,0,0.05,37,0)" xlink:href="#aB"/><use transform="matrix(0.05,0,0,0.05,42.95,0)" xlink:href="#ax"/><use transform="matrix(0.05,0,0,0.05,52.95,0)" xlink:href="#ap"/><use transform="matrix(0.05,0,0,0.05,62.95,0)" xlink:href="#aq"/><use transform="matrix(0.05,0,0,0.05,72.95,0)" xlink:href="#aB"/><use transform="matrix(0.05,0,0,0.05,78.9,0)" xlink:href="#an"/><use transform="matrix(0.05,0,0,0.05,83.9,0)" xlink:href="#ao"/><use transform="matrix(0.05,0,0,0.05,92.9,0)" xlink:href="#aD"/><use transform="matrix(0.05,0,0,0.05,98.85000000000001,0)" xlink:href="#aw"/><use transform="matrix(0.05,0,0,0.05,108.85000000000001,0)" xlink:href="#aq"/><use transform="matrix(0.05,0,0,0.05,118.85000000000001,0)" xlink:href="#aF"/><use transform="matrix(0.05,0,0,0.05,127.85000000000001,0)" xlink:href="#aM"/><use transform="matrix(0.05,0,0,0.05,136.85000000000002,0)" xlink:href="#aB"/><use transform="matrix(0.05,0,0,0.05,142.8,0)" xlink:href="#aJ"/><use transform="matrix(0.05,0,0,0.05,146.75,0)" xlink:href="#ap"/><use transform="matrix(0.05,0,0,0.05,156.75,0)" xlink:href="#an"/><use transform="matrix(0.05,0,0,0.05,161.75,0)" xlink:href="#ax"/><use transform="matrix(0.05,0,0,0.05,171.75,0)" xlink:href="#aB"/><use transform="matrix(0.05,0,0,0.05,177.7,0)" xlink:href="#aG"/></g><path d="M169-182c-1-43-94-46-97-3 18 66 151 10 154 114 3 95-165 93-204 36-6-8-10-19-12-30l50-8c3 46 112 56 116 5-17-69-150-10-154-114-4-87 153-88 188-35 5 8 8 18 10 28" id="co"/><g id="Y"><use transform="matrix(0.05,0,0,0.05,0,0)" xlink:href="#co"/><use transform="matrix(0.05,0,0,0.05,12,0)" xlink:href="#bm"/><use transform="matrix(0.05,0,0,0.05,17.95,0)" xlink:href="#bq"/><use transform="matrix(0.05,0,0,0.05,27.950000000000003,0)" xlink:href="#bm"/><use transform="matrix(0.05,0,0,0.05,33.9,0)" xlink:href="#bn"/></g><path d="M182-130c37 4 62 22 62 59C244 23 116-4 24 0v-248c84 5 203-23 205 63 0 31-19 50-47 55zM76-148c40-3 101 13 101-30 0-44-60-28-101-31v61zm0 110c48-3 116 14 116-37 0-48-69-32-116-35v72" id="cp"/><path d="M85 4C-2 5 27-109 22-190h50c7 57-23 150 33 157 60-5 35-97 40-157h50l1 190h-47c-2-12 1-28-3-38-12 25-28 42-61 42" id="cq"/><path d="M25 0v-261h50V0H25" id="cr"/><path d="M88-194c31-1 46 15 58 34l-1-101h50l1 261h-48c-2-10 0-23-3-31C134-8 116 4 84 4 32 4 16-41 15-95c0-56 19-97 73-99zm17 164c33 0 40-30 41-66 1-37-9-64-41-64s-38 30-39 65c0 43 13 65 39 65" id="cs"/><path d="M195-6C206 82 75 100 31 46c-4-6-6-13-8-21l49-6c3 16 16 24 34 25 40 0 42-37 40-79-11 22-30 35-61 35-53 0-70-43-70-97 0-56 18-96 73-97 30 0 46 14 59 34l2-30h47zm-90-29c32 0 41-27 41-63 0-35-9-62-40-62-32 0-39 29-40 63 0 36 9 62 39 62" id="ct"/><path d="M110-194c64 0 96 36 96 99 0 64-35 99-97 99-61 0-95-36-95-99 0-62 34-99 96-99zm-1 164c35 0 45-28 45-65 0-40-10-65-43-65-34 0-45 26-45 65 0 36 10 65 43 65" id="cu"/><path d="M147 0L96-86 75-71V0H25v-261h50v150l67-79h53l-66 74L201 0h-54" id="cv"/><g id="Z"><use transform="matrix(0.05,0,0,0.05,0,0)" xlink:href="#cp"/><use transform="matrix(0.05,0,0,0.05,12.950000000000001,0)" xlink:href="#cq"/><use transform="matrix(0.05,0,0,0.05,23.900000000000002,0)" xlink:href="#bk"/><use transform="matrix(0.05,0,0,0.05,28.900000000000002,0)" xlink:href="#cr"/><use transform="matrix(0.05,0,0,0.05,33.900000000000006,0)" xlink:href="#cs"/><use transform="matrix(0.05,0,0,0.05,44.85000000000001,0)" xlink:href="#bk"/><use transform="matrix(0.05,0,0,0.05,49.85000000000001,0)" xlink:href="#bl"/><use transform="matrix(0.05,0,0,0.05,60.80000000000001,0)" xlink:href="#ct"/><use transform="matrix(0.05,0,0,0.05,71.75000000000001,0)" xlink:href="#cp"/><use transform="matrix(0.05,0,0,0.05,84.70000000000002,0)" xlink:href="#cr"/><use transform="matrix(0.05,0,0,0.05,89.70000000000002,0)" xlink:href="#cu"/><use transform="matrix(0.05,0,0,0.05,100.65000000000002,0)" xlink:href="#br"/><use transform="matrix(0.05,0,0,0.05,110.65000000000003,0)" xlink:href="#cv"/></g><path d="M115-194c53 0 69 39 70 98 0 66-23 100-70 100C84 3 66-7 56-30L54 0H23l1-261h32v101c10-23 28-34 59-34zm-8 174c40 0 45-34 45-75 0-40-5-75-45-74-42 0-51 32-51 76 0 43 10 73 51 73" id="cw"/><path d="M205 0l-28-72H64L36 0H1l101-248h38L239 0h-34zm-38-99l-47-123c-12 45-31 82-46 123h93" id="cx"/><g id="aa"><use transform="matrix(0.05,0,0,0.05,0,0)" xlink:href="#bO"/><use transform="matrix(0.05,0,0,0.05,9,0)" xlink:href="#ch"/><use transform="matrix(0.05,0,0,0.05,19,0)" xlink:href="#cw"/><use transform="matrix(0.05,0,0,0.05,29,0)" xlink:href="#cx"/><use transform="matrix(0.05,0,0,0.05,41,0)" xlink:href="#ch"/><use transform="matrix(0.05,0,0,0.05,51,0)" xlink:href="#bK"/><use transform="matrix(0.05,0,0,0.05,56,0)" xlink:href="#be"/><use transform="matrix(0.05,0,0,0.05,66,0)" xlink:href="#cc"/><use transform="matrix(0.05,0,0,0.05,80.95,0)" xlink:href="#bM"/><use transform="matrix(0.05,0,0,0.05,90.95,0)" xlink:href="#bK"/><use transform="matrix(0.05,0,0,0.05,95.95,0)" xlink:href="#be"/><use transform="matrix(0.05,0,0,0.05,105.95,0)" xlink:href="#bN"/></g></defs></g></svg>